<svg width="85" height="21" viewBox="0 0 85 21" fill="none" xmlns="http://www.w3.org/2000/svg">
<path d="M4.02348 20V5.9L0.813477 6.38V1.67L9.66348 0.379999V20H4.02348ZM18.1005 20.3C17.5405 20.3 16.8605 20.25 16.0605 20.15C15.2605 20.07 14.4705 19.95 13.6905 19.79C12.9305 19.63 12.2905 19.45 11.7705 19.25V14.75C12.6305 15.13 13.5505 15.41 14.5305 15.59C15.5105 15.75 16.4005 15.83 17.2005 15.83C18.3205 15.83 19.1505 15.69 19.6905 15.41C20.2505 15.13 20.5305 14.61 20.5305 13.85C20.5305 12.73 19.6505 12.17 17.8905 12.17H14.6205L14.9805 8.39H17.7105C18.5905 8.39 19.2205 8.25 19.6005 7.97C19.9805 7.69 20.1705 7.24 20.1705 6.62C20.1705 6.04 19.9205 5.6 19.4205 5.3C18.9405 5 18.1505 4.85 17.0505 4.85C16.1705 4.85 15.2805 4.95 14.3805 5.15C13.4805 5.35 12.7105 5.61 12.0705 5.93V1.46C12.8105 1.16 13.7305 0.91 14.8305 0.71C15.9305 0.489999 17.0305 0.379999 18.1305 0.379999C19.8105 0.379999 21.2305 0.619999 22.3905 1.1C23.5505 1.58 24.4305 2.24 25.0305 3.08C25.6305 3.92 25.9305 4.88 25.9305 5.96C25.9305 6.88 25.7505 7.72 25.3905 8.48C25.0505 9.24 24.5405 9.84 23.8605 10.28C25.4805 10.96 26.2905 12.31 26.2905 14.33C26.2905 15.71 25.9305 16.84 25.2105 17.72C24.5105 18.6 23.5405 19.25 22.3005 19.67C21.0805 20.09 19.6805 20.3 18.1005 20.3ZM28.3959 20V0.679998H42.9159V4.88H34.0359V8.21H41.7759V12.47H34.0359V20H28.3959ZM53.6913 20.3C50.4913 20.3 48.0413 19.52 46.3413 17.96C44.6613 16.4 43.8213 13.88 43.8213 10.4C43.8213 8 44.2013 6.07 44.9613 4.61C45.7213 3.13 46.8313 2.06 48.2913 1.4C49.7713 0.719999 51.5713 0.379999 53.6913 0.379999C55.8113 0.379999 57.6013 0.719999 59.0613 1.4C60.5413 2.06 61.6613 3.13 62.4213 4.61C63.1813 6.07 63.5613 8 63.5613 10.4C63.5613 13.88 62.7113 16.4 61.0113 17.96C59.3113 19.52 56.8713 20.3 53.6913 20.3ZM53.6913 15.5C55.1313 15.5 56.1713 15.1 56.8113 14.3C57.4713 13.48 57.8013 12.18 57.8013 10.4C57.8013 8.5 57.4713 7.16 56.8113 6.38C56.1713 5.58 55.1313 5.18 53.6913 5.18C52.2513 5.18 51.2013 5.58 50.5413 6.38C49.9013 7.16 49.5813 8.5 49.5813 10.4C49.5813 12.18 49.9013 13.48 50.5413 14.3C51.2013 15.1 52.2513 15.5 53.6913 15.5ZM63.0986 20L70.2386 10.22L63.3686 0.679998H70.0886L73.6286 5.75L77.1986 0.679998H83.9186L77.0486 10.22L84.1886 20H77.3786L73.6286 14.75L69.9086 20H63.0986Z" fill="white"/>
</svg>
