<svg width="172" height="172" viewBox="0 0 172 172" fill="none" xmlns="http://www.w3.org/2000/svg">
<g clip-path="url(#clip0_74_266)">
<g filter="url(#filter0_f_74_266)">
<path d="M86 122C105.882 122 122 105.882 122 86C122 66.1177 105.882 50 86 50C66.1177 50 50 66.1177 50 86C50 105.882 66.1177 122 86 122Z" fill="white"/>
<path d="M86 122C105.882 122 122 105.882 122 86C122 66.1177 105.882 50 86 50C66.1177 50 50 66.1177 50 86C50 105.882 66.1177 122 86 122Z" fill="#82AEFE"/>
</g>
<path d="M85.5 127C110.077 127 130 107.077 130 82.5C130 57.9233 110.077 38 85.5 38C60.9233 38 41 57.9233 41 82.5C41 107.077 60.9233 127 85.5 127Z" fill="white"/>
<path d="M85.5 127C110.077 127 130 107.077 130 82.5C130 57.9233 110.077 38 85.5 38C60.9233 38 41 57.9233 41 82.5C41 107.077 60.9233 127 85.5 127Z" fill="#4C8CFF" fill-opacity="0.5"/>
<path d="M92.2926 88.2277L91.1765 87.1692L92.2926 88.2297V88.2277ZM99.3624 99.9346L98.2443 98.874L99.3604 99.9346H99.3624ZM96.642 101.391L96.7938 102.919L96.642 101.389V101.391ZM68.0755 72.5925C68.0646 72.3907 68.0141 72.1931 67.9268 72.0108C67.8395 71.8286 67.7171 71.6654 67.5667 71.5304C67.4163 71.3954 67.2408 71.2914 67.0502 71.2243C66.8596 71.1572 66.6576 71.1282 66.4558 71.1391C66.254 71.15 66.0563 71.2006 65.8741 71.2879C65.6918 71.3752 65.5285 71.4975 65.3936 71.6479C65.2586 71.7983 65.1546 71.9738 65.0874 72.1644C65.0203 72.3549 64.9913 72.5569 65.0022 72.7586L68.0755 72.5925ZM70.0574 64.7298C69.7879 65.0275 69.6456 65.4188 69.6607 65.82C69.6758 66.2212 69.8473 66.6007 70.1383 66.8773C70.4294 67.1539 70.8172 67.3057 71.2187 67.3004C71.6203 67.2951 72.0038 67.133 72.2875 66.8488L70.0574 64.7298ZM82.2562 99.0279C82.4273 99.1381 82.6186 99.2133 82.8189 99.2491C83.0193 99.285 83.2248 99.2807 83.4235 99.2365C83.6222 99.1924 83.8102 99.1092 83.9765 98.992C84.1429 98.8747 84.2843 98.7255 84.3926 98.5532C84.5009 98.3809 84.5739 98.1888 84.6074 97.988C84.6409 97.7873 84.6343 97.5819 84.5879 97.3837C84.5414 97.1856 84.4561 96.9986 84.3369 96.8336C84.2177 96.6687 84.067 96.529 83.8934 96.4227L82.2562 99.0279ZM91.3838 99.5325C90.9841 99.449 90.5676 99.5276 90.226 99.7511C89.8843 99.9747 89.6455 100.325 89.5619 100.724C89.4784 101.124 89.5571 101.54 89.7806 101.882C90.0042 102.224 90.3543 102.462 90.7539 102.546L91.3838 99.5325ZM92.4752 90.2728L93.4087 89.2882L91.1765 87.1692L90.2431 88.1538L92.4752 90.2728ZM96.484 88.8738L100.403 91.1303L101.937 88.4636L98.0186 86.2071L96.484 88.8738ZM101.16 95.8073L98.2443 98.874L100.476 100.995L103.39 97.9263L101.16 95.8073ZM77.5273 91.1241C69.5753 82.7527 68.2417 75.69 68.0755 72.5925L65.0022 72.7586C65.2074 76.5536 66.8159 84.3158 75.2972 93.2431L77.5273 91.1241ZM80.3503 77.5095L80.937 76.89L78.7069 74.771L78.1181 75.3905L80.3503 77.5095ZM81.4007 69.177L78.8136 65.5195L76.3004 67.296L78.8854 70.9535L81.4007 69.177ZM79.2321 76.449C78.8629 76.0932 78.4902 75.741 78.114 75.3925L78.1099 75.3966L78.1038 75.4028C78.0673 75.4405 78.0331 75.4802 78.0012 75.5218C77.8001 75.7879 77.6409 76.0833 77.5293 76.3977C77.3283 76.9618 77.2216 77.7085 77.357 78.6398C77.6237 80.4696 78.8239 82.9291 81.9567 86.2297L84.1888 84.1086C81.2591 81.0255 80.537 79.128 80.4015 78.1926C80.3359 77.7413 80.4015 77.5054 80.4282 77.4295L80.4446 77.3905C80.4278 77.4175 80.4086 77.4429 80.3872 77.4664C80.3752 77.4804 80.3628 77.4961 80.3503 77.5095L79.2321 76.449ZM81.9567 86.2276C85.0812 89.5179 87.4406 90.8103 89.2398 91.1036C90.1651 91.2534 90.9139 91.1323 91.4802 90.9087C91.7939 90.7856 92.0856 90.6124 92.3439 90.3959L92.4178 90.3262L92.4465 90.2974C92.4513 90.2934 92.4561 90.2893 92.4608 90.2851L92.467 90.279L92.4691 90.2749C92.4691 90.2749 92.4732 90.2728 91.3571 89.2123C90.241 88.1538 90.2431 88.1497 90.2431 88.1497L90.2472 88.1477L90.2513 88.1415L90.2636 88.1312C90.2946 88.1013 90.3268 88.0726 90.36 88.0451C90.3785 88.0328 90.3764 88.0369 90.3498 88.0471C90.3087 88.0636 90.1241 88.1292 89.7343 88.0656C88.9095 87.9302 87.1287 87.2041 84.1888 84.1086L81.9567 86.2276ZM78.8136 65.5195C76.7333 62.5779 72.5726 62.0795 70.0574 64.7298L72.2875 66.8488C73.3605 65.7206 75.25 65.8088 76.3004 67.296L78.8136 65.5195ZM98.2443 98.874C97.6719 99.4771 97.0749 99.8012 96.4922 99.8587L96.7938 102.919C98.3264 102.769 99.5676 101.953 100.476 100.995L98.2443 98.8761V98.874ZM80.937 76.89C82.923 74.7997 83.0625 71.5299 81.4007 69.177L78.8875 70.9535C79.7532 72.1781 79.6199 73.811 78.7069 74.771L80.937 76.89ZM100.403 91.1303C102.087 92.1006 102.417 94.4842 101.16 95.8073L103.39 97.9263C106.067 95.1078 105.285 90.3918 101.937 88.4636L100.403 91.1303ZM93.4087 89.2882C94.1986 88.4554 95.4316 88.2687 96.484 88.8738L98.0186 86.2071C95.7639 84.9107 92.9717 85.282 91.1765 87.1692L93.4087 89.2882ZM83.8934 96.4227C81.8766 95.155 79.7286 93.4401 77.5273 91.1241L75.2972 93.2431C77.6647 95.7355 80.0097 97.6166 82.2562 99.0279L83.8934 96.4227ZM96.4902 99.8587C94.7813 100.009 93.0596 99.8987 91.3838 99.5325L90.7539 102.546C92.7367 102.975 94.7732 103.101 96.7938 102.919L96.4922 99.8587H96.4902Z" fill="white"/>
<path d="M139.27 55.8357C137.908 55.9925 136.499 56.1852 135.041 56.4067C134.474 56.4951 133.897 56.5804 133.316 56.677C133.025 57.16 132.727 57.6471 132.41 58.1354C133.559 57.9207 134.677 57.7338 135.761 57.5562C136.711 57.4086 137.64 57.2733 138.54 57.1545C149.489 55.7016 156.758 56.5451 158.169 60.0741C159.719 63.9429 153.906 70.3438 143.176 77.6369C134.711 83.3926 123.174 89.7003 109.786 95.7787C105.92 97.5235 101.899 99.2626 97.758 100.957C96.8442 101.332 95.919 101.704 94.9826 102.073C76.2278 109.55 58.594 114.757 45.1363 117.162C44.5669 117.262 44.0046 117.358 43.4495 117.449C43.026 117.522 42.6168 117.586 42.2005 117.655C29.9367 119.561 21.7094 118.851 20.1992 115.084C18.7108 111.37 23.9893 105.344 33.8765 98.433C33.7756 97.9949 33.6818 97.5527 33.5992 97.1135C21.568 105.625 15.1045 113.367 17.0769 118.28C18.8977 122.832 27.6062 124.162 40.45 122.684C40.941 122.63 41.435 122.564 41.9403 122.502C43.0783 122.35 44.2561 122.186 45.447 121.995C57.5116 120.089 72.4634 116.076 88.4625 110.209C91.2549 109.189 94.0877 108.107 96.9355 106.969C98.2244 106.454 99.4949 105.94 100.757 105.411C117.873 98.3358 132.824 90.439 143.779 83.0256C157.292 73.8877 164.724 65.4726 162.629 60.2482C160.823 55.6878 152.11 54.3509 139.27 55.8357Z" fill="url(#paint0_linear_74_266)"/>
</g>
<defs>
<filter id="filter0_f_74_266" x="0" y="0" width="172" height="172" filterUnits="userSpaceOnUse" color-interpolation-filters="sRGB">
<feFlood flood-opacity="0" result="BackgroundImageFix"/>
<feBlend mode="normal" in="SourceGraphic" in2="BackgroundImageFix" result="shape"/>
<feGaussianBlur stdDeviation="25" result="effect1_foregroundBlur_74_266"/>
</filter>
<linearGradient id="paint0_linear_74_266" x1="103.829" y1="116.887" x2="79.9406" y2="69.5644" gradientUnits="userSpaceOnUse">
<stop stop-color="#83ECEC"/>
<stop offset="1" stop-color="#8EE2D3" stop-opacity="0.3"/>
</linearGradient>
<clipPath id="clip0_74_266">
<rect width="172" height="172" fill="white"/>
</clipPath>
</defs>
</svg>
