<svg width="13" height="13" viewBox="0 0 13 13" fill="none" xmlns="http://www.w3.org/2000/svg">
<g clip-path="url(#clip0_47_536)">
<path d="M6.5 8.00581L3.26688 4.38696H0L6.49997 12.1347L6.5 12.1347V8.00581Z" fill="#6AB2CC"/>
<path d="M13 4.38696H9.73311V4.38699V4.38696L6.5 8.00581V12.1347L13 4.38696Z" fill="#6AB2CC"/>
<path d="M3.26685 4.38696L6.49996 12.1347L9.73308 4.38696H3.26685Z" fill="#7DD2F0"/>
<path d="M4.89315 0.865234H2.09808L0 4.38699H3.26686H3.26688L6.5 2.62694L4.89315 0.865234Z" fill="#7DD2F0"/>
<path d="M10.9019 0.865234H8.10685L6.5 2.62694L9.73311 4.38699H13L10.9019 0.865234Z" fill="#7DD2F0"/>
<path d="M4.89312 0.865234L3.26685 4.38699H9.73308L8.10681 0.865234H4.89312Z" fill="#6AB2CC"/>
</g>
<defs>
<clipPath id="clip0_47_536">
<rect width="13" height="13" fill="white"/>
</clipPath>
</defs>
</svg>
