<svg width="19" height="18" viewBox="0 0 19 18" fill="none" xmlns="http://www.w3.org/2000/svg">
<path d="M6.34562 2.28406C6.34562 2.28406 7.97417 2.98263 8.11127 4.86835C8.21417 6.2612 6.39699 5.68692 6.39699 5.68692C6.39699 5.68692 5.68127 3.48406 6.34562 2.28406Z" fill="url(#paint0_radial_3_20)"/>
<path d="M7.04004 4.66691C7.04004 5.4812 6.74431 5.73834 6.35859 5.53691C6.21286 5.02691 5.78859 3.29978 6.35004 2.28406C6.34576 2.28406 7.04004 3.09834 7.04004 4.66691Z" fill="url(#paint1_radial_3_20)"/>
<path d="M8.29563 3.45854C6.40563 2.9314 5.29563 4.87711 6.08418 6.06426C6.08418 6.06426 6.30281 5.14711 6.91136 4.84711C7.51991 4.54711 8.24846 5.04854 8.24846 5.04854L8.89136 4.4014L8.29563 3.45854Z" fill="url(#paint2_radial_3_20)"/>
<path d="M7.98269 12.2868C7.98269 12.2868 8.43269 13.9925 8.43269 14.8111C8.43269 15.6297 8.83979 16.4483 9.58979 16.6025C10.3398 16.7568 14.6684 16.9283 15.7612 14.4725L15.7098 13.5854L11.7369 4.02397C7.90124 2.74682 5.11551 5.71254 3.89834 8.7597C3.00696 10.9968 0.739787 11.7468 1.91834 13.8425C2.91269 15.6168 5.08979 15.784 6.26406 13.4354C6.69269 12.5868 7.30124 12.3725 7.98269 12.2868Z" fill="url(#paint3_radial_3_20)"/>
<path opacity="0.75" d="M7.98269 12.2868C7.98269 12.2868 8.43269 13.9925 8.43269 14.8111C8.43269 15.6297 8.83979 16.4483 9.58979 16.6025C10.3398 16.7568 14.6684 16.9283 15.7612 14.4725L15.7098 13.5854L11.7369 4.02397C7.90124 2.74682 5.11551 5.71254 3.89834 8.7597C3.00696 10.9968 0.739787 11.7468 1.91834 13.8425C2.91269 15.6168 5.08979 15.784 6.26406 13.4354C6.69269 12.5868 7.30124 12.3725 7.98269 12.2868Z" fill="url(#paint4_radial_3_20)"/>
<path opacity="0.75" d="M7.98269 12.2868C7.98269 12.2868 8.43269 13.9925 8.43269 14.8111C8.43269 15.6297 8.83979 16.4483 9.58979 16.6025C10.3398 16.7568 14.6684 16.9283 15.7612 14.4725L15.7098 13.5854L11.7369 4.02397C7.90124 2.74682 5.11551 5.71254 3.89834 8.7597C3.00696 10.9968 0.739787 11.7468 1.91834 13.8425C2.91269 15.6168 5.08979 15.784 6.26406 13.4354C6.69269 12.5868 7.30124 12.3725 7.98269 12.2868Z" fill="url(#paint5_radial_3_20)"/>
<path d="M8.33002 4.10962C6.29002 4.55962 6.59429 6.33819 7.68292 6.94676C7.69574 6.95534 7.70857 6.94248 7.70429 6.92962C7.66574 6.76676 7.52429 6.07676 7.81574 5.63534C8.15002 5.12962 8.92574 5.20676 8.92574 5.20676L9.13574 4.40962L8.33002 4.10962Z" fill="url(#paint6_radial_3_20)"/>
<path d="M8.87406 3.82288L9.52124 4.06716C12.7312 5.27145 15.0369 8.13427 15.5084 11.5286C15.6884 12.8229 15.7441 13.8814 15.7612 14.2886C15.5555 14.1686 15.3327 14.1729 15.1269 14.4472C14.5398 15.2486 14.1284 15.1972 14.4027 14.9229C14.6769 14.6486 14.8441 13.6457 14.6084 13.4914C14.3727 13.3372 13.8069 12.7243 13.4341 12.0257C13.0612 11.3272 13.3141 10.1829 13.1084 10.1357C11.4841 9.75 11.1241 7.91145 11.0384 7.86862C9.94124 7.30716 9.64124 5.82002 9.58551 5.68716L8.11551 4.03716C8.35979 3.95145 8.61269 3.87859 8.87406 3.82288Z" fill="url(#paint7_radial_3_20)"/>
<path d="M1.92284 13.8381C2.91712 15.6124 5.09429 15.7795 6.26857 13.431C6.68857 12.5867 7.29711 12.3724 7.98284 12.291V12.2995C9.09284 12.1667 10.4214 12.3381 11.5571 10.6067C11.5571 10.6067 12.3371 9.57382 10.6314 9.54382C8.57857 9.50955 8.66429 10.6667 7.92284 10.9238C6.67139 11.3524 5.51002 11.3353 5.15002 12.2738C4.79429 13.2081 1.92284 13.8381 1.92284 13.8381Z" fill="url(#paint8_radial_3_20)"/>
<path d="M13.8929 10.067C13.5114 11.9099 14.4843 14.4942 17.3557 13.9413C17.4372 13.9242 17.4586 13.8299 17.3857 13.8042C16.8372 13.6156 16.0872 12.8056 15.9114 10.5385C15.8 9.1413 14.9943 9.22702 13.8114 9.40702C12.6286 9.58702 13.8929 10.067 13.8929 10.067Z" fill="url(#paint9_linear_3_20)"/>
<path d="M13.7856 9.64673L15.4742 10.9625L15.9842 11.2025C16.0742 11.7982 16.2028 12.2696 16.3613 12.6382C16.207 13.0453 15.9199 13.4396 15.4699 13.791C15.1828 13.6667 14.9385 13.4953 14.7285 13.2896C14.7413 13.251 14.7499 13.2296 14.7499 13.2296L14.647 13.2039C14.5442 13.0925 14.4499 12.9682 14.3642 12.8396C14.3556 12.3167 14.2785 11.2496 13.8113 10.8682C13.8113 10.5939 13.837 10.3196 13.8885 10.0625C13.8885 10.0625 13.6956 9.98955 13.5328 9.891C13.6613 9.74955 13.7856 9.64673 13.7856 9.64673Z" fill="url(#paint10_linear_3_20)"/>
<path d="M8.51427 4.39704C8.09 4.22989 8.03855 3.77133 8.46717 3.61276C10.46 2.87561 12.2 3.86133 12.8857 5.28418C14.3429 8.3013 16.0057 8.40847 16.0743 11.1942C16.1257 13.337 14.7414 14.6656 14.5186 14.7513C14.2486 14.8542 14.7071 13.7699 14.5743 11.8242C14.4629 10.2427 13.0229 9.77557 12.6629 9.2742C12.3029 8.77275 10.7385 5.26704 10.7385 5.26704L8.51427 4.39704Z" fill="url(#paint11_linear_3_20)"/>
<path d="M15.0414 12.3214C16.2928 8.9271 12.5685 7.89 12.4228 5.93141C12.2471 3.61284 9.75276 3.61712 8.47139 3.61712C10.4642 2.87998 12.3328 3.73284 13.0228 5.15569C14.4799 8.17282 16.0099 8.41282 16.0785 11.1985C16.1299 13.3414 14.6728 14.7128 14.5228 14.7557C14.5185 14.7514 14.1071 14.8543 15.0414 12.3214Z" fill="url(#paint12_linear_3_20)"/>
<path d="M8.51427 4.39703C9.15717 3.39417 10.19 4.30703 11.18 5.2156C11.48 5.49417 11.9943 5.36989 12.0629 5.78132C12.2814 5.6656 12.4829 5.49417 12.6329 5.29703C12.71 5.19417 12.9114 5.84989 12.2857 6.40703C12.2129 6.47132 12.1786 6.56989 12.1957 6.66417C12.26 7.02845 12.3629 7.41417 12.5729 7.81275C12.9029 7.82558 13.2072 7.75275 13.4 7.68848C13.4686 7.66703 13.52 7.7442 13.4772 7.79985C13.3614 7.94985 13.2243 8.0913 13.1429 8.17703C13.0914 8.22848 13.0743 8.30558 13.1043 8.3742C13.22 8.6313 13.4472 8.93558 13.7429 9.1713C14.0943 9.44985 14.3686 9.74558 14.5786 10.0542C14.7157 10.0413 14.84 10.0285 14.9386 10.0113C15.0372 9.99848 15.0972 10.0628 15.0372 10.1185C14.9729 10.1785 14.9 10.2299 14.8314 10.2813C14.7886 10.3113 14.7714 10.3713 14.7972 10.4185C15.4443 11.6999 15.3114 13.4656 14.4372 14.4085C14.5743 13.5856 14.6386 12.7713 14.5743 11.8285C14.54 11.3356 14.3772 10.9542 14.1586 10.6456C13.9957 10.4142 13.8029 10.2256 13.6057 10.0585C13.22 9.73275 12.8257 9.50985 12.6629 9.27848C12.5943 9.1842 12.4829 8.98275 12.35 8.71275C12.1914 8.39985 11.9986 8.0013 11.8014 7.58558C11.6857 7.3456 11.5743 7.09703 11.4629 6.85703C11.2657 6.42845 11.0814 6.02989 10.9529 5.73845C10.8243 5.45132 10.7429 5.27132 10.7429 5.27132L8.51427 4.39703Z" fill="url(#paint13_linear_3_20)"/>
<path d="M5.43284 12.8569C5.91284 13.4569 5.83994 14.3269 5.22284 14.7812C4.06994 15.634 2.66857 15.2054 1.92284 13.8769C1.58002 13.264 1.51139 12.7625 1.6143 12.3083C1.67857 12.0254 2.01712 11.4854 2.03857 11.4854C2.60857 11.3954 2.74567 11.7597 3.0714 11.8197C3.4443 11.8883 3.67994 11.7125 4.42994 11.9183C5.17994 12.124 5.2314 12.5097 5.36857 12.7583C5.38995 12.7969 5.41139 12.8269 5.43284 12.8569Z" fill="url(#paint14_radial_3_20)"/>
<path d="M3.92407 13.3155C4.00979 13.0155 3.67552 12.827 3.88979 12.7498C4.10407 12.6727 4.36552 12.8441 4.47269 13.1355C4.57979 13.427 4.48979 13.727 4.27124 13.8041C4.05697 13.8812 3.84269 13.5983 3.92407 13.3155Z" fill="url(#paint15_radial_3_20)"/>
<path d="M5.11145 13.8469C5.26573 13.654 5.42 14.2069 5.09428 14.2497C4.79 14.2883 4.46 15.0769 2.79283 14.854C2.66855 14.7683 2.55283 14.674 2.44145 14.5625C2.47573 14.5754 4.01855 15.2097 5.11145 13.8469Z" fill="url(#paint16_linear_3_20)"/>
<path opacity="0.5" d="M7.98296 12.2997C9.09296 12.1626 10.4215 12.3341 11.5572 10.6026C11.6472 10.4654 11.8572 10.5641 11.8101 10.7183C11.7201 11.0226 11.5487 11.3869 11.2058 11.7426C9.74441 13.2641 8.51868 12.8654 8.84006 14.7554C9.05441 16.0197 10.1472 16.714 9.59006 16.5983C8.84006 16.444 8.43296 15.6254 8.43296 14.8069C8.43723 14.0312 7.97868 12.4583 7.98296 12.2997Z" fill="url(#paint17_radial_3_20)"/>
<path d="M8.38143 8.24528C8.54425 8.6481 8.35571 9.231 7.83281 9.171C7.51571 9.13673 7.3357 8.93528 7.30143 8.631C7.2628 8.29673 7.40853 7.94528 7.67426 7.84238C7.93998 7.73955 8.2528 7.92383 8.38143 8.24528Z" fill="url(#paint18_radial_3_20)"/>
<path d="M8.38129 8.24527C8.50556 8.571 8.38984 8.91382 8.11984 9.01672C7.85411 9.11955 7.53694 8.93955 7.41266 8.61382C7.28839 8.2881 7.40411 7.94527 7.67411 7.84245C7.93984 7.73955 8.25694 7.91955 8.38129 8.24527Z" fill="url(#paint19_radial_3_20)"/>
<path d="M8.06847 8.12521C8.10709 8.22803 8.07274 8.33948 7.98702 8.36948C7.90137 8.39948 7.80274 8.34376 7.76419 8.24093C7.72564 8.13803 7.75992 8.02666 7.84564 7.99666C7.92702 7.96666 8.02992 8.02231 8.06847 8.12521Z" fill="url(#paint20_linear_3_20)"/>
<path d="M11.3086 7.43555C11.1928 9.38985 13.2671 10.8512 15.08 10.097C15.1528 10.067 15.1314 9.98985 15.0371 9.95985C14.6086 9.82268 13.73 9.49268 13.3143 8.99558C12.7528 8.32268 12.9457 7.7484 12.9457 7.7484L12.3371 7.91558L11.3086 7.43555Z" fill="url(#paint21_linear_3_20)"/>
<path d="M12.0627 7.80855C12.067 7.80428 12.0713 7.79573 12.0756 7.79138L12.3327 7.91138L12.9413 7.74428C12.9413 7.74428 12.7484 8.31855 13.3098 8.99138C13.7256 9.48855 14.6084 9.81855 15.0327 9.95573C15.0884 9.97283 15.1184 10.0114 15.1184 10.0414C14.4584 10.2 13.6098 10.0671 13.1298 9.84855C12.3027 9.47573 11.6256 8.40855 12.0627 7.80855Z" fill="url(#paint22_linear_3_20)"/>
<path d="M12.9457 7.74413C12.9457 7.74413 12.8429 8.05695 13.01 8.48985C12.4272 8.64413 11.6814 8.37413 11.3729 8.13413C11.3172 7.91558 11.2957 7.67985 11.3086 7.43555L12.3372 7.90695L12.9457 7.74413Z" fill="url(#paint23_linear_3_20)"/>
<path d="M6.10133 6.12408L6.27271 6.48836C6.27271 6.48836 5.5656 6.81836 5.1927 6.54836C4.81988 6.27836 5.59561 5.94836 5.59561 5.94836L6.10133 6.12408Z" fill="url(#paint24_radial_3_20)"/>
<path d="M9.74874 5.49829C10.6359 7.23829 11.3131 8.82397 13.4559 7.6926C13.5159 7.6626 13.4988 7.56397 13.4345 7.5597C12.9245 7.50397 11.7631 7.234 11.7373 5.884C11.7116 4.56829 9.89874 3.844 8.99447 4.26829C8.09019 4.69258 9.74874 5.49829 9.74874 5.49829Z" fill="url(#paint25_linear_3_20)"/>
<path d="M13.4559 7.6926C11.3131 8.82832 10.6359 7.23833 9.74875 5.49833C9.74875 5.49833 9.05875 5.15976 8.81447 4.80833C9.2602 4.73548 9.74874 4.98833 10.1774 5.97833C11.2702 8.5026 13.2202 7.66687 13.4345 7.55977C13.4988 7.56405 13.5159 7.6626 13.4559 7.6926Z" fill="url(#paint26_linear_3_20)"/>
<path d="M1.61434 12.3128C1.63579 12.3 1.65724 12.2914 1.68289 12.2871C1.82434 12.3256 1.82434 12.5571 1.74724 12.6728C1.67007 12.7885 1.90152 13.0285 1.68289 13.1914C1.66152 13.1785 1.64434 13.1656 1.63152 13.1528C1.55434 12.8528 1.55862 12.5743 1.61434 12.3128Z" fill="url(#paint27_radial_3_20)"/>
<path d="M3.52982 3.23969L2.7241 2.16397C2.85692 2.00112 2.96837 1.85112 3.05837 1.71826L4.06555 2.46397L4.18555 2.82397L3.52982 3.23969Z" fill="url(#paint28_linear_3_20)"/>
<path d="M5.91287 6.44129L5.43715 5.80272C6.22997 5.18986 6.48715 4.60272 6.56432 4.30701L7.30997 4.85986C7.36997 4.90272 7.3957 4.97986 7.3786 5.04843C7.29287 5.36986 6.98432 6.36414 6.09287 6.51414C6.02432 6.51843 5.9557 6.49272 5.91287 6.44129Z" fill="url(#paint29_linear_3_20)"/>
<path d="M5.4372 5.79858L4.84575 5.00573C5.34292 4.5943 5.62147 4.05001 5.7543 3.70715L6.56002 4.30287C6.5643 4.76573 6.16575 5.4343 5.4372 5.79858Z" fill="url(#paint30_linear_3_20)"/>
<path d="M4.16431 4.0883L3.53003 3.23544C3.83858 2.99115 4.02286 2.66973 4.07003 2.45544L4.88003 3.05544L5.02148 4.00258L4.16431 4.0883Z" fill="url(#paint31_linear_3_20)"/>
<path d="M4.8456 5.0053L4.16415 4.08815C4.61415 3.78387 4.84132 3.35102 4.87987 3.0553L5.75415 3.70244C5.73705 4.06673 5.42415 4.59387 4.8456 5.0053Z" fill="url(#paint32_linear_3_20)"/>
<path d="M3.31567 1.90268C3.31567 2.04839 3.12705 2.28839 2.9385 2.44696L2.80995 2.27125L2.28277 1.5641C2.23132 1.49553 2.2356 1.40553 2.29132 1.34125C2.35132 1.27268 2.45422 1.2641 2.52705 1.31553L3.31567 1.90268Z" fill="url(#paint33_linear_3_20)"/>
<path opacity="0.48" d="M2.2913 1.34564C2.3513 1.27707 2.4542 1.2685 2.52703 1.31993L7.30558 4.85564C7.36558 4.8985 7.3913 4.97564 7.3742 5.04421C7.28848 5.36564 6.97985 6.35992 6.08848 6.50992C6.0242 6.52279 5.95558 6.49707 5.91275 6.44135L2.28275 1.5685C2.2313 1.49993 2.23558 1.40564 2.2913 1.34564Z" fill="url(#paint34_radial_3_20)"/>
<path opacity="0.75" d="M2.2913 1.34564C2.3513 1.27707 2.4542 1.2685 2.52703 1.31993L7.30558 4.85564C7.36558 4.8985 7.3913 4.97564 7.3742 5.04421C7.28848 5.36564 6.97985 6.35992 6.08848 6.50992C6.0242 6.52279 5.95558 6.49707 5.91275 6.44135L2.28275 1.5685C2.2313 1.49993 2.23558 1.40564 2.2913 1.34564Z" fill="url(#paint35_radial_3_20)"/>
<path d="M7.37413 5.04409C7.3184 5.2498 7.17268 5.72551 6.84703 6.08551C6.22985 5.53694 6.5513 4.78266 6.91558 4.56409L7.30985 4.85551C7.36558 4.89837 7.3913 4.97123 7.37413 5.04409Z" fill="url(#paint36_linear_3_20)"/>
<path d="M8.31293 3.81409C6.27293 4.26409 6.5772 6.04266 7.66575 6.65123C7.67865 6.6598 7.69148 6.64694 7.6872 6.63409C7.64865 6.47123 7.5072 5.78123 7.79865 5.3398C8.13293 4.83409 8.90865 4.91123 8.90865 4.91123L9.11865 4.11409L8.31293 3.81409Z" fill="url(#paint37_radial_3_20)"/>
<path d="M9.77846 5.55814C10.1685 5.42957 10.6614 5.34814 10.6614 5.34814L11.6899 5.54957C11.7199 5.65672 11.7328 5.76385 11.737 5.87957C11.7413 6.08528 11.7713 6.26957 11.8228 6.42814C11.3728 6.57385 10.7342 6.50528 10.1814 6.34243C10.0485 6.09385 9.91564 5.82814 9.77846 5.55814Z" fill="url(#paint38_linear_3_20)"/>
<path d="M9.14 3.3468C9.92 3.41109 10.4815 4.24252 10.85 4.87252C11.2186 5.50252 12.0286 5.46395 12.5943 5.13395C12.7315 5.05252 12.5986 6.1068 11.1715 6.13252C9.85145 6.15823 9.43573 5.42537 9.41435 4.58966C9.39718 3.75823 9.14 3.3468 9.14 3.3468Z" fill="url(#paint39_radial_3_20)"/>
<path d="M10.6442 5.8112C11.3728 5.99977 12.0885 5.79405 12.6371 5.16833C12.6585 5.35691 12.3756 6.10691 11.1756 6.13263C9.85566 6.15834 9.43994 5.42548 9.41849 4.58976C9.40994 4.18262 9.34139 3.87833 9.27704 3.66833C10.0699 4.1012 9.87276 5.61405 10.6442 5.8112Z" fill="url(#paint40_linear_3_20)"/>
<path d="M8.51851 2.13831C8.51851 2.13831 9.96706 2.79402 9.76988 5.37831C9.75278 5.60545 9.68851 5.76402 9.59416 5.87117C9.16988 6.35974 8.13278 5.75117 8.13278 5.75117C8.13278 5.75117 7.65278 4.34974 8.51851 2.13831Z" fill="url(#paint41_radial_3_20)"/>
<path d="M8.68993 5.49402C8.47138 5.51974 8.36421 5.44688 8.28276 5.33974C8.20138 5.23688 8.15848 5.1126 8.14566 4.98402C8.07711 4.37545 8.01711 3.42831 8.51848 2.13831C9.43138 3.48831 9.78276 5.37402 8.68993 5.49402Z" fill="url(#paint42_radial_3_20)"/>
<defs>
<radialGradient id="paint0_radial_3_20" cx="0" cy="0" r="1" gradientUnits="userSpaceOnUse" gradientTransform="translate(6.87242 4.44231) rotate(180) scale(3.31007)">
<stop stop-color="white"/>
<stop offset="1" stop-color="#E0DBEC"/>
</radialGradient>
<radialGradient id="paint1_radial_3_20" cx="0" cy="0" r="1" gradientUnits="userSpaceOnUse" gradientTransform="translate(6.03219 3.47342) rotate(69.445) scale(3.49495 1.6517)">
<stop stop-color="#FC5B54" stop-opacity="0"/>
<stop offset="0.12" stop-color="#EB4E65" stop-opacity="0.12"/>
<stop offset="0.5274" stop-color="#B6249A" stop-opacity="0.5274"/>
<stop offset="0.8331" stop-color="#950ABB" stop-opacity="0.8331"/>
<stop offset="1" stop-color="#8800C7"/>
</radialGradient>
<radialGradient id="paint2_radial_3_20" cx="0" cy="0" r="1" gradientUnits="userSpaceOnUse" gradientTransform="translate(9.41568 1.55636) rotate(180) scale(3.34367)">
<stop stop-color="#BB62AD"/>
<stop offset="0.2371" stop-color="#B95FAE"/>
<stop offset="0.4317" stop-color="#B455B1"/>
<stop offset="0.6112" stop-color="#AB43B5"/>
<stop offset="0.7816" stop-color="#9F2BBC"/>
<stop offset="0.9442" stop-color="#8E0CC4"/>
<stop offset="1" stop-color="#8800C7"/>
</radialGradient>
<radialGradient id="paint3_radial_3_20" cx="0" cy="0" r="1" gradientUnits="userSpaceOnUse" gradientTransform="translate(10.0662 9.55275) rotate(127.986) scale(11.7503 11.6382)">
<stop stop-color="white"/>
<stop offset="0.3621" stop-color="#FCFCFD"/>
<stop offset="0.659" stop-color="#F3F2F8"/>
<stop offset="0.9322" stop-color="#E5E1EF"/>
<stop offset="1" stop-color="#E0DBEC"/>
</radialGradient>
<radialGradient id="paint4_radial_3_20" cx="0" cy="0" r="1" gradientUnits="userSpaceOnUse" gradientTransform="translate(2.96669 8.89388) rotate(127.986) scale(11.7612 2.33351)">
<stop stop-color="#D1F2FF" stop-opacity="0.4"/>
<stop offset="0.4739" stop-color="#BFEDFF" stop-opacity="0.2105"/>
<stop offset="1" stop-color="#B0E9FF" stop-opacity="0"/>
</radialGradient>
<radialGradient id="paint5_radial_3_20" cx="0" cy="0" r="1" gradientUnits="userSpaceOnUse" gradientTransform="translate(8.21616 19.0515) rotate(180) scale(7.46528)">
<stop stop-color="#EF708C" stop-opacity="0.4"/>
<stop offset="1" stop-color="#EF708C" stop-opacity="0"/>
</radialGradient>
<radialGradient id="paint6_radial_3_20" cx="0" cy="0" r="1" gradientUnits="userSpaceOnUse" gradientTransform="translate(5.59364 5.3612) rotate(180) scale(2.83508)">
<stop stop-color="#D098C5"/>
<stop offset="0.2785" stop-color="#D19BC7" stop-opacity="0.8608"/>
<stop offset="0.5069" stop-color="#D3A5CD" stop-opacity="0.7465"/>
<stop offset="0.7177" stop-color="#D7B7D7" stop-opacity="0.6412"/>
<stop offset="0.9166" stop-color="#DDCFE5" stop-opacity="0.5417"/>
<stop offset="1" stop-color="#E0DBEC" stop-opacity="0.5"/>
</radialGradient>
<radialGradient id="paint7_radial_3_20" cx="0" cy="0" r="1" gradientUnits="userSpaceOnUse" gradientTransform="translate(13.4296 8.0676) rotate(59.232) scale(12.7954 3.16126)">
<stop stop-color="#D098C5"/>
<stop offset="0.2785" stop-color="#D19BC7" stop-opacity="0.8608"/>
<stop offset="0.5069" stop-color="#D3A5CD" stop-opacity="0.7465"/>
<stop offset="0.7177" stop-color="#D7B7D7" stop-opacity="0.6412"/>
<stop offset="0.9166" stop-color="#DDCFE5" stop-opacity="0.5417"/>
<stop offset="1" stop-color="#E0DBEC" stop-opacity="0.5"/>
</radialGradient>
<radialGradient id="paint8_radial_3_20" cx="0" cy="0" r="1" gradientUnits="userSpaceOnUse" gradientTransform="translate(9.20744 11.0368) rotate(71.422) scale(1.91052 5.44925)">
<stop stop-color="#F9F9FC" stop-opacity="0"/>
<stop offset="0.3911" stop-color="#F6F6FA" stop-opacity="0.3911"/>
<stop offset="0.7115" stop-color="#EEECF5" stop-opacity="0.7115"/>
<stop offset="1" stop-color="#E0DBEC"/>
</radialGradient>
<linearGradient id="paint9_linear_3_20" x1="11.7552" y1="14.604" x2="16.3401" y2="10.9735" gradientUnits="userSpaceOnUse">
<stop/>
<stop offset="1" stop-color="#8800C7"/>
</linearGradient>
<linearGradient id="paint10_linear_3_20" x1="17.5152" y1="7.75305" x2="13.7952" y2="12.9431" gradientUnits="userSpaceOnUse">
<stop/>
<stop offset="1" stop-opacity="0"/>
</linearGradient>
<linearGradient id="paint11_linear_3_20" x1="19.0428" y1="1.77181" x2="11.861" y2="8.81467" gradientUnits="userSpaceOnUse">
<stop stop-color="#BB62AD"/>
<stop offset="0.2802" stop-color="#A94BAB"/>
<stop offset="0.8671" stop-color="#7B0FA4"/>
<stop offset="1" stop-color="#7000A3"/>
</linearGradient>
<linearGradient id="paint12_linear_3_20" x1="17.7162" y1="-3.97219" x2="10.093" y2="12.7402" gradientUnits="userSpaceOnUse">
<stop stop-color="#BB62AD"/>
<stop offset="0.2802" stop-color="#A94BAB"/>
<stop offset="0.8671" stop-color="#7B0FA4"/>
<stop offset="1" stop-color="#7000A3"/>
</linearGradient>
<linearGradient id="paint13_linear_3_20" x1="-11.5913" y1="9.44355" x2="19.0579" y2="9.10673" gradientUnits="userSpaceOnUse">
<stop/>
<stop offset="1" stop-opacity="0"/>
</linearGradient>
<radialGradient id="paint14_radial_3_20" cx="0" cy="0" r="1" gradientUnits="userSpaceOnUse" gradientTransform="translate(2.58944 11.3654) rotate(180) scale(3.6088)">
<stop stop-color="#BB62AD"/>
<stop offset="0.2371" stop-color="#B95FAD"/>
<stop offset="0.4317" stop-color="#B155AC"/>
<stop offset="0.6112" stop-color="#A443AA"/>
<stop offset="0.7816" stop-color="#912BA7"/>
<stop offset="0.9442" stop-color="#7A0CA4"/>
<stop offset="1" stop-color="#7000A3"/>
</radialGradient>
<radialGradient id="paint15_radial_3_20" cx="0" cy="0" r="1" gradientUnits="userSpaceOnUse" gradientTransform="translate(4.24222 13.6578) rotate(-109.578) scale(1.75362 1.06813)">
<stop stop-color="#7000A3"/>
<stop offset="1"/>
</radialGradient>
<linearGradient id="paint16_linear_3_20" x1="3.81643" y1="13.6085" x2="3.9563" y2="15.645" gradientUnits="userSpaceOnUse">
<stop stop-color="#391838"/>
<stop offset="0.2285" stop-color="#3B173B"/>
<stop offset="0.4159" stop-color="#401545"/>
<stop offset="0.5889" stop-color="#491157"/>
<stop offset="0.7532" stop-color="#550C6F"/>
<stop offset="0.9098" stop-color="#65058E"/>
<stop offset="1" stop-color="#7000A3"/>
</linearGradient>
<radialGradient id="paint17_radial_3_20" cx="0" cy="0" r="1" gradientUnits="userSpaceOnUse" gradientTransform="translate(6.46991 13.7513) rotate(180) scale(7.02907)">
<stop stop-color="#D098C5"/>
<stop offset="0.2785" stop-color="#D19BC7" stop-opacity="0.7215"/>
<stop offset="0.5069" stop-color="#D3A5CD" stop-opacity="0.4931"/>
<stop offset="0.7177" stop-color="#D7B7D7" stop-opacity="0.2823"/>
<stop offset="0.9166" stop-color="#DDCFE5" stop-opacity="0.0834284"/>
<stop offset="1" stop-color="#E0DBEC" stop-opacity="0"/>
</radialGradient>
<radialGradient id="paint18_radial_3_20" cx="0" cy="0" r="1" gradientUnits="userSpaceOnUse" gradientTransform="translate(7.7581 8.34555) rotate(67.675) scale(0.681158 0.565841)">
<stop stop-color="#D098C5"/>
<stop offset="0.2785" stop-color="#D19BC7" stop-opacity="0.8608"/>
<stop offset="0.5069" stop-color="#D3A5CD" stop-opacity="0.7465"/>
<stop offset="0.7177" stop-color="#D7B7D7" stop-opacity="0.6412"/>
<stop offset="0.9166" stop-color="#DDCFE5" stop-opacity="0.5417"/>
<stop offset="1" stop-color="#E0DBEC" stop-opacity="0.5"/>
</radialGradient>
<radialGradient id="paint19_radial_3_20" cx="0" cy="0" r="1" gradientUnits="userSpaceOnUse" gradientTransform="translate(7.81114 8.28345) rotate(67.675) scale(0.619603 0.514704)">
<stop stop-color="#512D00"/>
<stop offset="1"/>
</radialGradient>
<linearGradient id="paint20_linear_3_20" x1="8.41557" y1="9.61388" x2="8.05707" y2="8.59021" gradientUnits="userSpaceOnUse">
<stop/>
<stop offset="1" stop-color="#512D00"/>
</linearGradient>
<linearGradient id="paint21_linear_3_20" x1="12.7669" y1="5.24775" x2="13.1589" y2="8.45213" gradientUnits="userSpaceOnUse">
<stop stop-color="#BB62AD"/>
<stop offset="0.2802" stop-color="#A94BAB"/>
<stop offset="0.8671" stop-color="#7B0FA4"/>
<stop offset="1" stop-color="#7000A3"/>
</linearGradient>
<linearGradient id="paint22_linear_3_20" x1="11.8183" y1="10.4675" x2="14.3878" y2="8.23043" gradientUnits="userSpaceOnUse">
<stop stop-color="#BB62AD"/>
<stop offset="0.2802" stop-color="#A94BAB"/>
<stop offset="0.8671" stop-color="#7B0FA4"/>
<stop offset="1" stop-color="#7000A3"/>
</linearGradient>
<linearGradient id="paint23_linear_3_20" x1="10.4745" y1="5.67576" x2="12.9655" y2="9.0252" gradientUnits="userSpaceOnUse">
<stop/>
<stop offset="1" stop-opacity="0"/>
</linearGradient>
<radialGradient id="paint24_radial_3_20" cx="0" cy="0" r="1" gradientUnits="userSpaceOnUse" gradientTransform="translate(6.23123 6.40172) rotate(-175.593) scale(1.02278)">
<stop stop-color="#D098C5"/>
<stop offset="0.2785" stop-color="#D19BC7" stop-opacity="0.7215"/>
<stop offset="0.5069" stop-color="#D3A5CD" stop-opacity="0.4931"/>
<stop offset="0.7177" stop-color="#D7B7D7" stop-opacity="0.2823"/>
<stop offset="0.9166" stop-color="#DDCFE5" stop-opacity="0.0834284"/>
<stop offset="1" stop-color="#E0DBEC" stop-opacity="0"/>
</radialGradient>
<linearGradient id="paint25_linear_3_20" x1="16.097" y1="9.39465" x2="11.7366" y2="6.58581" gradientUnits="userSpaceOnUse">
<stop stop-color="#BB62AD"/>
<stop offset="0.2371" stop-color="#B95FAD"/>
<stop offset="0.4317" stop-color="#B155AC"/>
<stop offset="0.6112" stop-color="#A443AA"/>
<stop offset="0.7816" stop-color="#912BA7"/>
<stop offset="0.9442" stop-color="#7A0CA4"/>
<stop offset="1" stop-color="#7000A3"/>
</linearGradient>
<linearGradient id="paint26_linear_3_20" x1="15.4828" y1="0.40769" x2="11.0342" y2="6.3903" gradientUnits="userSpaceOnUse">
<stop stop-color="#BB62AD"/>
<stop offset="0.2371" stop-color="#B95FAD"/>
<stop offset="0.4317" stop-color="#B155AC"/>
<stop offset="0.6112" stop-color="#A443AA"/>
<stop offset="0.7816" stop-color="#912BA7"/>
<stop offset="0.9442" stop-color="#7A0CA4"/>
<stop offset="1" stop-color="#7000A3"/>
</linearGradient>
<radialGradient id="paint27_radial_3_20" cx="0" cy="0" r="1" gradientUnits="userSpaceOnUse" gradientTransform="translate(1.53282 12.8485) rotate(180) scale(0.899739 0.899737)">
<stop stop-color="#7000A3"/>
<stop offset="1"/>
</radialGradient>
<linearGradient id="paint28_linear_3_20" x1="2.9425" y1="3.71229" x2="3.5425" y2="2.2812" gradientUnits="userSpaceOnUse">
<stop stop-color="#F05C00"/>
<stop offset="0.5926" stop-color="#FA7A00"/>
<stop offset="0.9987" stop-color="#FF8900"/>
</linearGradient>
<linearGradient id="paint29_linear_3_20" x1="6.55915" y1="5.21757" x2="5.67047" y2="6.89313" gradientUnits="userSpaceOnUse">
<stop offset="0.00268665" stop-color="#7000A3"/>
<stop offset="0.7988" stop-color="#9500DA"/>
<stop offset="0.9934" stop-color="#9F00E8"/>
</linearGradient>
<linearGradient id="paint30_linear_3_20" x1="5.43457" y1="6.09101" x2="5.83845" y2="4.00202" gradientUnits="userSpaceOnUse">
<stop offset="0.00662825" stop-color="#3640FF"/>
<stop offset="0.1428" stop-color="#2657F8"/>
<stop offset="0.4841" stop-color="#008EE6"/>
<stop offset="0.7886" stop-color="#0FACF6"/>
<stop offset="0.9973" stop-color="#17BBFE"/>
</linearGradient>
<linearGradient id="paint31_linear_3_20" x1="4.08031" y1="4.87072" x2="4.36733" y2="3.0289" gradientUnits="userSpaceOnUse">
<stop stop-color="#FFBF00"/>
<stop offset="0.00802441" stop-color="#FFBF01"/>
<stop offset="0.6596" stop-color="#FDCA29"/>
<stop offset="0.9973" stop-color="#FCCE38"/>
</linearGradient>
<linearGradient id="paint32_linear_3_20" x1="4.83405" y1="5.34208" x2="4.9896" y2="3.53948" gradientUnits="userSpaceOnUse">
<stop offset="0.00132565" stop-color="#4B8C1C"/>
<stop offset="0.2325" stop-color="#5EA12C"/>
<stop offset="0.7361" stop-color="#82C94A"/>
<stop offset="0.9973" stop-color="#90D856"/>
</linearGradient>
<linearGradient id="paint33_linear_3_20" x1="2.41192" y1="2.91963" x2="2.81055" y2="1.58396" gradientUnits="userSpaceOnUse">
<stop stop-color="#C20000"/>
<stop offset="0.076599" stop-color="#C80400"/>
<stop offset="0.6838" stop-color="#F02300"/>
<stop offset="0.9987" stop-color="#FF2F00"/>
</linearGradient>
<radialGradient id="paint34_radial_3_20" cx="0" cy="0" r="1" gradientUnits="userSpaceOnUse" gradientTransform="translate(4.94015 4.45296) rotate(-131.998) scale(4.64742 0.530497)">
<stop stop-color="#440063" stop-opacity="0.75"/>
<stop offset="1" stop-color="#420061" stop-opacity="0"/>
</radialGradient>
<radialGradient id="paint35_radial_3_20" cx="0" cy="0" r="1" gradientUnits="userSpaceOnUse" gradientTransform="translate(5.23685 3.74309) rotate(-138.071) scale(4.64664 0.530418)">
<stop stop-color="white" stop-opacity="0.5"/>
<stop offset="1" stop-color="white" stop-opacity="0"/>
</radialGradient>
<linearGradient id="paint36_linear_3_20" x1="7.40068" y1="5.28727" x2="6.49573" y2="5.34956" gradientUnits="userSpaceOnUse">
<stop/>
<stop offset="1" stop-opacity="0"/>
</linearGradient>
<radialGradient id="paint37_radial_3_20" cx="0" cy="0" r="1" gradientUnits="userSpaceOnUse" gradientTransform="translate(7.57343 3.84289) rotate(126.565) scale(1.76008 0.795232)">
<stop stop-color="#BB62AD"/>
<stop offset="0.2371" stop-color="#B95FAE"/>
<stop offset="0.4317" stop-color="#B455B1"/>
<stop offset="0.6112" stop-color="#AB43B5"/>
<stop offset="0.7816" stop-color="#9F2BBC"/>
<stop offset="0.9442" stop-color="#8E0CC4"/>
<stop offset="1" stop-color="#8800C7"/>
</radialGradient>
<linearGradient id="paint38_linear_3_20" x1="10.836" y1="4.342" x2="10.7849" y2="6.68135" gradientUnits="userSpaceOnUse">
<stop/>
<stop offset="1" stop-opacity="0"/>
</linearGradient>
<radialGradient id="paint39_radial_3_20" cx="0" cy="0" r="1" gradientUnits="userSpaceOnUse" gradientTransform="translate(12.3049 2.18243) rotate(180) scale(4.16402)">
<stop stop-color="#BB62AD"/>
<stop offset="0.2371" stop-color="#B95FAE"/>
<stop offset="0.4317" stop-color="#B455B1"/>
<stop offset="0.6112" stop-color="#AB43B5"/>
<stop offset="0.7816" stop-color="#9F2BBC"/>
<stop offset="0.9442" stop-color="#8E0CC4"/>
<stop offset="1" stop-color="#8800C7"/>
</radialGradient>
<linearGradient id="paint40_linear_3_20" x1="12.7927" y1="1.5036" x2="10.4405" y2="5.33861" gradientUnits="userSpaceOnUse">
<stop stop-color="#BB62AD"/>
<stop offset="0.2371" stop-color="#B95FAD"/>
<stop offset="0.4317" stop-color="#B155AC"/>
<stop offset="0.6112" stop-color="#A443AA"/>
<stop offset="0.7816" stop-color="#912BA7"/>
<stop offset="0.9442" stop-color="#7A0CA4"/>
<stop offset="1" stop-color="#7000A3"/>
</linearGradient>
<radialGradient id="paint41_radial_3_20" cx="0" cy="0" r="1" gradientUnits="userSpaceOnUse" gradientTransform="translate(8.37143 5.59272) rotate(-171.101) scale(4.49099 4.49099)">
<stop stop-color="white"/>
<stop offset="1" stop-color="#E0DBEC"/>
</radialGradient>
<radialGradient id="paint42_radial_3_20" cx="0" cy="0" r="1" gradientUnits="userSpaceOnUse" gradientTransform="translate(8.24233 4.0141) rotate(88.2918) scale(5.20804 3.01353)">
<stop stop-color="#FC5B54" stop-opacity="0"/>
<stop offset="0.12" stop-color="#EB4E65" stop-opacity="0.12"/>
<stop offset="0.5274" stop-color="#B6249A" stop-opacity="0.5274"/>
<stop offset="0.8331" stop-color="#950ABB" stop-opacity="0.8331"/>
<stop offset="1" stop-color="#8800C7"/>
</radialGradient>
</defs>
</svg>
