<svg width="310" height="105" viewBox="0 0 310 105" fill="none" xmlns="http://www.w3.org/2000/svg">
<g opacity="0.1">
<path d="M154.837 82.9207C171.452 82.9207 184.921 69.4071 184.921 52.7372C184.921 36.0673 171.452 22.5537 154.837 22.5537C138.223 22.5537 124.754 36.0673 124.754 52.7372C124.754 69.4071 138.223 82.9207 154.837 82.9207Z" fill="white"/>
<path d="M154.837 82.9207C171.452 82.9207 184.921 69.4071 184.921 52.7372C184.921 36.0673 171.452 22.5537 154.837 22.5537C138.223 22.5537 124.754 36.0673 124.754 52.7372C124.754 69.4071 138.223 82.9207 154.837 82.9207Z" fill="#4C8CFF"/>
</g>
<g opacity="0.1">
<path fill-rule="evenodd" clip-rule="evenodd" d="M154.738 50.3593C153.43 50.3593 152.392 51.4063 152.392 52.6715C152.392 53.9366 153.43 54.9837 154.738 54.9837C156.045 54.9837 157.083 53.9366 157.083 52.6715C157.083 51.4063 156.045 50.3593 154.738 50.3593ZM149.562 52.6715C149.562 49.8197 151.891 47.5293 154.738 47.5293C157.584 47.5293 159.913 49.8197 159.913 52.6715C159.913 55.5232 157.584 57.8136 154.738 57.8136C151.891 57.8136 149.562 55.5232 149.562 52.6715Z" fill="white"/>
<path fill-rule="evenodd" clip-rule="evenodd" d="M154.738 50.3593C153.43 50.3593 152.392 51.4063 152.392 52.6715C152.392 53.9366 153.43 54.9837 154.738 54.9837C156.045 54.9837 157.083 53.9366 157.083 52.6715C157.083 51.4063 156.045 50.3593 154.738 50.3593ZM149.562 52.6715C149.562 49.8197 151.891 47.5293 154.738 47.5293C157.584 47.5293 159.913 49.8197 159.913 52.6715C159.913 55.5232 157.584 57.8136 154.738 57.8136C151.891 57.8136 149.562 55.5232 149.562 52.6715Z" fill="#4C8CFF"/>
</g>
<g opacity="0.4">
<path fill-rule="evenodd" clip-rule="evenodd" d="M154.837 24.7791C139.461 24.7791 127.012 37.2078 127.012 52.5045H122.296C122.296 34.5893 136.869 20.0625 154.837 20.0625V24.7791Z" fill="white"/>
<path fill-rule="evenodd" clip-rule="evenodd" d="M154.837 24.7791C139.461 24.7791 127.012 37.2078 127.012 52.5045H122.296C122.296 34.5893 136.869 20.0625 154.837 20.0625V24.7791Z" fill="#4C8CFF"/>
</g>
<g opacity="0.4">
<path fill-rule="evenodd" clip-rule="evenodd" d="M154.837 80.2302C170.214 80.2302 182.663 67.8016 182.663 52.5049H187.379C187.379 70.42 172.806 84.9468 154.837 84.9468V80.2302Z" fill="white"/>
<path fill-rule="evenodd" clip-rule="evenodd" d="M154.837 80.2302C170.214 80.2302 182.663 67.8016 182.663 52.5049H187.379C187.379 70.42 172.806 84.9468 154.837 84.9468V80.2302Z" fill="#4C8CFF"/>
</g>
<path fill-rule="evenodd" clip-rule="evenodd" d="M167.949 32.4433C166.647 32.4433 165.592 33.4986 165.592 34.8003C165.592 36.1021 166.647 37.1573 167.949 37.1573C169.251 37.1573 170.306 36.1021 170.306 34.8003C170.306 33.4986 169.251 32.4433 167.949 32.4433ZM164.649 34.8003C164.649 32.9776 166.126 31.5 167.949 31.5C169.772 31.5 171.249 32.9776 171.249 34.8003C171.249 36.623 169.772 38.1006 167.949 38.1006C166.126 38.1006 164.649 36.623 164.649 34.8003Z" fill="white"/>
<path fill-rule="evenodd" clip-rule="evenodd" d="M167.949 32.4433C166.647 32.4433 165.592 33.4986 165.592 34.8003C165.592 36.1021 166.647 37.1573 167.949 37.1573C169.251 37.1573 170.306 36.1021 170.306 34.8003C170.306 33.4986 169.251 32.4433 167.949 32.4433ZM164.649 34.8003C164.649 32.9776 166.126 31.5 167.949 31.5C169.772 31.5 171.249 32.9776 171.249 34.8003C171.249 36.623 169.772 38.1006 167.949 38.1006C166.126 38.1006 164.649 36.623 164.649 34.8003Z" fill="#4C8CFF"/>
<path fill-rule="evenodd" clip-rule="evenodd" d="M166.984 39.997C165.181 39.997 163.695 41.483 163.695 43.2858V51.073C163.695 51.7171 164.222 52.2652 164.887 52.2652H170.977C171.637 52.2652 172.174 51.7212 172.203 51.0635V43.2858C172.203 41.483 170.717 39.997 168.914 39.997H166.984ZM162.752 43.2858C162.752 40.9621 164.66 39.0537 166.984 39.0537H168.914C171.238 39.0537 173.146 40.9621 173.146 43.2858V51.073C173.146 51.0788 173.146 51.0846 173.146 51.0904C173.104 52.2261 172.179 53.2085 170.977 53.2085H164.887C163.689 53.2085 162.752 52.2258 162.752 51.073V43.2858Z" fill="white"/>
<path fill-rule="evenodd" clip-rule="evenodd" d="M166.984 39.997C165.181 39.997 163.695 41.483 163.695 43.2858V51.073C163.695 51.7171 164.222 52.2652 164.887 52.2652H170.977C171.637 52.2652 172.174 51.7212 172.203 51.0635V43.2858C172.203 41.483 170.717 39.997 168.914 39.997H166.984ZM162.752 43.2858C162.752 40.9621 164.66 39.0537 166.984 39.0537H168.914C171.238 39.0537 173.146 40.9621 173.146 43.2858V51.073C173.146 51.0788 173.146 51.0846 173.146 51.0904C173.104 52.2261 172.179 53.2085 170.977 53.2085H164.887C163.689 53.2085 162.752 52.2258 162.752 51.073V43.2858Z" fill="#4C8CFF"/>
<path fill-rule="evenodd" clip-rule="evenodd" d="M141.526 53.2089C140.224 53.2089 139.169 54.2642 139.169 55.5659C139.169 56.8677 140.224 57.9229 141.526 57.9229C142.828 57.9229 143.883 56.8677 143.883 55.5659C143.883 54.2642 142.828 53.2089 141.526 53.2089ZM138.226 55.5659C138.226 53.7432 139.703 52.2656 141.526 52.2656C143.349 52.2656 144.826 53.7432 144.826 55.5659C144.826 57.3887 143.349 58.8663 141.526 58.8663C139.703 58.8663 138.226 57.3887 138.226 55.5659Z" fill="white"/>
<path fill-rule="evenodd" clip-rule="evenodd" d="M141.526 53.2089C140.224 53.2089 139.169 54.2642 139.169 55.5659C139.169 56.8677 140.224 57.9229 141.526 57.9229C142.828 57.9229 143.883 56.8677 143.883 55.5659C143.883 54.2642 142.828 53.2089 141.526 53.2089ZM138.226 55.5659C138.226 53.7432 139.703 52.2656 141.526 52.2656C143.349 52.2656 144.826 53.7432 144.826 55.5659C144.826 57.3887 143.349 58.8663 141.526 58.8663C139.703 58.8663 138.226 57.3887 138.226 55.5659Z" fill="#4C8CFF"/>
<path fill-rule="evenodd" clip-rule="evenodd" d="M140.561 60.7626C138.758 60.7626 137.272 62.2487 137.272 64.0514V71.8386C137.272 72.4828 137.799 73.0309 138.464 73.0309H144.554C145.232 73.0309 145.78 72.4706 145.78 71.8386V64.0514C145.78 62.2487 144.294 60.7626 142.491 60.7626H140.561ZM136.329 64.0514C136.329 61.7277 138.237 59.8193 140.561 59.8193H142.491C144.815 59.8193 146.723 61.7277 146.723 64.0514V71.8386C146.723 73.0036 145.74 73.9742 144.554 73.9742H138.464C137.266 73.9742 136.329 72.9914 136.329 71.8386V64.0514Z" fill="white"/>
<path fill-rule="evenodd" clip-rule="evenodd" d="M140.561 60.7626C138.758 60.7626 137.272 62.2487 137.272 64.0514V71.8386C137.272 72.4828 137.799 73.0309 138.464 73.0309H144.554C145.232 73.0309 145.78 72.4706 145.78 71.8386V64.0514C145.78 62.2487 144.294 60.7626 142.491 60.7626H140.561ZM136.329 64.0514C136.329 61.7277 138.237 59.8193 140.561 59.8193H142.491C144.815 59.8193 146.723 61.7277 146.723 64.0514V71.8386C146.723 73.0036 145.74 73.9742 144.554 73.9742H138.464C137.266 73.9742 136.329 72.9914 136.329 71.8386V64.0514Z" fill="#4C8CFF"/>
<path fill-rule="evenodd" clip-rule="evenodd" d="M117 52.2656C117.26 52.2656 117.472 52.4768 117.472 52.7373C117.472 73.3091 134.166 90.0033 154.738 90.0033C154.998 90.0033 155.209 90.2145 155.209 90.475C155.209 90.7354 154.998 90.9466 154.738 90.9466C133.645 90.9466 116.528 73.83 116.528 52.7373C116.528 52.4768 116.739 52.2656 117 52.2656Z" fill="white"/>
<path fill-rule="evenodd" clip-rule="evenodd" d="M117 52.2656C117.26 52.2656 117.472 52.4768 117.472 52.7373C117.472 73.3091 134.166 90.0033 154.738 90.0033C154.998 90.0033 155.209 90.2145 155.209 90.475C155.209 90.7354 154.998 90.9466 154.738 90.9466C133.645 90.9466 116.528 73.83 116.528 52.7373C116.528 52.4768 116.739 52.2656 117 52.2656Z" fill="#4C8CFF"/>
<path fill-rule="evenodd" clip-rule="evenodd" d="M154.266 15C154.266 14.7395 154.477 14.5283 154.738 14.5283C175.83 14.5283 192.947 31.6449 192.947 52.7377C192.947 52.9981 192.736 53.2093 192.475 53.2093C192.215 53.2093 192.004 52.9981 192.004 52.7377C192.004 32.1659 175.309 15.4716 154.738 15.4716C154.477 15.4716 154.266 15.2605 154.266 15Z" fill="white"/>
<path fill-rule="evenodd" clip-rule="evenodd" d="M154.266 15C154.266 14.7395 154.477 14.5283 154.738 14.5283C175.83 14.5283 192.947 31.6449 192.947 52.7377C192.947 52.9981 192.736 53.2093 192.475 53.2093C192.215 53.2093 192.004 52.9981 192.004 52.7377C192.004 32.1659 175.309 15.4716 154.738 15.4716C154.477 15.4716 154.266 15.2605 154.266 15Z" fill="#4C8CFF"/>
</svg>
