<svg width="80" height="80" viewBox="0 0 80 80" fill="none" xmlns="http://www.w3.org/2000/svg">
<g opacity="0.1">
<path fill-rule="evenodd" clip-rule="evenodd" d="M14.411 49.3223H53.7143L61.1149 61.57H7.05371L14.411 49.3223ZM16.0123 52.1522L12.055 58.74H56.0985L52.1178 52.1522H16.0123Z" fill="white"/>
<path fill-rule="evenodd" clip-rule="evenodd" d="M14.411 49.3223H53.7143L61.1149 61.57H7.05371L14.411 49.3223ZM16.0123 52.1522L12.055 58.74H56.0985L52.1178 52.1522H16.0123Z" fill="#4C8CFF"/>
</g>
<g opacity="0.1">
<path fill-rule="evenodd" clip-rule="evenodd" d="M56.106 49.3223H65.0646L72.4219 61.57H63.4633L56.106 49.3223ZM61.1072 52.1522L65.0646 58.74H67.4206L63.4633 52.1522H61.1072Z" fill="white"/>
<path fill-rule="evenodd" clip-rule="evenodd" d="M56.106 49.3223H65.0646L72.4219 61.57H63.4633L56.106 49.3223ZM61.1072 52.1522L65.0646 58.74H67.4206L63.4633 52.1522H61.1072Z" fill="#4C8CFF"/>
</g>
<path fill-rule="evenodd" clip-rule="evenodd" d="M1.52832 63.9492C1.52832 63.6887 1.73949 63.4775 1.99997 63.4775H77.4754C77.7358 63.4775 77.947 63.6887 77.947 63.9492V67.7097C77.947 67.9702 77.7358 68.1813 77.4754 68.1813H1.99997C1.73949 68.1813 1.52832 67.9702 1.52832 67.7097V63.9492ZM2.47163 64.4208V67.238H77.0037V64.4208H2.47163Z" fill="white"/>
<path fill-rule="evenodd" clip-rule="evenodd" d="M1.52832 63.9492C1.52832 63.6887 1.73949 63.4775 1.99997 63.4775H77.4754C77.7358 63.4775 77.947 63.6887 77.947 63.9492V67.7097C77.947 67.9702 77.7358 68.1813 77.4754 68.1813H1.99997C1.73949 68.1813 1.52832 67.9702 1.52832 67.7097V63.9492ZM2.47163 64.4208V67.238H77.0037V64.4208H2.47163Z" fill="#4C8CFF"/>
<path fill-rule="evenodd" clip-rule="evenodd" d="M11.0054 46.7487C11.0886 46.5988 11.2465 46.5059 11.4178 46.5059H68.0244C68.1957 46.5059 68.3536 46.5988 68.4368 46.7487L77.8546 63.7206C77.9809 63.9484 77.8988 64.2355 77.671 64.3619C77.4432 64.4883 77.1561 64.4061 77.0297 64.1783L67.7467 47.4492H11.6955L2.41248 64.1783C2.28609 64.4061 1.99898 64.4883 1.77121 64.3619C1.54344 64.2355 1.46126 63.9484 1.58765 63.7206L11.0054 46.7487Z" fill="white"/>
<path fill-rule="evenodd" clip-rule="evenodd" d="M11.0054 46.7487C11.0886 46.5988 11.2465 46.5059 11.4178 46.5059H68.0244C68.1957 46.5059 68.3536 46.5988 68.4368 46.7487L77.8546 63.7206C77.9809 63.9484 77.8988 64.2355 77.671 64.3619C77.4432 64.4883 77.1561 64.4061 77.0297 64.1783L67.7467 47.4492H11.6955L2.41248 64.1783C2.28609 64.4061 1.99898 64.4883 1.77121 64.3619C1.54344 64.2355 1.46126 63.9484 1.58765 63.7206L11.0054 46.7487Z" fill="#4C8CFF"/>
<path fill-rule="evenodd" clip-rule="evenodd" d="M10.9463 13C10.9463 12.7395 11.1575 12.5283 11.4179 12.5283H68.0245C68.285 12.5283 68.4961 12.7395 68.4961 13V46.9772C68.4961 47.2377 68.285 47.4488 68.0245 47.4488C67.764 47.4488 67.5528 47.2377 67.5528 46.9772V13.4716H11.8896V46.9772C11.8896 47.2377 11.6784 47.4488 11.4179 47.4488C11.1575 47.4488 10.9463 47.2377 10.9463 46.9772V13Z" fill="white"/>
<path fill-rule="evenodd" clip-rule="evenodd" d="M10.9463 13C10.9463 12.7395 11.1575 12.5283 11.4179 12.5283H68.0245C68.285 12.5283 68.4961 12.7395 68.4961 13V46.9772C68.4961 47.2377 68.285 47.4488 68.0245 47.4488C67.764 47.4488 67.5528 47.2377 67.5528 46.9772V13.4716H11.8896V46.9772C11.8896 47.2377 11.6784 47.4488 11.4179 47.4488C11.1575 47.4488 10.9463 47.2377 10.9463 46.9772V13Z" fill="#4C8CFF"/>
<path fill-rule="evenodd" clip-rule="evenodd" d="M20.3972 24.3144C20.3972 24.0539 20.6084 23.8428 20.8689 23.8428H32.1835C32.444 23.8428 32.6552 24.0539 32.6552 24.3144V35.6291C32.6552 35.8896 32.444 36.1007 32.1835 36.1007H20.8689C20.6084 36.1007 20.3972 35.8896 20.3972 35.6291V24.3144ZM21.3405 24.7861V35.1574H31.7119V24.7861H21.3405Z" fill="white"/>
<path fill-rule="evenodd" clip-rule="evenodd" d="M20.3972 24.3144C20.3972 24.0539 20.6084 23.8428 20.8689 23.8428H32.1835C32.444 23.8428 32.6552 24.0539 32.6552 24.3144V35.6291C32.6552 35.8896 32.444 36.1007 32.1835 36.1007H20.8689C20.6084 36.1007 20.3972 35.8896 20.3972 35.6291V24.3144ZM21.3405 24.7861V35.1574H31.7119V24.7861H21.3405Z" fill="#4C8CFF"/>
<path fill-rule="evenodd" clip-rule="evenodd" d="M37.3691 24.3144C37.3691 24.0539 37.5803 23.8428 37.8408 23.8428H56.7096C56.9701 23.8428 57.1813 24.0539 57.1813 24.3144C57.1813 24.5749 56.9701 24.7861 56.7096 24.7861H37.8408C37.5803 24.7861 37.3691 24.5749 37.3691 24.3144Z" fill="white"/>
<path fill-rule="evenodd" clip-rule="evenodd" d="M37.3691 24.3144C37.3691 24.0539 37.5803 23.8428 37.8408 23.8428H56.7096C56.9701 23.8428 57.1813 24.0539 57.1813 24.3144C57.1813 24.5749 56.9701 24.7861 56.7096 24.7861H37.8408C37.5803 24.7861 37.3691 24.5749 37.3691 24.3144Z" fill="#4C8CFF"/>
<path fill-rule="evenodd" clip-rule="evenodd" d="M37.3691 29.9717C37.3691 29.7112 37.5803 29.5 37.8408 29.5H56.7096C56.9701 29.5 57.1813 29.7112 57.1813 29.9717C57.1813 30.2321 56.9701 30.4433 56.7096 30.4433H37.8408C37.5803 30.4433 37.3691 30.2321 37.3691 29.9717Z" fill="white"/>
<path fill-rule="evenodd" clip-rule="evenodd" d="M37.3691 29.9717C37.3691 29.7112 37.5803 29.5 37.8408 29.5H56.7096C56.9701 29.5 57.1813 29.7112 57.1813 29.9717C57.1813 30.2321 56.9701 30.4433 56.7096 30.4433H37.8408C37.5803 30.4433 37.3691 30.2321 37.3691 29.9717Z" fill="#4C8CFF"/>
<path fill-rule="evenodd" clip-rule="evenodd" d="M37.3691 35.6289C37.3691 35.3684 37.5803 35.1572 37.8408 35.1572H56.7096C56.9701 35.1572 57.1813 35.3684 57.1813 35.6289C57.1813 35.8894 56.9701 36.1005 56.7096 36.1005H37.8408C37.5803 36.1005 37.3691 35.8894 37.3691 35.6289Z" fill="white"/>
<path fill-rule="evenodd" clip-rule="evenodd" d="M37.3691 35.6289C37.3691 35.3684 37.5803 35.1572 37.8408 35.1572H56.7096C56.9701 35.1572 57.1813 35.3684 57.1813 35.6289C57.1813 35.8894 56.9701 36.1005 56.7096 36.1005H37.8408C37.5803 36.1005 37.3691 35.8894 37.3691 35.6289Z" fill="#4C8CFF"/>
<g opacity="0.4">
<path fill-rule="evenodd" clip-rule="evenodd" d="M68.0245 17.2547H11.418V12.5381H68.0245V17.2547Z" fill="white"/>
<path fill-rule="evenodd" clip-rule="evenodd" d="M68.0245 17.2547H11.418V12.5381H68.0245V17.2547Z" fill="#4C8CFF"/>
</g>
</svg>
