<svg width="310" height="105" viewBox="0 0 310 105" fill="none" xmlns="http://www.w3.org/2000/svg">
<g opacity="0.1">
<path fill-rule="evenodd" clip-rule="evenodd" d="M124.8 20.4403C123.505 20.4403 122.455 21.4904 122.455 22.7858C122.455 24.0812 123.505 25.1313 124.8 25.1313C126.096 25.1313 127.146 24.0812 127.146 22.7858C127.146 21.4904 126.096 20.4403 124.8 20.4403ZM119.625 22.7858C119.625 19.9275 121.942 17.6104 124.8 17.6104C127.659 17.6104 129.976 19.9275 129.976 22.7858C129.976 25.6441 127.659 27.9612 124.8 27.9612C121.942 27.9612 119.625 25.6441 119.625 22.7858Z" fill="white"/>
<path fill-rule="evenodd" clip-rule="evenodd" d="M124.8 20.4403C123.505 20.4403 122.455 21.4904 122.455 22.7858C122.455 24.0812 123.505 25.1313 124.8 25.1313C126.096 25.1313 127.146 24.0812 127.146 22.7858C127.146 21.4904 126.096 20.4403 124.8 20.4403ZM119.625 22.7858C119.625 19.9275 121.942 17.6104 124.8 17.6104C127.659 17.6104 129.976 19.9275 129.976 22.7858C129.976 25.6441 127.659 27.9612 124.8 27.9612C121.942 27.9612 119.625 25.6441 119.625 22.7858Z" fill="#4C8CFF"/>
</g>
<g opacity="0.1">
<path fill-rule="evenodd" clip-rule="evenodd" d="M185.168 78.91C182.825 78.91 180.925 80.8094 180.925 83.1524C180.925 85.4954 182.825 87.3947 185.168 87.3947C187.511 87.3947 189.41 85.4954 189.41 83.1524C189.41 80.8094 187.511 78.91 185.168 78.91ZM178.095 83.1524C178.095 79.2465 181.262 76.0801 185.168 76.0801C189.073 76.0801 192.24 79.2465 192.24 83.1524C192.24 87.0583 189.073 90.2247 185.168 90.2247C181.262 90.2247 178.095 87.0583 178.095 83.1524Z" fill="white"/>
<path fill-rule="evenodd" clip-rule="evenodd" d="M185.168 78.91C182.825 78.91 180.925 80.8094 180.925 83.1524C180.925 85.4954 182.825 87.3947 185.168 87.3947C187.511 87.3947 189.41 85.4954 189.41 83.1524C189.41 80.8094 187.511 78.91 185.168 78.91ZM178.095 83.1524C178.095 79.2465 181.262 76.0801 185.168 76.0801C189.073 76.0801 192.24 79.2465 192.24 83.1524C192.24 87.0583 189.073 90.2247 185.168 90.2247C181.262 90.2247 178.095 87.0583 178.095 83.1524Z" fill="#4C8CFF"/>
</g>
<path fill-rule="evenodd" clip-rule="evenodd" d="M154.984 21.3603C137.527 21.3603 123.375 35.512 123.375 52.969C123.375 70.426 137.527 84.5777 154.984 84.5777C172.441 84.5777 186.593 70.426 186.593 52.969C186.593 35.512 172.441 21.3603 154.984 21.3603ZM122.432 52.969C122.432 34.991 137.006 20.417 154.984 20.417C172.962 20.417 187.536 34.991 187.536 52.969C187.536 70.947 172.962 85.521 154.984 85.521C137.006 85.521 122.432 70.947 122.432 52.969Z" fill="white"/>
<path fill-rule="evenodd" clip-rule="evenodd" d="M154.984 21.3603C137.527 21.3603 123.375 35.512 123.375 52.969C123.375 70.426 137.527 84.5777 154.984 84.5777C172.441 84.5777 186.593 70.426 186.593 52.969C186.593 35.512 172.441 21.3603 154.984 21.3603ZM122.432 52.969C122.432 34.991 137.006 20.417 154.984 20.417C172.962 20.417 187.536 34.991 187.536 52.969C187.536 70.947 172.962 85.521 154.984 85.521C137.006 85.521 122.432 70.947 122.432 52.969Z" fill="#4C8CFF"/>
<path fill-rule="evenodd" clip-rule="evenodd" d="M143.4 30.5053C140.371 36.2301 138.484 44.1714 138.484 52.969C138.484 61.7666 140.371 69.7079 143.4 75.4327C146.44 81.1787 150.558 84.5777 154.984 84.5777C159.41 84.5777 163.528 81.1787 166.568 75.4327C169.597 69.7079 171.484 61.7666 171.484 52.969C171.484 44.1714 169.597 36.2301 166.568 30.5053C163.528 24.7593 159.41 21.3603 154.984 21.3603C150.558 21.3603 146.44 24.7593 143.4 30.5053ZM142.566 30.0642C145.669 24.1994 150.036 20.417 154.984 20.417C159.932 20.417 164.299 24.1994 167.402 30.0642C170.516 35.9502 172.427 44.0491 172.427 52.969C172.427 61.8889 170.516 69.9878 167.402 75.8738C164.299 81.7386 159.932 85.521 154.984 85.521C150.036 85.521 145.669 81.7386 142.566 75.8738C139.452 69.9878 137.54 61.8889 137.54 52.969C137.54 44.0491 139.452 35.9502 142.566 30.0642Z" fill="white"/>
<path fill-rule="evenodd" clip-rule="evenodd" d="M143.4 30.5053C140.371 36.2301 138.484 44.1714 138.484 52.969C138.484 61.7666 140.371 69.7079 143.4 75.4327C146.44 81.1787 150.558 84.5777 154.984 84.5777C159.41 84.5777 163.528 81.1787 166.568 75.4327C169.597 69.7079 171.484 61.7666 171.484 52.969C171.484 44.1714 169.597 36.2301 166.568 30.5053C163.528 24.7593 159.41 21.3603 154.984 21.3603C150.558 21.3603 146.44 24.7593 143.4 30.5053ZM142.566 30.0642C145.669 24.1994 150.036 20.417 154.984 20.417C159.932 20.417 164.299 24.1994 167.402 30.0642C170.516 35.9502 172.427 44.0491 172.427 52.969C172.427 61.8889 170.516 69.9878 167.402 75.8738C164.299 81.7386 159.932 85.521 154.984 85.521C150.036 85.521 145.669 81.7386 142.566 75.8738C139.452 69.9878 137.54 61.8889 137.54 52.969C137.54 44.0491 139.452 35.9502 142.566 30.0642Z" fill="#4C8CFF"/>
<path fill-rule="evenodd" clip-rule="evenodd" d="M154.512 85.0494V20.8887H155.456V85.0494H154.512Z" fill="white"/>
<path fill-rule="evenodd" clip-rule="evenodd" d="M154.512 85.0494V20.8887H155.456V85.0494H154.512Z" fill="#4C8CFF"/>
<path fill-rule="evenodd" clip-rule="evenodd" d="M187.031 53.5078H122.904V52.5645H187.031V53.5078Z" fill="white"/>
<path fill-rule="evenodd" clip-rule="evenodd" d="M187.031 53.5078H122.904V52.5645H187.031V53.5078Z" fill="#4C8CFF"/>
<path fill-rule="evenodd" clip-rule="evenodd" d="M127.862 35.4922H182.339V36.4355H127.862V35.4922Z" fill="white"/>
<path fill-rule="evenodd" clip-rule="evenodd" d="M127.862 35.4922H182.339V36.4355H127.862V35.4922Z" fill="#4C8CFF"/>
<path fill-rule="evenodd" clip-rule="evenodd" d="M127.862 69.4697H182.106V70.413H127.862V69.4697Z" fill="white"/>
<path fill-rule="evenodd" clip-rule="evenodd" d="M127.862 69.4697H182.106V70.413H127.862V69.4697Z" fill="#4C8CFF"/>
<g opacity="0.4">
<path fill-rule="evenodd" clip-rule="evenodd" d="M129.996 44.9541H145.994V60.9854H129.996V44.9541ZM134.713 49.6707V56.2688H141.278V49.6707H134.713Z" fill="white"/>
<path fill-rule="evenodd" clip-rule="evenodd" d="M129.996 44.9541H145.994V60.9854H129.996V44.9541ZM134.713 49.6707V56.2688H141.278V49.6707H134.713Z" fill="#4C8CFF"/>
</g>
</svg>
