<svg width="310" height="105" viewBox="0 0 310 105" fill="none" xmlns="http://www.w3.org/2000/svg">
<g opacity="0.4">
<path fill-rule="evenodd" clip-rule="evenodd" d="M126.486 28.3582C123.096 28.3582 120.358 31.0961 120.358 34.4859C120.358 37.8757 123.096 40.6136 126.486 40.6136V45.3302C120.491 45.3302 115.642 40.4806 115.642 34.4859C115.642 28.4912 120.491 23.6416 126.486 23.6416C132.481 23.6416 137.33 28.4912 137.33 34.4859H132.614C132.614 31.0961 129.876 28.3582 126.486 28.3582Z" fill="white"/>
<path fill-rule="evenodd" clip-rule="evenodd" d="M126.486 28.3582C123.096 28.3582 120.358 31.0961 120.358 34.4859C120.358 37.8757 123.096 40.6136 126.486 40.6136V45.3302C120.491 45.3302 115.642 40.4806 115.642 34.4859C115.642 28.4912 120.491 23.6416 126.486 23.6416C132.481 23.6416 137.33 28.4912 137.33 34.4859H132.614C132.614 31.0961 129.876 28.3582 126.486 28.3582Z" fill="#4C8CFF"/>
</g>
<g opacity="0.1">
<path fill-rule="evenodd" clip-rule="evenodd" d="M126.486 33.0721C125.703 33.0721 125.072 33.7032 125.072 34.4858C125.072 35.2684 125.703 35.8995 126.486 35.8995V38.7295C124.14 38.7295 122.242 36.8314 122.242 34.4858C122.242 32.1403 124.14 30.2422 126.486 30.2422C128.831 30.2422 130.729 32.1403 130.729 34.4858H127.899C127.899 33.7032 127.268 33.0721 126.486 33.0721Z" fill="white"/>
<path fill-rule="evenodd" clip-rule="evenodd" d="M126.486 33.0721C125.703 33.0721 125.072 33.7032 125.072 34.4858C125.072 35.2684 125.703 35.8995 126.486 35.8995V38.7295C124.14 38.7295 122.242 36.8314 122.242 34.4858C122.242 32.1403 124.14 30.2422 126.486 30.2422C128.831 30.2422 130.729 32.1403 130.729 34.4858H127.899C127.899 33.7032 127.268 33.0721 126.486 33.0721Z" fill="#4C8CFF"/>
</g>
<path fill-rule="evenodd" clip-rule="evenodd" d="M136.963 34.4863C136.963 34.2258 137.174 34.0146 137.434 34.0146H175.971C179.142 34.0146 181.667 36.6707 181.667 39.8774V63.0392C181.667 66.2811 179.14 68.9019 175.971 68.9019H131.71C128.54 68.9019 126.014 66.2459 126.014 63.0392V45.801C126.014 45.5405 126.225 45.3293 126.486 45.3293C126.746 45.3293 126.957 45.5405 126.957 45.801V63.0392C126.957 65.756 129.091 67.9586 131.71 67.9586H175.971C178.592 67.9586 180.724 65.7873 180.724 63.0392V39.8774C180.724 37.1606 178.59 34.958 175.971 34.958H137.434C137.174 34.958 136.963 34.7468 136.963 34.4863Z" fill="white"/>
<path fill-rule="evenodd" clip-rule="evenodd" d="M136.963 34.4863C136.963 34.2258 137.174 34.0146 137.434 34.0146H175.971C179.142 34.0146 181.667 36.6707 181.667 39.8774V63.0392C181.667 66.2811 179.14 68.9019 175.971 68.9019H131.71C128.54 68.9019 126.014 66.2459 126.014 63.0392V45.801C126.014 45.5405 126.225 45.3293 126.486 45.3293C126.746 45.3293 126.957 45.5405 126.957 45.801V63.0392C126.957 65.756 129.091 67.9586 131.71 67.9586H175.971C178.592 67.9586 180.724 65.7873 180.724 63.0392V39.8774C180.724 37.1606 178.59 34.958 175.971 34.958H137.434C137.174 34.958 136.963 34.7468 136.963 34.4863Z" fill="#4C8CFF"/>
<path fill-rule="evenodd" clip-rule="evenodd" d="M146.747 45.8008C146.747 45.5403 146.958 45.3291 147.218 45.3291H187.086C190.343 45.3291 192.949 47.9715 192.949 51.1919V74.3536C192.949 77.611 190.306 80.2164 187.086 80.2164H141.328C138.071 80.2164 135.465 77.574 135.465 74.3536V57.1154C135.465 56.8549 135.677 56.6438 135.937 56.6438C136.198 56.6438 136.409 56.8549 136.409 57.1154V74.3536C136.409 77.0568 138.595 79.273 141.328 79.273H187.086C189.789 79.273 192.005 77.0863 192.005 74.3536V51.1919C192.005 48.4887 189.819 46.2724 187.086 46.2724H147.218C146.958 46.2724 146.747 46.0612 146.747 45.8008Z" fill="white"/>
<path fill-rule="evenodd" clip-rule="evenodd" d="M146.747 45.8008C146.747 45.5403 146.958 45.3291 147.218 45.3291H187.086C190.343 45.3291 192.949 47.9715 192.949 51.1919V74.3536C192.949 77.611 190.306 80.2164 187.086 80.2164H141.328C138.071 80.2164 135.465 77.574 135.465 74.3536V57.1154C135.465 56.8549 135.677 56.6438 135.937 56.6438C136.198 56.6438 136.409 56.8549 136.409 57.1154V74.3536C136.409 77.0568 138.595 79.273 141.328 79.273H187.086C189.789 79.273 192.005 77.0863 192.005 74.3536V51.1919C192.005 48.4887 189.819 46.2724 187.086 46.2724H147.218C146.958 46.2724 146.747 46.0612 146.747 45.8008Z" fill="#4C8CFF"/>
<path fill-rule="evenodd" clip-rule="evenodd" d="M126.152 34.1528C126.337 33.9686 126.635 33.9686 126.819 34.1528L151.346 58.679C151.53 58.8632 151.53 59.1618 151.346 59.346C151.161 59.5302 150.863 59.5302 150.679 59.346L126.152 34.8198C125.968 34.6356 125.968 34.337 126.152 34.1528Z" fill="white"/>
<path fill-rule="evenodd" clip-rule="evenodd" d="M126.152 34.1528C126.337 33.9686 126.635 33.9686 126.819 34.1528L151.346 58.679C151.53 58.8632 151.53 59.1618 151.346 59.346C151.161 59.5302 150.863 59.5302 150.679 59.346L126.152 34.8198C125.968 34.6356 125.968 34.337 126.152 34.1528Z" fill="#4C8CFF"/>
<path fill-rule="evenodd" clip-rule="evenodd" d="M151.012 50.9863C151.273 50.9863 151.484 51.1975 151.484 51.458V59.0122C151.484 59.2727 151.273 59.4838 151.012 59.4838H143.458C143.198 59.4838 142.986 59.2727 142.986 59.0122C142.986 58.7517 143.198 58.5405 143.458 58.5405H150.541V51.458C150.541 51.1975 150.752 50.9863 151.012 50.9863Z" fill="white"/>
<path fill-rule="evenodd" clip-rule="evenodd" d="M151.012 50.9863C151.273 50.9863 151.484 51.1975 151.484 51.458V59.0122C151.484 59.2727 151.273 59.4838 151.012 59.4838H143.458C143.198 59.4838 142.986 59.2727 142.986 59.0122C142.986 58.7517 143.198 58.5405 143.458 58.5405H150.541V51.458C150.541 51.1975 150.752 50.9863 151.012 50.9863Z" fill="#4C8CFF"/>
<g opacity="0.4">
<path fill-rule="evenodd" clip-rule="evenodd" d="M154.772 54.7568H192.51V59.4734H154.772V54.7568Z" fill="white"/>
<path fill-rule="evenodd" clip-rule="evenodd" d="M154.772 54.7568H192.51V59.4734H154.772V54.7568Z" fill="#4C8CFF"/>
</g>
</svg>
