<svg width="330" height="311" viewBox="0 0 330 311" fill="none" xmlns="http://www.w3.org/2000/svg">
<g filter="url(#filter0_d_25_725)">
<g clip-path="url(#clip0_25_725)">
<rect x="10" y="10" width="310" height="291" rx="20" fill="white"/>
<rect x="10" y="10" width="310" height="291" rx="20" fill="url(#paint0_linear_25_725)"/>
<path d="M185.371 129.684C185.131 129.044 184.519 128.621 183.836 128.621H126.509C125.757 128.621 125.102 129.132 124.92 129.861L121.644 142.964C121.424 143.842 121.957 144.731 122.835 144.951C122.965 144.984 123.099 145 123.233 145H188.75C189.655 145.001 190.388 144.268 190.389 143.363C190.389 143.167 190.354 142.972 190.285 142.788L185.371 129.684ZM125.331 141.725L127.788 131.897H182.701L186.386 141.725H125.331Z" fill="white"/>
<path d="M200.215 135.172C196.597 135.172 193.664 138.105 193.664 141.724V143.362C193.664 144.266 194.397 145 195.302 145H205.129C206.034 145 206.767 144.266 206.767 143.362V141.724C206.767 138.105 203.834 135.172 200.215 135.172ZM196.939 141.724C196.939 139.914 198.406 138.448 200.215 138.448C202.025 138.448 203.491 139.914 203.491 141.724H196.939Z" fill="white"/>
<path d="M205.129 81.1207V51.6379C205.129 50.7333 204.396 50 203.491 50H121.595C120.69 50 119.957 50.7333 119.957 51.6379V107.328C119.957 108.232 120.69 108.965 121.595 108.965H155.991V112.241H151.077C150.457 112.241 149.889 112.592 149.612 113.147L146.336 119.699C145.931 120.508 146.26 121.492 147.069 121.896C147.296 122.01 147.547 122.069 147.802 122.069H177.284C178.189 122.074 178.926 121.345 178.931 120.44C178.933 120.183 178.873 119.929 178.758 119.699L175.483 113.147C175.204 112.589 174.632 112.238 174.008 112.241H169.095V108.965H180.56V122.069C180.56 124.783 182.76 126.983 185.474 126.983H205.129C207.843 126.983 210.043 124.783 210.043 122.069V86.0345C210.043 83.3206 207.843 81.1207 205.129 81.1207ZM167.457 115.517H172.996L174.634 118.793H150.452L152.09 115.517H157.629C158.534 115.517 159.267 114.784 159.267 113.879V108.965H165.819V113.879C165.819 114.784 166.552 115.517 167.457 115.517ZM123.233 105.69V53.2759H201.853V81.1207H185.474C182.76 81.1207 180.56 83.3206 180.56 86.0345V105.69H123.233ZM206.767 122.069C206.767 122.974 206.034 123.707 205.129 123.707H185.474C184.569 123.707 183.836 122.974 183.836 122.069V86.0345C183.836 85.1299 184.569 84.3966 185.474 84.3966H205.129C206.034 84.3966 206.767 85.1299 206.767 86.0345L206.767 122.069Z" fill="white"/>
<path d="M195.302 104.052C190.779 104.052 187.112 107.718 187.112 112.241C187.112 116.764 190.779 120.431 195.302 120.431C199.825 120.431 203.491 116.764 203.491 112.241C203.486 107.721 199.822 104.057 195.302 104.052ZM195.302 117.155C192.588 117.155 190.388 114.955 190.388 112.241C190.388 109.528 192.588 107.328 195.302 107.328C198.016 107.328 200.215 109.528 200.215 112.241C200.215 114.955 198.016 117.155 195.302 117.155Z" fill="white"/>
<path d="M203.491 87.6719H187.112V90.9478H203.491V87.6719Z" fill="white"/>
<path d="M203.491 92.5859H187.112V95.8618H203.491V92.5859Z" fill="white"/>
<g filter="url(#filter1_f_25_725)">
<circle cx="159.5" cy="92.5" r="42.5" fill="white"/>
</g>
<path d="M63.3325 215V201.909H71.2331V203.315H64.9178V207.406H68.2416C69.1791 207.406 69.9696 207.56 70.6131 207.866C71.2608 208.173 71.7509 208.606 72.0833 209.164C72.4199 209.722 72.5882 210.381 72.5882 211.139C72.5882 211.898 72.4199 212.567 72.0833 213.146C71.7509 213.726 71.2608 214.18 70.6131 214.508C69.9696 214.836 69.1791 215 68.2416 215H63.3325ZM64.9178 213.619H68.2416C68.8382 213.619 69.3432 213.5 69.7565 213.261C70.1742 213.018 70.4895 212.707 70.7026 212.328C70.9199 211.945 71.0286 211.54 71.0286 211.114C71.0286 210.487 70.7878 209.948 70.3063 209.496C69.8247 209.04 69.1365 208.812 68.2416 208.812H64.9178V213.619ZM79.1097 215.205C78.1637 215.205 77.3476 214.996 76.6616 214.578C75.9797 214.156 75.4535 213.568 75.0827 212.814C74.7162 212.055 74.533 211.173 74.533 210.168C74.533 209.162 74.7162 208.276 75.0827 207.509C75.4535 206.737 75.9691 206.136 76.6296 205.706C77.2944 205.271 78.0699 205.054 78.9563 205.054C79.4677 205.054 79.9726 205.139 80.4712 205.31C80.9698 205.48 81.4236 205.757 81.8327 206.141C82.2418 206.52 82.5678 207.023 82.8107 207.649C83.0536 208.276 83.175 209.047 83.175 209.963V210.602H75.6069V209.298H81.641C81.641 208.744 81.5302 208.25 81.3086 207.815C81.0912 207.381 80.7802 207.038 80.3753 206.786C79.9748 206.535 79.5018 206.409 78.9563 206.409C78.3554 206.409 77.8356 206.558 77.3966 206.857C76.962 207.151 76.6275 207.534 76.3931 208.007C76.1587 208.48 76.0415 208.987 76.0415 209.528V210.398C76.0415 211.139 76.1694 211.768 76.425 212.283C76.685 212.795 77.0451 213.185 77.5053 213.453C77.9655 213.717 78.5003 213.849 79.1097 213.849C79.506 213.849 79.864 213.794 80.1836 213.683C80.5074 213.568 80.7866 213.398 81.0209 213.172C81.2553 212.942 81.4364 212.656 81.5643 212.315L83.0216 212.724C82.8682 213.219 82.6104 213.653 82.2482 214.028C81.886 214.399 81.4385 214.689 80.9059 214.898C80.3732 215.102 79.7745 215.205 79.1097 215.205ZM89.4584 215.205C88.538 215.205 87.7454 214.987 87.0806 214.553C86.4158 214.118 85.9045 213.519 85.5465 212.756C85.1885 211.994 85.0096 211.122 85.0096 210.142C85.0096 209.145 85.1928 208.265 85.5593 207.502C85.93 206.735 86.4456 206.136 87.1062 205.706C87.7709 205.271 88.5465 205.054 89.4329 205.054C90.1232 205.054 90.7454 205.182 91.2993 205.438C91.8533 205.693 92.3072 206.051 92.6608 206.511C93.0145 206.972 93.234 207.509 93.3192 208.122H91.8107C91.6956 207.675 91.44 207.278 91.0437 206.933C90.6516 206.584 90.1232 206.409 89.4584 206.409C88.8704 206.409 88.3547 206.562 87.9116 206.869C87.4726 207.172 87.1296 207.6 86.8824 208.154C86.6395 208.704 86.5181 209.349 86.5181 210.091C86.5181 210.849 86.6374 211.51 86.876 212.072C87.1189 212.635 87.4599 213.072 87.8988 213.383C88.342 213.694 88.8618 213.849 89.4584 213.849C89.8505 213.849 90.2063 213.781 90.5259 213.645C90.8455 213.509 91.1161 213.312 91.3377 213.057C91.5593 212.801 91.717 212.494 91.8107 212.136H93.3192C93.234 212.716 93.0231 213.238 92.6864 213.702C92.354 214.163 91.913 214.529 91.3633 214.802C90.8178 215.07 90.1829 215.205 89.4584 215.205ZM95.5245 215V205.182H103.246V215H101.738V206.588H97.033V215H95.5245ZM105.132 215V213.594H105.49C105.784 213.594 106.029 213.536 106.225 213.421C106.421 213.302 106.578 213.095 106.698 212.801C106.821 212.503 106.915 212.089 106.979 211.561C107.047 211.028 107.096 210.351 107.126 209.528L107.305 205.182H113.85V215H112.342V206.588H108.737L108.583 210.091C108.549 210.896 108.477 211.606 108.366 212.219C108.26 212.829 108.096 213.34 107.874 213.754C107.657 214.167 107.367 214.478 107.005 214.687C106.642 214.896 106.189 215 105.643 215H105.132ZM119.507 215.23C118.885 215.23 118.321 215.113 117.814 214.879C117.306 214.64 116.904 214.297 116.605 213.849C116.307 213.398 116.158 212.852 116.158 212.213C116.158 211.651 116.269 211.195 116.49 210.845C116.712 210.491 117.008 210.214 117.379 210.014C117.75 209.814 118.159 209.665 118.606 209.567C119.058 209.464 119.512 209.384 119.968 209.324C120.564 209.247 121.048 209.19 121.419 209.151C121.794 209.109 122.066 209.038 122.237 208.94C122.412 208.842 122.499 208.672 122.499 208.429V208.378C122.499 207.747 122.326 207.257 121.981 206.908C121.64 206.558 121.122 206.384 120.428 206.384C119.708 206.384 119.143 206.541 118.734 206.857C118.325 207.172 118.037 207.509 117.871 207.866L116.439 207.355C116.695 206.759 117.036 206.294 117.462 205.962C117.892 205.625 118.361 205.391 118.868 205.259C119.38 205.122 119.882 205.054 120.377 205.054C120.692 205.054 121.054 205.092 121.463 205.169C121.877 205.241 122.275 205.393 122.659 205.623C123.046 205.853 123.368 206.2 123.624 206.665C123.88 207.129 124.007 207.751 124.007 208.531V215H122.499V213.67H122.422C122.32 213.884 122.149 214.112 121.911 214.354C121.672 214.597 121.355 214.804 120.958 214.974C120.562 215.145 120.078 215.23 119.507 215.23ZM119.738 213.875C120.334 213.875 120.837 213.758 121.246 213.523C121.659 213.289 121.971 212.987 122.179 212.616C122.392 212.245 122.499 211.855 122.499 211.446V210.065C122.435 210.142 122.294 210.212 122.077 210.276C121.864 210.336 121.617 210.389 121.336 210.436C121.059 210.479 120.788 210.517 120.524 210.551C120.264 210.581 120.053 210.607 119.891 210.628C119.499 210.679 119.132 210.762 118.792 210.877C118.455 210.988 118.182 211.156 117.973 211.382C117.769 211.604 117.667 211.906 117.667 212.29C117.667 212.814 117.86 213.21 118.248 213.479C118.64 213.743 119.137 213.875 119.738 213.875ZM125.425 206.588V205.182H133.402V206.588H130.181V215H128.672V206.588H125.425ZM142.174 209.401V210.807H136.753V209.401H142.174ZM137.111 205.182V215H135.603V205.182H137.111ZM143.324 205.182V215H141.816V205.182H143.324ZM148.968 215.23C148.346 215.23 147.782 215.113 147.274 214.879C146.767 214.64 146.365 214.297 146.066 213.849C145.768 213.398 145.619 212.852 145.619 212.213C145.619 211.651 145.73 211.195 145.951 210.845C146.173 210.491 146.469 210.214 146.84 210.014C147.211 209.814 147.62 209.665 148.067 209.567C148.519 209.464 148.973 209.384 149.429 209.324C150.025 209.247 150.509 209.19 150.88 209.151C151.255 209.109 151.527 209.038 151.698 208.94C151.872 208.842 151.96 208.672 151.96 208.429V208.378C151.96 207.747 151.787 207.257 151.442 206.908C151.101 206.558 150.583 206.384 149.889 206.384C149.169 206.384 148.604 206.541 148.195 206.857C147.786 207.172 147.498 207.509 147.332 207.866L145.9 207.355C146.156 206.759 146.497 206.294 146.923 205.962C147.353 205.625 147.822 205.391 148.329 205.259C148.841 205.122 149.343 205.054 149.838 205.054C150.153 205.054 150.515 205.092 150.924 205.169C151.338 205.241 151.736 205.393 152.12 205.623C152.507 205.853 152.829 206.2 153.085 206.665C153.341 207.129 153.468 207.751 153.468 208.531V215H151.96V213.67H151.883C151.781 213.884 151.61 214.112 151.372 214.354C151.133 214.597 150.816 214.804 150.419 214.974C150.023 215.145 149.539 215.23 148.968 215.23ZM149.198 213.875C149.795 213.875 150.298 213.758 150.707 213.523C151.12 213.289 151.431 212.987 151.64 212.616C151.853 212.245 151.96 211.855 151.96 211.446V210.065C151.896 210.142 151.755 210.212 151.538 210.276C151.325 210.336 151.078 210.389 150.796 210.436C150.52 210.479 150.249 210.517 149.985 210.551C149.725 210.581 149.514 210.607 149.352 210.628C148.96 210.679 148.593 210.762 148.252 210.877C147.916 210.988 147.643 211.156 147.434 211.382C147.23 211.604 147.127 211.906 147.127 212.29C147.127 212.814 147.321 213.21 147.709 213.479C148.101 213.743 148.598 213.875 149.198 213.875ZM162.128 215V206.562H159.52C158.932 206.562 158.47 206.699 158.133 206.972C157.796 207.244 157.628 207.619 157.628 208.097C157.628 208.565 157.779 208.934 158.082 209.202C158.389 209.471 158.808 209.605 159.341 209.605H162.512V211.011H159.341C158.676 211.011 158.103 210.894 157.622 210.66C157.14 210.425 156.769 210.091 156.509 209.656C156.249 209.217 156.119 208.697 156.119 208.097C156.119 207.491 156.256 206.972 156.529 206.537C156.801 206.102 157.191 205.768 157.698 205.533C158.21 205.299 158.817 205.182 159.52 205.182H163.56V215H162.128ZM155.583 215L158.369 210.116H160.006L157.219 215H155.583ZM171.392 215V205.182H179.113V215H177.605V206.588H172.9V215H171.392ZM185.857 215.205C184.971 215.205 184.193 214.994 183.524 214.572C182.859 214.15 182.339 213.56 181.964 212.801C181.593 212.043 181.408 211.156 181.408 210.142C181.408 209.119 181.593 208.227 181.964 207.464C182.339 206.701 182.859 206.109 183.524 205.687C184.193 205.265 184.971 205.054 185.857 205.054C186.743 205.054 187.519 205.265 188.184 205.687C188.853 206.109 189.372 206.701 189.743 207.464C190.118 208.227 190.306 209.119 190.306 210.142C190.306 211.156 190.118 212.043 189.743 212.801C189.372 213.56 188.853 214.15 188.184 214.572C187.519 214.994 186.743 215.205 185.857 215.205ZM185.857 213.849C186.53 213.849 187.084 213.677 187.519 213.332C187.953 212.987 188.275 212.533 188.484 211.97C188.693 211.408 188.797 210.798 188.797 210.142C188.797 209.486 188.693 208.874 188.484 208.308C188.275 207.741 187.953 207.283 187.519 206.933C187.084 206.584 186.53 206.409 185.857 206.409C185.184 206.409 184.63 206.584 184.195 206.933C183.76 207.283 183.439 207.741 183.23 208.308C183.021 208.874 182.917 209.486 182.917 210.142C182.917 210.798 183.021 211.408 183.23 211.97C183.439 212.533 183.76 212.987 184.195 213.332C184.63 213.677 185.184 213.849 185.857 213.849ZM191.56 217.812V213.594H192.378C192.579 213.385 192.751 213.159 192.896 212.916C193.041 212.673 193.167 212.386 193.273 212.053C193.384 211.717 193.478 211.308 193.554 210.826C193.631 210.34 193.699 209.754 193.759 209.068L194.091 205.182H200.33V213.594H201.839V217.812H200.33V215H193.069V217.812H191.56ZM194.091 213.594H198.822V206.588H195.498L195.242 209.068C195.135 210.095 195.003 210.992 194.846 211.759C194.688 212.526 194.437 213.138 194.091 213.594ZM202.793 217.812V213.594H203.611C203.811 213.385 203.984 213.159 204.129 212.916C204.273 212.673 204.399 212.386 204.506 212.053C204.616 211.717 204.71 211.308 204.787 210.826C204.864 210.34 204.932 209.754 204.991 209.068L205.324 205.182H211.562V213.594H213.071V217.812H211.562V215H204.301V217.812H202.793ZM205.324 213.594H210.054V206.588H206.73L206.474 209.068C206.368 210.095 206.236 210.992 206.078 211.759C205.92 212.526 205.669 213.138 205.324 213.594ZM219.19 215.205C218.244 215.205 217.428 214.996 216.742 214.578C216.06 214.156 215.534 213.568 215.163 212.814C214.796 212.055 214.613 211.173 214.613 210.168C214.613 209.162 214.796 208.276 215.163 207.509C215.534 206.737 216.049 206.136 216.71 205.706C217.374 205.271 218.15 205.054 219.036 205.054C219.548 205.054 220.053 205.139 220.551 205.31C221.05 205.48 221.504 205.757 221.913 206.141C222.322 206.52 222.648 207.023 222.891 207.649C223.134 208.276 223.255 209.047 223.255 209.963V210.602H215.687V209.298H221.721C221.721 208.744 221.61 208.25 221.389 207.815C221.171 207.381 220.86 207.038 220.455 206.786C220.055 206.535 219.582 206.409 219.036 206.409C218.436 206.409 217.916 206.558 217.477 206.857C217.042 207.151 216.708 207.534 216.473 208.007C216.239 208.48 216.122 208.987 216.122 209.528V210.398C216.122 211.139 216.249 211.768 216.505 212.283C216.765 212.795 217.125 213.185 217.585 213.453C218.046 213.717 218.58 213.849 219.19 213.849C219.586 213.849 219.944 213.794 220.264 213.683C220.588 213.568 220.867 213.398 221.101 213.172C221.335 212.942 221.516 212.656 221.644 212.315L223.102 212.724C222.948 213.219 222.69 213.653 222.328 214.028C221.966 214.399 221.519 214.689 220.986 214.898C220.453 215.102 219.855 215.205 219.19 215.205ZM225.55 218.682V205.182H227.007V206.741H227.186C227.297 206.571 227.45 206.354 227.646 206.089C227.847 205.821 228.132 205.582 228.503 205.374C228.878 205.161 229.385 205.054 230.024 205.054C230.851 205.054 231.58 205.261 232.21 205.674C232.841 206.087 233.333 206.673 233.687 207.432C234.041 208.19 234.217 209.085 234.217 210.116C234.217 211.156 234.041 212.058 233.687 212.82C233.333 213.579 232.843 214.167 232.217 214.585C231.59 214.998 230.868 215.205 230.05 215.205C229.419 215.205 228.914 215.1 228.535 214.891C228.156 214.678 227.864 214.437 227.659 214.169C227.455 213.896 227.297 213.67 227.186 213.491H227.058V218.682H225.55ZM227.033 210.091C227.033 210.832 227.141 211.487 227.359 212.053C227.576 212.616 227.894 213.057 228.311 213.376C228.729 213.692 229.24 213.849 229.845 213.849C230.476 213.849 231.002 213.683 231.424 213.351C231.85 213.014 232.17 212.562 232.383 211.996C232.6 211.425 232.709 210.79 232.709 210.091C232.709 209.401 232.602 208.778 232.389 208.224C232.181 207.666 231.863 207.225 231.437 206.901C231.015 206.573 230.485 206.409 229.845 206.409C229.232 206.409 228.716 206.565 228.298 206.876C227.881 207.183 227.565 207.613 227.352 208.167C227.139 208.717 227.033 209.358 227.033 210.091ZM235.501 215L239.489 210.014L235.552 205.182H237.342L240.614 209.375H241.433V205.182H242.941V209.375H243.734L247.006 205.182H248.796L244.884 210.014L248.847 215H247.032L243.708 210.781H242.941V215H241.433V210.781H240.665L237.316 215H235.501ZM251.003 215V205.182H252.512V209.452H253.509L257.037 205.182H258.98L255.017 209.912L259.031 215H257.088L253.867 210.858H252.512V215H251.003ZM263.56 215.23C262.938 215.23 262.373 215.113 261.866 214.879C261.359 214.64 260.956 214.297 260.658 213.849C260.36 213.398 260.211 212.852 260.211 212.213C260.211 211.651 260.322 211.195 260.543 210.845C260.765 210.491 261.061 210.214 261.432 210.014C261.802 209.814 262.211 209.665 262.659 209.567C263.111 209.464 263.564 209.384 264.02 209.324C264.617 209.247 265.101 209.19 265.471 209.151C265.846 209.109 266.119 209.038 266.29 208.94C266.464 208.842 266.552 208.672 266.552 208.429V208.378C266.552 207.747 266.379 207.257 266.034 206.908C265.693 206.558 265.175 206.384 264.481 206.384C263.76 206.384 263.196 206.541 262.787 206.857C262.378 207.172 262.09 207.509 261.924 207.866L260.492 207.355C260.748 206.759 261.089 206.294 261.515 205.962C261.945 205.625 262.414 205.391 262.921 205.259C263.432 205.122 263.935 205.054 264.429 205.054C264.745 205.054 265.107 205.092 265.516 205.169C265.929 205.241 266.328 205.393 266.711 205.623C267.099 205.853 267.421 206.2 267.677 206.665C267.932 207.129 268.06 207.751 268.06 208.531V215H266.552V213.67H266.475C266.373 213.884 266.202 214.112 265.964 214.354C265.725 214.597 265.407 214.804 265.011 214.974C264.615 215.145 264.131 215.23 263.56 215.23ZM263.79 213.875C264.387 213.875 264.89 213.758 265.299 213.523C265.712 213.289 266.023 212.987 266.232 212.616C266.445 212.245 266.552 211.855 266.552 211.446V210.065C266.488 210.142 266.347 210.212 266.13 210.276C265.917 210.336 265.67 210.389 265.388 210.436C265.111 210.479 264.841 210.517 264.577 210.551C264.317 210.581 264.106 210.607 263.944 210.628C263.552 210.679 263.185 210.762 262.844 210.877C262.508 210.988 262.235 211.156 262.026 211.382C261.822 211.604 261.719 211.906 261.719 212.29C261.719 212.814 261.913 213.21 262.301 213.479C262.693 213.743 263.189 213.875 263.79 213.875ZM115.484 239V229.182H123.206V239H121.698V230.588H116.993V239H115.484ZM125.961 242.682V229.182H127.418V230.741H127.597C127.708 230.571 127.862 230.354 128.058 230.089C128.258 229.821 128.543 229.582 128.914 229.374C129.289 229.161 129.796 229.054 130.435 229.054C131.262 229.054 131.991 229.261 132.622 229.674C133.252 230.087 133.744 230.673 134.098 231.432C134.452 232.19 134.629 233.085 134.629 234.116C134.629 235.156 134.452 236.058 134.098 236.82C133.744 237.579 133.254 238.167 132.628 238.585C132.001 238.998 131.279 239.205 130.461 239.205C129.83 239.205 129.325 239.1 128.946 238.891C128.567 238.678 128.275 238.437 128.07 238.169C127.866 237.896 127.708 237.67 127.597 237.491H127.47V242.682H125.961ZM127.444 234.091C127.444 234.832 127.553 235.487 127.77 236.053C127.987 236.616 128.305 237.057 128.722 237.376C129.14 237.692 129.651 237.849 130.256 237.849C130.887 237.849 131.413 237.683 131.835 237.351C132.261 237.014 132.581 236.562 132.794 235.996C133.011 235.425 133.12 234.79 133.12 234.091C133.12 233.401 133.014 232.778 132.8 232.224C132.592 231.666 132.274 231.225 131.848 230.901C131.426 230.573 130.896 230.409 130.256 230.409C129.643 230.409 129.127 230.565 128.71 230.876C128.292 231.183 127.977 231.613 127.764 232.167C127.55 232.717 127.444 233.358 127.444 234.091ZM140.918 239.205C140.032 239.205 139.254 238.994 138.585 238.572C137.921 238.15 137.401 237.56 137.026 236.801C136.655 236.043 136.47 235.156 136.47 234.142C136.47 233.119 136.655 232.227 137.026 231.464C137.401 230.701 137.921 230.109 138.585 229.687C139.254 229.265 140.032 229.054 140.918 229.054C141.805 229.054 142.58 229.265 143.245 229.687C143.914 230.109 144.434 230.701 144.805 231.464C145.18 232.227 145.367 233.119 145.367 234.142C145.367 235.156 145.18 236.043 144.805 236.801C144.434 237.56 143.914 238.15 143.245 238.572C142.58 238.994 141.805 239.205 140.918 239.205ZM140.918 237.849C141.592 237.849 142.146 237.677 142.58 237.332C143.015 236.987 143.337 236.533 143.546 235.97C143.754 235.408 143.859 234.798 143.859 234.142C143.859 233.486 143.754 232.874 143.546 232.308C143.337 231.741 143.015 231.283 142.58 230.933C142.146 230.584 141.592 230.409 140.918 230.409C140.245 230.409 139.691 230.584 139.256 230.933C138.822 231.283 138.5 231.741 138.291 232.308C138.082 232.874 137.978 233.486 137.978 234.142C137.978 234.798 138.082 235.408 138.291 235.97C138.5 236.533 138.822 236.987 139.256 237.332C139.691 237.677 140.245 237.849 140.918 237.849ZM146.622 241.812V237.594H147.44C147.64 237.385 147.813 237.159 147.958 236.916C148.103 236.673 148.228 236.386 148.335 236.053C148.446 235.717 148.539 235.308 148.616 234.826C148.693 234.34 148.761 233.754 148.821 233.068L149.153 229.182H155.392V237.594H156.9V241.812H155.392V239H148.13V241.812H146.622ZM149.153 237.594H153.883V230.588H150.559L150.304 233.068C150.197 234.095 150.065 234.992 149.907 235.759C149.75 236.526 149.498 237.138 149.153 237.594ZM159.874 242.682C159.618 242.682 159.39 242.661 159.19 242.618C158.99 242.58 158.851 242.541 158.775 242.503L159.158 241.173C159.525 241.267 159.848 241.301 160.13 241.276C160.411 241.25 160.66 241.124 160.878 240.898C161.099 240.677 161.302 240.317 161.485 239.818L161.766 239.051L158.135 229.182H159.772L162.482 237.006H162.584L165.294 229.182H166.931L162.763 240.432C162.576 240.939 162.343 241.359 162.066 241.691C161.789 242.028 161.468 242.277 161.101 242.439C160.739 242.601 160.33 242.682 159.874 242.682ZM168.922 239V229.182H170.43V233.452H171.428L174.956 229.182H176.899L172.936 233.912L176.95 239H175.007L171.786 234.858H170.43V239H168.922ZM178.027 230.588V229.182H186.005V230.588H182.783V239H181.275V230.588H178.027ZM190.585 239.23C189.962 239.23 189.398 239.113 188.891 238.879C188.384 238.64 187.981 238.297 187.683 237.849C187.384 237.398 187.235 236.852 187.235 236.213C187.235 235.651 187.346 235.195 187.568 234.845C187.789 234.491 188.085 234.214 188.456 234.014C188.827 233.814 189.236 233.665 189.683 233.567C190.135 233.464 190.589 233.384 191.045 233.324C191.641 233.247 192.125 233.19 192.496 233.151C192.871 233.109 193.144 233.038 193.314 232.94C193.489 232.842 193.576 232.672 193.576 232.429V232.378C193.576 231.747 193.403 231.257 193.058 230.908C192.717 230.558 192.2 230.384 191.505 230.384C190.785 230.384 190.22 230.541 189.811 230.857C189.402 231.172 189.114 231.509 188.948 231.866L187.516 231.355C187.772 230.759 188.113 230.294 188.539 229.962C188.97 229.625 189.438 229.391 189.945 229.259C190.457 229.122 190.96 229.054 191.454 229.054C191.769 229.054 192.131 229.092 192.541 229.169C192.954 229.241 193.352 229.393 193.736 229.623C194.124 229.853 194.445 230.2 194.701 230.665C194.957 231.129 195.085 231.751 195.085 232.531V239H193.576V237.67H193.499C193.397 237.884 193.227 238.112 192.988 238.354C192.749 238.597 192.432 238.804 192.036 238.974C191.639 239.145 191.156 239.23 190.585 239.23ZM190.815 237.875C191.411 237.875 191.914 237.758 192.323 237.523C192.737 237.289 193.048 236.987 193.256 236.616C193.47 236.245 193.576 235.855 193.576 235.446V234.065C193.512 234.142 193.372 234.212 193.154 234.276C192.941 234.336 192.694 234.389 192.413 234.436C192.136 234.479 191.865 234.517 191.601 234.551C191.341 234.581 191.13 234.607 190.968 234.628C190.576 234.679 190.21 234.762 189.869 234.877C189.532 234.988 189.259 235.156 189.05 235.382C188.846 235.604 188.744 235.906 188.744 236.29C188.744 236.814 188.938 237.21 189.325 237.479C189.717 237.743 190.214 237.875 190.815 237.875ZM209.471 233.401V234.807H204.051V233.401H209.471ZM204.409 229.182V239H202.9V229.182H204.409ZM210.622 229.182V239H209.114V229.182H210.622ZM216.266 239.23C215.644 239.23 215.079 239.113 214.572 238.879C214.065 238.64 213.663 238.297 213.364 237.849C213.066 237.398 212.917 236.852 212.917 236.213C212.917 235.651 213.028 235.195 213.249 234.845C213.471 234.491 213.767 234.214 214.138 234.014C214.508 233.814 214.918 233.665 215.365 233.567C215.817 233.464 216.27 233.384 216.726 233.324C217.323 233.247 217.807 233.19 218.177 233.151C218.552 233.109 218.825 233.038 218.996 232.94C219.17 232.842 219.258 232.672 219.258 232.429V232.378C219.258 231.747 219.085 231.257 218.74 230.908C218.399 230.558 217.881 230.384 217.187 230.384C216.467 230.384 215.902 230.541 215.493 230.857C215.084 231.172 214.796 231.509 214.63 231.866L213.198 231.355C213.454 230.759 213.795 230.294 214.221 229.962C214.651 229.625 215.12 229.391 215.627 229.259C216.138 229.122 216.641 229.054 217.136 229.054C217.451 229.054 217.813 229.092 218.222 229.169C218.636 229.241 219.034 229.393 219.418 229.623C219.805 229.853 220.127 230.2 220.383 230.665C220.638 231.129 220.766 231.751 220.766 232.531V239H219.258V237.67H219.181C219.079 237.884 218.908 238.112 218.67 238.354C218.431 238.597 218.114 238.804 217.717 238.974C217.321 239.145 216.837 239.23 216.266 239.23ZM216.496 237.875C217.093 237.875 217.596 237.758 218.005 237.523C218.418 237.289 218.729 236.987 218.938 236.616C219.151 236.245 219.258 235.855 219.258 235.446V234.065C219.194 234.142 219.053 234.212 218.836 234.276C218.623 234.336 218.376 234.389 218.094 234.436C217.817 234.479 217.547 234.517 217.283 234.551C217.023 234.581 216.812 234.607 216.65 234.628C216.258 234.679 215.891 234.762 215.55 234.877C215.214 234.988 214.941 235.156 214.732 235.382C214.528 235.604 214.425 235.906 214.425 236.29C214.425 236.814 214.619 237.21 215.007 237.479C215.399 237.743 215.895 237.875 216.496 237.875ZM64.2178 263V253.182H71.9394V263H70.4309V254.588H65.7264V263H64.2178ZM74.6944 266.682V253.182H76.1518V254.741H76.3308C76.4416 254.571 76.595 254.354 76.791 254.089C76.9913 253.821 77.2768 253.582 77.6475 253.374C78.0225 253.161 78.5296 253.054 79.1688 253.054C79.9955 253.054 80.7242 253.261 81.3549 253.674C81.9856 254.087 82.4778 254.673 82.8315 255.432C83.1852 256.19 83.362 257.085 83.362 258.116C83.362 259.156 83.1852 260.058 82.8315 260.82C82.4778 261.579 81.9877 262.167 81.3613 262.585C80.7349 262.998 80.0126 263.205 79.1944 263.205C78.5637 263.205 78.0587 263.1 77.6795 262.891C77.3002 262.678 77.0083 262.437 76.8038 262.169C76.5992 261.896 76.4416 261.67 76.3308 261.491H76.2029V266.682H74.6944ZM76.1774 258.091C76.1774 258.832 76.286 259.487 76.5034 260.053C76.7207 260.616 77.0382 261.057 77.4558 261.376C77.8734 261.692 78.3847 261.849 78.9899 261.849C79.6205 261.849 80.1468 261.683 80.5687 261.351C80.9948 261.014 81.3144 260.562 81.5275 259.996C81.7448 259.425 81.8535 258.79 81.8535 258.091C81.8535 257.401 81.747 256.778 81.5339 256.224C81.3251 255.666 81.0076 255.225 80.5815 254.901C80.1596 254.573 79.6291 254.409 78.9899 254.409C78.3762 254.409 77.8606 254.565 77.443 254.876C77.0254 255.183 76.71 255.613 76.497 256.167C76.2839 256.717 76.1774 257.358 76.1774 258.091ZM89.6518 263.205C88.7654 263.205 87.9877 262.994 87.3187 262.572C86.6539 262.15 86.134 261.56 85.759 260.801C85.3883 260.043 85.2029 259.156 85.2029 258.142C85.2029 257.119 85.3883 256.227 85.759 255.464C86.134 254.701 86.6539 254.109 87.3187 253.687C87.9877 253.265 88.7654 253.054 89.6518 253.054C90.5382 253.054 91.3137 253.265 91.9785 253.687C92.6475 254.109 93.1674 254.701 93.5382 255.464C93.9132 256.227 94.1007 257.119 94.1007 258.142C94.1007 259.156 93.9132 260.043 93.5382 260.801C93.1674 261.56 92.6475 262.15 91.9785 262.572C91.3137 262.994 90.5382 263.205 89.6518 263.205ZM89.6518 261.849C90.3251 261.849 90.8791 261.677 91.3137 261.332C91.7484 260.987 92.0701 260.533 92.2789 259.97C92.4877 259.408 92.5921 258.798 92.5921 258.142C92.5921 257.486 92.4877 256.874 92.2789 256.308C92.0701 255.741 91.7484 255.283 91.3137 254.933C90.8791 254.584 90.3251 254.409 89.6518 254.409C88.9785 254.409 88.4245 254.584 87.9899 254.933C87.5552 255.283 87.2335 255.741 87.0247 256.308C86.8159 256.874 86.7114 257.486 86.7114 258.142C86.7114 258.798 86.8159 259.408 87.0247 259.97C87.2335 260.533 87.5552 260.987 87.9899 261.332C88.4245 261.677 88.9785 261.849 89.6518 261.849ZM95.1202 254.588V253.182H103.097V254.588H99.8759V263H98.3673V254.588H95.1202ZM111.204 263V254.562H108.596C108.008 254.562 107.546 254.699 107.209 254.972C106.872 255.244 106.704 255.619 106.704 256.097C106.704 256.565 106.855 256.934 107.158 257.202C107.465 257.471 107.885 257.605 108.417 257.605H111.588V259.011H108.417C107.752 259.011 107.179 258.894 106.698 258.66C106.216 258.425 105.846 258.091 105.586 257.656C105.326 257.217 105.196 256.697 105.196 256.097C105.196 255.491 105.332 254.972 105.605 254.537C105.877 254.102 106.267 253.768 106.774 253.533C107.286 253.299 107.893 253.182 108.596 253.182H112.636V263H111.204ZM104.659 263L107.446 258.116H109.082L106.295 263H104.659ZM114.792 263L118.78 258.014L114.843 253.182H116.633L119.905 257.375H120.724V253.182H122.232V257.375H123.025L126.297 253.182H128.087L124.175 258.014L128.138 263H126.323L122.999 258.781H122.232V263H120.724V258.781H119.956L116.607 263H114.792ZM134.006 263.205C133.06 263.205 132.244 262.996 131.558 262.578C130.876 262.156 130.35 261.568 129.979 260.814C129.613 260.055 129.429 259.173 129.429 258.168C129.429 257.162 129.613 256.276 129.979 255.509C130.35 254.737 130.866 254.136 131.526 253.706C132.191 253.271 132.966 253.054 133.853 253.054C134.364 253.054 134.869 253.139 135.368 253.31C135.866 253.48 136.32 253.757 136.729 254.141C137.138 254.52 137.464 255.023 137.707 255.649C137.95 256.276 138.072 257.047 138.072 257.963V258.602H130.503V257.298H136.537C136.537 256.744 136.427 256.25 136.205 255.815C135.988 255.381 135.677 255.038 135.272 254.786C134.871 254.535 134.398 254.409 133.853 254.409C133.252 254.409 132.732 254.558 132.293 254.857C131.858 255.151 131.524 255.534 131.29 256.007C131.055 256.48 130.938 256.987 130.938 257.528V258.398C130.938 259.139 131.066 259.768 131.322 260.283C131.581 260.795 131.942 261.185 132.402 261.453C132.862 261.717 133.397 261.849 134.006 261.849C134.402 261.849 134.76 261.794 135.08 261.683C135.404 261.568 135.683 261.398 135.917 261.172C136.152 260.942 136.333 260.656 136.461 260.315L137.918 260.724C137.765 261.219 137.507 261.653 137.145 262.028C136.782 262.399 136.335 262.689 135.802 262.898C135.27 263.102 134.671 263.205 134.006 263.205ZM146.937 257.401V258.807H141.517V257.401H146.937ZM141.875 253.182V263H140.366V253.182H141.875ZM148.088 253.182V263H146.579V253.182H148.088ZM152.351 260.776L157.081 253.182H158.82V263H157.312V255.406L152.607 263H150.843V253.182H152.351V260.776ZM163.092 260.776L167.822 253.182H169.56V263H168.052V255.406L163.347 263H161.583V253.182H163.092V260.776ZM181.707 263.179C181.17 263.17 180.633 263.068 180.096 262.872C179.559 262.676 179.069 262.346 178.626 261.881C178.183 261.413 177.827 260.78 177.558 259.983C177.29 259.182 177.156 258.176 177.156 256.966C177.156 255.807 177.264 254.78 177.482 253.885C177.699 252.986 178.014 252.229 178.428 251.616C178.841 250.998 179.34 250.529 179.923 250.21C180.512 249.89 181.174 249.73 181.911 249.73C182.644 249.73 183.296 249.877 183.867 250.171C184.443 250.461 184.911 250.866 185.274 251.386C185.636 251.906 185.87 252.504 185.977 253.182H184.417C184.272 252.594 183.991 252.106 183.573 251.718C183.156 251.33 182.602 251.136 181.911 251.136C180.897 251.136 180.098 251.577 179.514 252.46C178.935 253.342 178.643 254.58 178.639 256.173H178.741C178.98 255.811 179.263 255.502 179.591 255.246C179.923 254.987 180.29 254.786 180.69 254.646C181.091 254.505 181.515 254.435 181.963 254.435C182.713 254.435 183.399 254.622 184.021 254.997C184.643 255.368 185.141 255.881 185.516 256.538C185.891 257.19 186.079 257.938 186.079 258.781C186.079 259.591 185.898 260.332 185.536 261.006C185.173 261.675 184.664 262.207 184.008 262.604C183.356 262.996 182.589 263.188 181.707 263.179ZM181.707 261.773C182.244 261.773 182.725 261.638 183.151 261.37C183.582 261.102 183.921 260.741 184.168 260.29C184.419 259.838 184.545 259.335 184.545 258.781C184.545 258.24 184.423 257.748 184.181 257.305C183.942 256.857 183.612 256.501 183.19 256.237C182.772 255.973 182.295 255.841 181.758 255.841C181.353 255.841 180.976 255.922 180.627 256.084C180.277 256.241 179.97 256.459 179.706 256.736C179.446 257.013 179.242 257.33 179.092 257.688C178.943 258.042 178.869 258.415 178.869 258.807C178.869 259.327 178.99 259.812 179.233 260.264C179.48 260.716 179.817 261.08 180.243 261.357C180.673 261.634 181.161 261.773 181.707 261.773ZM199.05 260.955L202.476 253.182H203.908L199.664 263H198.436L194.269 253.182H195.675L199.05 260.955ZM195.189 253.182V263H193.681V253.182H195.189ZM202.911 263V253.182H204.419V263H202.911ZM211.297 263.205C210.351 263.205 209.535 262.996 208.849 262.578C208.167 262.156 207.641 261.568 207.27 260.814C206.904 260.055 206.721 259.173 206.721 258.168C206.721 257.162 206.904 256.276 207.27 255.509C207.641 254.737 208.157 254.136 208.817 253.706C209.482 253.271 210.257 253.054 211.144 253.054C211.655 253.054 212.16 253.139 212.659 253.31C213.157 253.48 213.611 253.757 214.02 254.141C214.429 254.52 214.755 255.023 214.998 255.649C215.241 256.276 215.363 257.047 215.363 257.963V258.602H207.794V257.298H213.828C213.828 256.744 213.718 256.25 213.496 255.815C213.279 255.381 212.968 255.038 212.563 254.786C212.162 254.535 211.689 254.409 211.144 254.409C210.543 254.409 210.023 254.558 209.584 254.857C209.149 255.151 208.815 255.534 208.581 256.007C208.346 256.48 208.229 256.987 208.229 257.528V258.398C208.229 259.139 208.357 259.768 208.613 260.283C208.872 260.795 209.233 261.185 209.693 261.453C210.153 261.717 210.688 261.849 211.297 261.849C211.694 261.849 212.051 261.794 212.371 261.683C212.695 261.568 212.974 261.398 213.208 261.172C213.443 260.942 213.624 260.656 213.752 260.315L215.209 260.724C215.056 261.219 214.798 261.653 214.436 262.028C214.073 262.399 213.626 262.689 213.093 262.898C212.561 263.102 211.962 263.205 211.297 263.205ZM221.646 263.205C220.725 263.205 219.933 262.987 219.268 262.553C218.603 262.118 218.092 261.519 217.734 260.756C217.376 259.994 217.197 259.122 217.197 258.142C217.197 257.145 217.38 256.265 217.747 255.502C218.118 254.735 218.633 254.136 219.294 253.706C219.958 253.271 220.734 253.054 221.62 253.054C222.311 253.054 222.933 253.182 223.487 253.438C224.041 253.693 224.495 254.051 224.848 254.511C225.202 254.972 225.421 255.509 225.507 256.122H223.998C223.883 255.675 223.627 255.278 223.231 254.933C222.839 254.584 222.311 254.409 221.646 254.409C221.058 254.409 220.542 254.562 220.099 254.869C219.66 255.172 219.317 255.6 219.07 256.154C218.827 256.704 218.706 257.349 218.706 258.091C218.706 258.849 218.825 259.51 219.064 260.072C219.306 260.635 219.647 261.072 220.086 261.383C220.529 261.694 221.049 261.849 221.646 261.849C222.038 261.849 222.394 261.781 222.713 261.645C223.033 261.509 223.304 261.312 223.525 261.057C223.747 260.801 223.904 260.494 223.998 260.136H225.507C225.421 260.716 225.211 261.238 224.874 261.702C224.542 262.163 224.1 262.529 223.551 262.802C223.005 263.07 222.37 263.205 221.646 263.205ZM233.618 263V254.562H231.01C230.422 254.562 229.96 254.699 229.623 254.972C229.287 255.244 229.118 255.619 229.118 256.097C229.118 256.565 229.27 256.934 229.572 257.202C229.879 257.471 230.299 257.605 230.831 257.605H234.002V259.011H230.831C230.167 259.011 229.593 258.894 229.112 258.66C228.63 258.425 228.26 258.091 228 257.656C227.74 257.217 227.61 256.697 227.61 256.097C227.61 255.491 227.746 254.972 228.019 254.537C228.292 254.102 228.681 253.768 229.189 253.533C229.7 253.299 230.307 253.182 231.01 253.182H235.05V263H233.618ZM227.073 263L229.86 258.116H231.496L228.709 263H227.073ZM245.541 253.182V261.594H246.922V266.17H245.413V263H237.819V253.182H239.328V261.594H244.032V253.182H245.541ZM253.256 263.205C252.31 263.205 251.494 262.996 250.808 262.578C250.126 262.156 249.6 261.568 249.229 260.814C248.863 260.055 248.679 259.173 248.679 258.168C248.679 257.162 248.863 256.276 249.229 255.509C249.6 254.737 250.116 254.136 250.776 253.706C251.441 253.271 252.216 253.054 253.103 253.054C253.614 253.054 254.119 253.139 254.618 253.31C255.116 253.48 255.57 253.757 255.979 254.141C256.388 254.52 256.714 255.023 256.957 255.649C257.2 256.276 257.322 257.047 257.322 257.963V258.602H249.753V257.298H255.787C255.787 256.744 255.677 256.25 255.455 255.815C255.238 255.381 254.927 255.038 254.522 254.786C254.121 254.535 253.648 254.409 253.103 254.409C252.502 254.409 251.982 254.558 251.543 254.857C251.108 255.151 250.774 255.534 250.54 256.007C250.305 256.48 250.188 256.987 250.188 257.528V258.398C250.188 259.139 250.316 259.768 250.572 260.283C250.831 260.795 251.192 261.185 251.652 261.453C252.112 261.717 252.647 261.849 253.256 261.849C253.652 261.849 254.01 261.794 254.33 261.683C254.654 261.568 254.933 261.398 255.167 261.172C255.402 260.942 255.583 260.656 255.711 260.315L257.168 260.724C257.015 261.219 256.757 261.653 256.395 262.028C256.032 262.399 255.585 262.689 255.052 262.898C254.52 263.102 253.921 263.205 253.256 263.205ZM259.616 263V253.182H263.63C264.687 253.182 265.527 253.42 266.149 253.898C266.771 254.375 267.082 255.006 267.082 255.79C267.082 256.386 266.905 256.849 266.552 257.177C266.198 257.501 265.744 257.72 265.19 257.835C265.552 257.886 265.904 258.014 266.245 258.219C266.59 258.423 266.876 258.705 267.101 259.062C267.327 259.416 267.44 259.851 267.44 260.366C267.44 260.869 267.312 261.319 267.057 261.715C266.801 262.112 266.434 262.425 265.957 262.655C265.48 262.885 264.909 263 264.244 263H259.616ZM261.048 261.619H264.244C264.764 261.619 265.171 261.496 265.465 261.249C265.759 261.001 265.906 260.665 265.906 260.239C265.906 259.732 265.759 259.333 265.465 259.043C265.171 258.749 264.764 258.602 264.244 258.602H261.048V261.619ZM261.048 257.298H263.63C264.035 257.298 264.383 257.243 264.672 257.132C264.962 257.017 265.184 256.855 265.337 256.646C265.495 256.433 265.574 256.182 265.574 255.892C265.574 255.479 265.401 255.155 265.056 254.92C264.711 254.682 264.236 254.562 263.63 254.562H261.048V257.298Z" fill="white"/>
</g>
</g>
<defs>
<filter id="filter0_d_25_725" x="0" y="0" width="330" height="311" filterUnits="userSpaceOnUse" color-interpolation-filters="sRGB">
<feFlood flood-opacity="0" result="BackgroundImageFix"/>
<feColorMatrix in="SourceAlpha" type="matrix" values="0 0 0 0 0 0 0 0 0 0 0 0 0 0 0 0 0 0 127 0" result="hardAlpha"/>
<feOffset/>
<feGaussianBlur stdDeviation="5"/>
<feComposite in2="hardAlpha" operator="out"/>
<feColorMatrix type="matrix" values="0 0 0 0 0 0 0 0 0 0 0 0 0 0 0 0 0 0 0.15 0"/>
<feBlend mode="normal" in2="BackgroundImageFix" result="effect1_dropShadow_25_725"/>
<feBlend mode="normal" in="SourceGraphic" in2="effect1_dropShadow_25_725" result="shape"/>
</filter>
<filter id="filter1_f_25_725" x="17" y="-50" width="285" height="285" filterUnits="userSpaceOnUse" color-interpolation-filters="sRGB">
<feFlood flood-opacity="0" result="BackgroundImageFix"/>
<feBlend mode="normal" in="SourceGraphic" in2="BackgroundImageFix" result="shape"/>
<feGaussianBlur stdDeviation="50" result="effect1_foregroundBlur_25_725"/>
</filter>
<linearGradient id="paint0_linear_25_725" x1="65.3559" y1="482.86" x2="430.135" y2="371.827" gradientUnits="userSpaceOnUse">
<stop stop-color="#6900D1"/>
<stop offset="1" stop-color="#CB00D2"/>
</linearGradient>
<clipPath id="clip0_25_725">
<rect x="10" y="10" width="310" height="291" rx="20" fill="white"/>
</clipPath>
</defs>
</svg>
