<svg width="330" height="311" viewBox="0 0 330 311" fill="none" xmlns="http://www.w3.org/2000/svg">
<g filter="url(#filter0_d_25_724)">
<g clip-path="url(#clip0_25_724)">
<rect x="10" y="10" width="310" height="291" rx="20" fill="white"/>
<rect x="10" y="10" width="310" height="291" rx="20" fill="url(#paint0_linear_25_724)"/>
<path d="M126.406 58.9062H129.375V61.875H126.406V58.9062Z" fill="white"/>
<path d="M132.344 58.9062H135.312V61.875H132.344V58.9062Z" fill="white"/>
<path d="M138.281 58.9062H141.25V61.875H138.281V58.9062Z" fill="white"/>
<path d="M173.906 58.9062H176.875V61.875H173.906V58.9062Z" fill="white"/>
<path d="M208.047 88.5938H182.812V54.4531C182.812 54.0594 182.656 53.6819 182.378 53.4035C182.099 53.1251 181.722 52.9688 181.328 52.9688H121.953C121.559 52.9688 121.182 53.1251 120.904 53.4035C120.625 53.6819 120.469 54.0594 120.469 54.4531V104.922C120.469 105.316 120.625 105.693 120.904 105.971C121.182 106.25 121.559 106.406 121.953 106.406H147.188V140.547C147.188 140.941 147.344 141.318 147.622 141.596C147.901 141.875 148.278 142.031 148.672 142.031H208.047C208.441 142.031 208.818 141.875 209.096 141.596C209.375 141.318 209.531 140.941 209.531 140.547V90.0781C209.531 89.6844 209.375 89.3069 209.096 89.0285C208.818 88.7501 208.441 88.5938 208.047 88.5938ZM206.562 100.469H150.156V91.5625H206.562V100.469ZM163.143 88.5938H159.677L161.596 86.6745C161.875 86.3961 162.031 86.0186 162.031 85.625C162.031 85.2314 161.875 84.8539 161.596 84.5755L155.659 78.638L153.56 80.737L158.448 85.625L155.479 88.5938H151.166L153.104 76.9637L150.177 76.4738L148.139 88.7021C147.86 88.808 147.619 88.9963 147.449 89.2421C147.279 89.4878 147.188 89.7794 147.188 90.0781V98.643C144.56 98.0816 142.16 96.7497 140.294 94.8175C138.428 92.8852 137.18 90.4404 136.71 87.7955C136.241 85.1505 136.57 82.4256 137.657 79.9689C138.744 77.5121 140.538 75.4353 142.811 74.0036C145.084 72.572 147.733 71.8506 150.418 71.9317C153.103 72.0128 155.703 72.8927 157.886 74.4589C160.068 76.0251 161.734 78.2065 162.671 80.7243C163.607 83.2421 163.772 85.982 163.143 88.5938ZM179.844 55.9375V64.8438H123.438V55.9375H179.844ZM123.438 103.438V67.8125H179.844V88.5938H166.202C166.791 85.4178 166.424 82.1385 165.149 79.1709C163.874 76.2033 161.747 73.6806 159.037 71.922C156.328 70.1634 153.158 69.2479 149.928 69.2913C146.698 69.3348 143.554 70.3351 140.893 72.1659C138.232 73.9967 136.174 76.5757 134.978 79.5765C133.783 82.5773 133.505 85.8652 134.179 89.0242C134.853 92.1832 136.448 95.0714 138.764 97.3234C141.079 99.5754 144.011 101.09 147.188 101.676V103.438H123.438ZM150.156 139.062V103.438H206.562V139.062H150.156Z" fill="white"/>
<path d="M153.125 94.5312H156.094V97.5H153.125V94.5312Z" fill="white"/>
<path d="M159.062 94.5312H162.031V97.5H159.062V94.5312Z" fill="white"/>
<path d="M165 94.5312H167.969V97.5H165V94.5312Z" fill="white"/>
<path d="M200.625 94.5312H203.594V97.5H200.625V94.5312Z" fill="white"/>
<path d="M199.141 121.25C199.149 118.899 198.364 116.614 196.911 114.765C195.457 112.916 193.423 111.613 191.136 111.066C188.849 110.519 186.444 110.76 184.312 111.751C182.18 112.742 180.445 114.424 179.388 116.525C178.332 118.625 178.016 121.021 178.493 123.324C178.969 125.627 180.209 127.701 182.012 129.21C183.814 130.72 186.074 131.576 188.425 131.64C190.775 131.704 193.078 130.972 194.961 129.563L202.544 137.146L204.643 135.047L197.063 127.461C198.411 125.671 199.141 123.491 199.141 121.25ZM181.328 121.25C181.328 119.782 181.763 118.347 182.579 117.127C183.395 115.906 184.554 114.955 185.91 114.393C187.266 113.831 188.758 113.684 190.198 113.971C191.638 114.257 192.96 114.964 193.998 116.002C195.036 117.04 195.743 118.362 196.029 119.802C196.316 121.242 196.169 122.734 195.607 124.09C195.045 125.447 194.094 126.606 192.873 127.421C191.653 128.237 190.218 128.672 188.75 128.672C186.782 128.67 184.896 127.887 183.505 126.496C182.113 125.104 181.331 123.218 181.328 121.25Z" fill="white"/>
<path d="M144.654 78.6377L138.716 84.5752C138.438 84.8536 138.281 85.231 138.281 85.6246C138.281 86.0183 138.438 86.3957 138.716 86.6741L144.654 92.6116L146.753 90.5127L141.864 85.6246L146.753 80.7366L144.654 78.6377Z" fill="white"/>
<g filter="url(#filter1_f_25_724)">
<circle cx="159.5" cy="92.5" r="42.5" fill="white"/>
</g>
<path d="M54.2094 215V201.909H62.1099V203.315H55.7946V207.406H59.1185C60.056 207.406 60.8464 207.56 61.4899 207.866C62.1376 208.173 62.6277 208.606 62.9601 209.164C63.2967 209.722 63.4651 210.381 63.4651 211.139C63.4651 211.898 63.2967 212.567 62.9601 213.146C62.6277 213.726 62.1376 214.18 61.4899 214.508C60.8464 214.836 60.056 215 59.1185 215H54.2094ZM55.7946 213.619H59.1185C59.7151 213.619 60.22 213.5 60.6334 213.261C61.051 213.018 61.3663 212.707 61.5794 212.328C61.7967 211.945 61.9054 211.54 61.9054 211.114C61.9054 210.487 61.6646 209.948 61.1831 209.496C60.7016 209.04 60.0134 208.812 59.1185 208.812H55.7946V213.619ZM69.9865 215.205C69.0405 215.205 68.2245 214.996 67.5384 214.578C66.8566 214.156 66.3303 213.568 65.9596 212.814C65.5931 212.055 65.4098 211.173 65.4098 210.168C65.4098 209.162 65.5931 208.276 65.9596 207.509C66.3303 206.737 66.8459 206.136 67.5064 205.706C68.1712 205.271 68.9468 205.054 69.8331 205.054C70.3445 205.054 70.8495 205.139 71.348 205.31C71.8466 205.48 72.3005 205.757 72.7096 206.141C73.1186 206.52 73.4446 207.023 73.6875 207.649C73.9304 208.276 74.0519 209.047 74.0519 209.963V210.602H66.4837V209.298H72.5178C72.5178 208.744 72.407 208.25 72.1854 207.815C71.9681 207.381 71.657 207.038 71.2522 206.786C70.8516 206.535 70.3786 206.409 69.8331 206.409C69.2323 206.409 68.7124 206.558 68.2735 206.857C67.8388 207.151 67.5043 207.534 67.2699 208.007C67.0355 208.48 66.9184 208.987 66.9184 209.528V210.398C66.9184 211.139 67.0462 211.768 67.3019 212.283C67.5618 212.795 67.9219 213.185 68.3821 213.453C68.8424 213.717 69.3772 213.849 69.9865 213.849C70.3828 213.849 70.7408 213.794 71.0604 213.683C71.3843 213.568 71.6634 213.398 71.8978 213.172C72.1321 212.942 72.3132 212.656 72.4411 212.315L73.8985 212.724C73.7451 213.219 73.4872 213.653 73.125 214.028C72.7628 214.399 72.3154 214.689 71.7827 214.898C71.25 215.102 70.6513 215.205 69.9865 215.205ZM80.3353 215.205C79.4148 215.205 78.6222 214.987 77.9574 214.553C77.2926 214.118 76.7813 213.519 76.4233 212.756C76.0654 211.994 75.8864 211.122 75.8864 210.142C75.8864 209.145 76.0696 208.265 76.4361 207.502C76.8069 206.735 77.3225 206.136 77.983 205.706C78.6478 205.271 79.4233 205.054 80.3097 205.054C81 205.054 81.6222 205.182 82.1762 205.438C82.7301 205.693 83.184 206.051 83.5377 206.511C83.8914 206.972 84.1108 207.509 84.1961 208.122H82.6875C82.5725 207.675 82.3168 207.278 81.9205 206.933C81.5284 206.584 81 206.409 80.3353 206.409C79.7472 206.409 79.2316 206.562 78.7884 206.869C78.3495 207.172 78.0064 207.6 77.7593 208.154C77.5164 208.704 77.3949 209.349 77.3949 210.091C77.3949 210.849 77.5142 211.51 77.7529 212.072C77.9958 212.635 78.3367 213.072 78.7756 213.383C79.2188 213.694 79.7387 213.849 80.3353 213.849C80.7273 213.849 81.0831 213.781 81.4027 213.645C81.7223 213.509 81.9929 213.312 82.2145 213.057C82.4361 212.801 82.5938 212.494 82.6875 212.136H84.1961C84.1108 212.716 83.8999 213.238 83.5632 213.702C83.2309 214.163 82.7898 214.529 82.2401 214.802C81.6946 215.07 81.0597 215.205 80.3353 215.205ZM86.4013 215V205.182H94.1229V215H92.6144V206.588H87.9098V215H86.4013ZM96.0086 215V213.594H96.3665C96.6605 213.594 96.9056 213.536 97.1016 213.421C97.2976 213.302 97.4553 213.095 97.5746 212.801C97.6982 212.503 97.7919 212.089 97.8559 211.561C97.924 211.028 97.973 210.351 98.0029 209.528L98.1819 205.182H104.727V215H103.219V206.588H99.6137L99.4603 210.091C99.4262 210.896 99.3537 211.606 99.2429 212.219C99.1364 212.829 98.9723 213.34 98.7507 213.754C98.5334 214.167 98.2436 214.478 97.8814 214.687C97.5192 214.896 97.0654 215 96.5199 215H96.0086ZM110.384 215.23C109.762 215.23 109.197 215.113 108.69 214.879C108.183 214.64 107.781 214.297 107.482 213.849C107.184 213.398 107.035 212.852 107.035 212.213C107.035 211.651 107.146 211.195 107.367 210.845C107.589 210.491 107.885 210.214 108.256 210.014C108.626 209.814 109.036 209.665 109.483 209.567C109.935 209.464 110.389 209.384 110.844 209.324C111.441 209.247 111.925 209.19 112.295 209.151C112.67 209.109 112.943 209.038 113.114 208.94C113.288 208.842 113.376 208.672 113.376 208.429V208.378C113.376 207.747 113.203 207.257 112.858 206.908C112.517 206.558 111.999 206.384 111.305 206.384C110.585 206.384 110.02 206.541 109.611 206.857C109.202 207.172 108.914 207.509 108.748 207.866L107.316 207.355C107.572 206.759 107.913 206.294 108.339 205.962C108.769 205.625 109.238 205.391 109.745 205.259C110.256 205.122 110.759 205.054 111.254 205.054C111.569 205.054 111.931 205.092 112.34 205.169C112.754 205.241 113.152 205.393 113.536 205.623C113.923 205.853 114.245 206.2 114.501 206.665C114.756 207.129 114.884 207.751 114.884 208.531V215H113.376V213.67H113.299C113.197 213.884 113.026 214.112 112.788 214.354C112.549 214.597 112.232 214.804 111.835 214.974C111.439 215.145 110.955 215.23 110.384 215.23ZM110.614 213.875C111.211 213.875 111.714 213.758 112.123 213.523C112.536 213.289 112.847 212.987 113.056 212.616C113.269 212.245 113.376 211.855 113.376 211.446V210.065C113.312 210.142 113.171 210.212 112.954 210.276C112.741 210.336 112.494 210.389 112.212 210.436C111.935 210.479 111.665 210.517 111.401 210.551C111.141 210.581 110.93 210.607 110.768 210.628C110.376 210.679 110.009 210.762 109.668 210.877C109.332 210.988 109.059 211.156 108.85 211.382C108.646 211.604 108.543 211.906 108.543 212.29C108.543 212.814 108.737 213.21 109.125 213.479C109.517 213.743 110.014 213.875 110.614 213.875ZM116.302 206.588V205.182H124.279V206.588H121.057V215H119.549V206.588H116.302ZM133.05 209.401V210.807H127.63V209.401H133.05ZM127.988 205.182V215H126.479V205.182H127.988ZM134.201 205.182V215H132.693V205.182H134.201ZM140.945 215.205C140.058 215.205 139.281 214.994 138.612 214.572C137.947 214.15 137.427 213.56 137.052 212.801C136.681 212.043 136.496 211.156 136.496 210.142C136.496 209.119 136.681 208.227 137.052 207.464C137.427 206.701 137.947 206.109 138.612 205.687C139.281 205.265 140.058 205.054 140.945 205.054C141.831 205.054 142.607 205.265 143.271 205.687C143.94 206.109 144.46 206.701 144.831 207.464C145.206 208.227 145.393 209.119 145.393 210.142C145.393 211.156 145.206 212.043 144.831 212.801C144.46 213.56 143.94 214.15 143.271 214.572C142.607 214.994 141.831 215.205 140.945 215.205ZM140.945 213.849C141.618 213.849 142.172 213.677 142.607 213.332C143.041 212.987 143.363 212.533 143.572 211.97C143.781 211.408 143.885 210.798 143.885 210.142C143.885 209.486 143.781 208.874 143.572 208.308C143.363 207.741 143.041 207.283 142.607 206.933C142.172 206.584 141.618 206.409 140.945 206.409C140.271 206.409 139.717 206.584 139.283 206.933C138.848 207.283 138.526 207.741 138.318 208.308C138.109 208.874 138.004 209.486 138.004 210.142C138.004 210.798 138.109 211.408 138.318 211.97C138.526 212.533 138.848 212.987 139.283 213.332C139.717 213.677 140.271 213.849 140.945 213.849ZM151.813 215.205C150.867 215.205 150.051 214.996 149.365 214.578C148.683 214.156 148.156 213.568 147.786 212.814C147.419 212.055 147.236 211.173 147.236 210.168C147.236 209.162 147.419 208.276 147.786 207.509C148.156 206.737 148.672 206.136 149.333 205.706C149.997 205.271 150.773 205.054 151.659 205.054C152.171 205.054 152.676 205.139 153.174 205.31C153.673 205.48 154.127 205.757 154.536 206.141C154.945 206.52 155.271 207.023 155.514 207.649C155.757 208.276 155.878 209.047 155.878 209.963V210.602H148.31V209.298H154.344C154.344 208.744 154.233 208.25 154.012 207.815C153.794 207.381 153.483 207.038 153.078 206.786C152.678 206.535 152.205 206.409 151.659 206.409C151.058 206.409 150.539 206.558 150.1 206.857C149.665 207.151 149.33 207.534 149.096 208.007C148.862 208.48 148.745 208.987 148.745 209.528V210.398C148.745 211.139 148.872 211.768 149.128 212.283C149.388 212.795 149.748 213.185 150.208 213.453C150.669 213.717 151.203 213.849 151.813 213.849C152.209 213.849 152.567 213.794 152.887 213.683C153.21 213.568 153.49 213.398 153.724 213.172C153.958 212.942 154.139 212.656 154.267 212.315L155.725 212.724C155.571 213.219 155.313 213.653 154.951 214.028C154.589 214.399 154.142 214.689 153.609 214.898C153.076 215.102 152.477 215.205 151.813 215.205ZM163.235 218.682V205.182H164.693V206.741H164.872C164.982 206.571 165.136 206.354 165.332 206.089C165.532 205.821 165.818 205.582 166.188 205.374C166.563 205.161 167.071 205.054 167.71 205.054C168.536 205.054 169.265 205.261 169.896 205.674C170.526 206.087 171.019 206.673 171.372 207.432C171.726 208.19 171.903 209.085 171.903 210.116C171.903 211.156 171.726 212.058 171.372 212.82C171.019 213.579 170.529 214.167 169.902 214.585C169.276 214.998 168.553 215.205 167.735 215.205C167.105 215.205 166.6 215.1 166.22 214.891C165.841 214.678 165.549 214.437 165.345 214.169C165.14 213.896 164.982 213.67 164.872 213.491H164.744V218.682H163.235ZM164.718 210.091C164.718 210.832 164.827 211.487 165.044 212.053C165.262 212.616 165.579 213.057 165.997 213.376C166.414 213.692 166.926 213.849 167.531 213.849C168.161 213.849 168.688 213.683 169.11 213.351C169.536 213.014 169.855 212.562 170.068 211.996C170.286 211.425 170.394 210.79 170.394 210.091C170.394 209.401 170.288 208.778 170.075 208.224C169.866 207.666 169.549 207.225 169.122 206.901C168.7 206.573 168.17 206.409 167.531 206.409C166.917 206.409 166.401 206.565 165.984 206.876C165.566 207.183 165.251 207.613 165.038 208.167C164.825 208.717 164.718 209.358 164.718 210.091ZM177.093 215.23C176.471 215.23 175.906 215.113 175.399 214.879C174.892 214.64 174.49 214.297 174.191 213.849C173.893 213.398 173.744 212.852 173.744 212.213C173.744 211.651 173.855 211.195 174.076 210.845C174.298 210.491 174.594 210.214 174.965 210.014C175.335 209.814 175.745 209.665 176.192 209.567C176.644 209.464 177.098 209.384 177.553 209.324C178.15 209.247 178.634 209.19 179.004 209.151C179.379 209.109 179.652 209.038 179.823 208.94C179.997 208.842 180.085 208.672 180.085 208.429V208.378C180.085 207.747 179.912 207.257 179.567 206.908C179.226 206.558 178.708 206.384 178.014 206.384C177.294 206.384 176.729 206.541 176.32 206.857C175.911 207.172 175.623 207.509 175.457 207.866L174.025 207.355C174.281 206.759 174.622 206.294 175.048 205.962C175.478 205.625 175.947 205.391 176.454 205.259C176.965 205.122 177.468 205.054 177.963 205.054C178.278 205.054 178.64 205.092 179.049 205.169C179.463 205.241 179.861 205.393 180.245 205.623C180.632 205.853 180.954 206.2 181.21 206.665C181.465 207.129 181.593 207.751 181.593 208.531V215H180.085V213.67H180.008C179.906 213.884 179.735 214.112 179.497 214.354C179.258 214.597 178.941 214.804 178.544 214.974C178.148 215.145 177.664 215.23 177.093 215.23ZM177.323 213.875C177.92 213.875 178.423 213.758 178.832 213.523C179.245 213.289 179.556 212.987 179.765 212.616C179.978 212.245 180.085 211.855 180.085 211.446V210.065C180.021 210.142 179.88 210.212 179.663 210.276C179.45 210.336 179.203 210.389 178.921 210.436C178.644 210.479 178.374 210.517 178.11 210.551C177.85 210.581 177.639 210.607 177.477 210.628C177.085 210.679 176.718 210.762 176.377 210.877C176.041 210.988 175.768 211.156 175.559 211.382C175.355 211.604 175.252 211.906 175.252 212.29C175.252 212.814 175.446 213.21 175.834 213.479C176.226 213.743 176.723 213.875 177.323 213.875ZM183.733 212.494H185.344C185.378 212.937 185.578 213.274 185.945 213.504C186.315 213.734 186.797 213.849 187.389 213.849C187.994 213.849 188.512 213.726 188.943 213.479C189.373 213.227 189.588 212.822 189.588 212.264C189.588 211.936 189.507 211.651 189.345 211.408C189.183 211.161 188.955 210.969 188.661 210.832C188.367 210.696 188.02 210.628 187.619 210.628H185.932V209.273H187.619C188.22 209.273 188.663 209.136 188.949 208.864C189.239 208.591 189.384 208.25 189.384 207.841C189.384 207.402 189.228 207.05 188.917 206.786C188.606 206.518 188.165 206.384 187.594 206.384C187.018 206.384 186.539 206.513 186.156 206.773C185.772 207.029 185.57 207.359 185.548 207.764H183.963C183.98 207.236 184.142 206.769 184.449 206.364C184.756 205.955 185.173 205.636 185.702 205.406C186.23 205.171 186.835 205.054 187.517 205.054C188.207 205.054 188.806 205.175 189.313 205.418C189.825 205.657 190.219 205.983 190.496 206.396C190.777 206.805 190.918 207.27 190.918 207.79C190.918 208.344 190.762 208.791 190.451 209.132C190.14 209.473 189.75 209.716 189.281 209.861V209.963C189.652 209.989 189.974 210.108 190.246 210.321C190.523 210.53 190.739 210.805 190.892 211.146C191.045 211.482 191.122 211.855 191.122 212.264C191.122 212.861 190.962 213.381 190.643 213.824C190.323 214.263 189.884 214.604 189.326 214.847C188.768 215.085 188.131 215.205 187.415 215.205C186.72 215.205 186.098 215.092 185.548 214.866C184.999 214.636 184.562 214.318 184.238 213.913C183.918 213.504 183.75 213.031 183.733 212.494ZM198.61 212.955L202.037 205.182H203.468L199.224 215H197.997L193.829 205.182H195.235L198.61 212.955ZM194.75 205.182V215H193.241V205.182H194.75ZM202.471 215V205.182H203.98V215H202.471ZM210.858 215.205C209.912 215.205 209.096 214.996 208.409 214.578C207.728 214.156 207.201 213.568 206.831 212.814C206.464 212.055 206.281 211.173 206.281 210.168C206.281 209.162 206.464 208.276 206.831 207.509C207.201 206.737 207.717 206.136 208.378 205.706C209.042 205.271 209.818 205.054 210.704 205.054C211.216 205.054 211.721 205.139 212.219 205.31C212.718 205.48 213.172 205.757 213.581 206.141C213.99 206.52 214.316 207.023 214.559 207.649C214.802 208.276 214.923 209.047 214.923 209.963V210.602H207.355V209.298H213.389C213.389 208.744 213.278 208.25 213.056 207.815C212.839 207.381 212.528 207.038 212.123 206.786C211.723 206.535 211.25 206.409 210.704 206.409C210.103 206.409 209.583 206.558 209.145 206.857C208.71 207.151 208.375 207.534 208.141 208.007C207.907 208.48 207.789 208.987 207.789 209.528V210.398C207.789 211.139 207.917 211.768 208.173 212.283C208.433 212.795 208.793 213.185 209.253 213.453C209.713 213.717 210.248 213.849 210.858 213.849C211.254 213.849 211.612 213.794 211.931 213.683C212.255 213.568 212.534 213.398 212.769 213.172C213.003 212.942 213.184 212.656 213.312 212.315L214.77 212.724C214.616 213.219 214.358 213.653 213.996 214.028C213.634 214.399 213.186 214.689 212.654 214.898C212.121 215.102 211.522 215.205 210.858 215.205ZM230.615 213.594L230.436 217.812H228.877V215H227.598V213.594H230.615ZM217.218 205.182H218.726V213.594H222.434V205.182H223.942V213.594H227.65V205.182H229.158V215H217.218V205.182ZM236.821 215.205C235.875 215.205 235.058 214.996 234.372 214.578C233.691 214.156 233.164 213.568 232.794 212.814C232.427 212.055 232.244 211.173 232.244 210.168C232.244 209.162 232.427 208.276 232.794 207.509C233.164 206.737 233.68 206.136 234.34 205.706C235.005 205.271 235.781 205.054 236.667 205.054C237.178 205.054 237.683 205.139 238.182 205.31C238.681 205.48 239.134 205.757 239.544 206.141C239.953 206.52 240.279 207.023 240.522 207.649C240.764 208.276 240.886 209.047 240.886 209.963V210.602H233.318V209.298H239.352C239.352 208.744 239.241 208.25 239.019 207.815C238.802 207.381 238.491 207.038 238.086 206.786C237.686 206.535 237.213 206.409 236.667 206.409C236.066 206.409 235.546 206.558 235.107 206.857C234.673 207.151 234.338 207.534 234.104 208.007C233.87 208.48 233.752 208.987 233.752 209.528V210.398C233.752 211.139 233.88 211.768 234.136 212.283C234.396 212.795 234.756 213.185 235.216 213.453C235.676 213.717 236.211 213.849 236.821 213.849C237.217 213.849 237.575 213.794 237.894 213.683C238.218 213.568 238.497 213.398 238.732 213.172C238.966 212.942 239.147 212.656 239.275 212.315L240.732 212.724C240.579 213.219 240.321 213.653 239.959 214.028C239.597 214.399 239.149 214.689 238.617 214.898C238.084 215.102 237.485 215.205 236.821 215.205ZM249.752 209.401V210.807H244.331V209.401H249.752ZM244.689 205.182V215H243.181V205.182H244.689ZM250.902 205.182V215H249.394V205.182H250.902ZM255.166 212.776L259.896 205.182H261.634V215H260.126V207.406L255.421 215H253.657V205.182H255.166V212.776ZM268.514 215.205C267.568 215.205 266.752 214.996 266.066 214.578C265.384 214.156 264.858 213.568 264.487 212.814C264.12 212.055 263.937 211.173 263.937 210.168C263.937 209.162 264.12 208.276 264.487 207.509C264.858 206.737 265.373 206.136 266.034 205.706C266.699 205.271 267.474 205.054 268.36 205.054C268.872 205.054 269.377 205.139 269.875 205.31C270.374 205.48 270.828 205.757 271.237 206.141C271.646 206.52 271.972 207.023 272.215 207.649C272.458 208.276 272.579 209.047 272.579 209.963V210.602H265.011V209.298H271.045C271.045 208.744 270.934 208.25 270.713 207.815C270.495 207.381 270.184 207.038 269.78 206.786C269.379 206.535 268.906 206.409 268.36 206.409C267.76 206.409 267.24 206.558 266.801 206.857C266.366 207.151 266.032 207.534 265.797 208.007C265.563 208.48 265.446 208.987 265.446 209.528V210.398C265.446 211.139 265.574 211.768 265.829 212.283C266.089 212.795 266.449 213.185 266.909 213.453C267.37 213.717 267.905 213.849 268.514 213.849C268.91 213.849 269.268 213.794 269.588 213.683C269.912 213.568 270.191 213.398 270.425 213.172C270.659 212.942 270.841 212.656 270.968 212.315L272.426 212.724C272.272 213.219 272.015 213.653 271.652 214.028C271.29 214.399 270.843 214.689 270.31 214.898C269.777 215.102 269.179 215.205 268.514 215.205ZM129.125 239V229.182H133.139C134.196 229.182 135.035 229.42 135.658 229.898C136.28 230.375 136.591 231.006 136.591 231.79C136.591 232.386 136.414 232.849 136.06 233.177C135.707 233.501 135.253 233.72 134.699 233.835C135.061 233.886 135.413 234.014 135.753 234.219C136.099 234.423 136.384 234.705 136.61 235.062C136.836 235.416 136.949 235.851 136.949 236.366C136.949 236.869 136.821 237.319 136.565 237.715C136.31 238.112 135.943 238.425 135.466 238.655C134.989 238.885 134.418 239 133.753 239H129.125ZM130.557 237.619H133.753C134.273 237.619 134.68 237.496 134.974 237.249C135.268 237.001 135.415 236.665 135.415 236.239C135.415 235.732 135.268 235.333 134.974 235.043C134.68 234.749 134.273 234.602 133.753 234.602H130.557V237.619ZM130.557 233.298H133.139C133.544 233.298 133.891 233.243 134.181 233.132C134.471 233.017 134.692 232.855 134.846 232.646C135.003 232.433 135.082 232.182 135.082 231.892C135.082 231.479 134.91 231.155 134.565 230.92C134.219 230.682 133.744 230.562 133.139 230.562H130.557V233.298ZM148.284 239.205C147.363 239.205 146.57 238.987 145.906 238.553C145.241 238.118 144.73 237.519 144.372 236.756C144.014 235.994 143.835 235.122 143.835 234.142C143.835 233.145 144.018 232.265 144.384 231.502C144.755 230.735 145.271 230.136 145.931 229.706C146.596 229.271 147.372 229.054 148.258 229.054C148.948 229.054 149.57 229.182 150.124 229.438C150.678 229.693 151.132 230.051 151.486 230.511C151.84 230.972 152.059 231.509 152.144 232.122H150.636C150.521 231.675 150.265 231.278 149.869 230.933C149.477 230.584 148.948 230.409 148.284 230.409C147.695 230.409 147.18 230.562 146.737 230.869C146.298 231.172 145.955 231.6 145.708 232.154C145.465 232.704 145.343 233.349 145.343 234.091C145.343 234.849 145.462 235.51 145.701 236.072C145.944 236.635 146.285 237.072 146.724 237.383C147.167 237.694 147.687 237.849 148.284 237.849C148.676 237.849 149.031 237.781 149.351 237.645C149.671 237.509 149.941 237.312 150.163 237.057C150.384 236.801 150.542 236.494 150.636 236.136H152.144C152.059 236.716 151.848 237.238 151.511 237.702C151.179 238.163 150.738 238.529 150.188 238.802C149.643 239.07 149.008 239.205 148.284 239.205ZM153.576 230.588V229.182H161.553V230.588H158.332V239H156.823V230.588H153.576ZM167.233 239.205C166.346 239.205 165.569 238.994 164.9 238.572C164.235 238.15 163.715 237.56 163.34 236.801C162.969 236.043 162.784 235.156 162.784 234.142C162.784 233.119 162.969 232.227 163.34 231.464C163.715 230.701 164.235 230.109 164.9 229.687C165.569 229.265 166.346 229.054 167.233 229.054C168.119 229.054 168.895 229.265 169.559 229.687C170.228 230.109 170.748 230.701 171.119 231.464C171.494 232.227 171.682 233.119 171.682 234.142C171.682 235.156 171.494 236.043 171.119 236.801C170.748 237.56 170.228 238.15 169.559 238.572C168.895 238.994 168.119 239.205 167.233 239.205ZM167.233 237.849C167.906 237.849 168.46 237.677 168.895 237.332C169.329 236.987 169.651 236.533 169.86 235.97C170.069 235.408 170.173 234.798 170.173 234.142C170.173 233.486 170.069 232.874 169.86 232.308C169.651 231.741 169.329 231.283 168.895 230.933C168.46 230.584 167.906 230.409 167.233 230.409C166.559 230.409 166.005 230.584 165.571 230.933C165.136 231.283 164.814 231.741 164.606 232.308C164.397 232.874 164.292 233.486 164.292 234.142C164.292 234.798 164.397 235.408 164.606 235.97C164.814 236.533 165.136 236.987 165.571 237.332C166.005 237.677 166.559 237.849 167.233 237.849ZM173.984 242.682V229.182H175.442V230.741H175.621C175.731 230.571 175.885 230.354 176.081 230.089C176.281 229.821 176.567 229.582 176.937 229.374C177.312 229.161 177.82 229.054 178.459 229.054C179.285 229.054 180.014 229.261 180.645 229.674C181.276 230.087 181.768 230.673 182.121 231.432C182.475 232.19 182.652 233.085 182.652 234.116C182.652 235.156 182.475 236.058 182.121 236.82C181.768 237.579 181.278 238.167 180.651 238.585C180.025 238.998 179.303 239.205 178.484 239.205C177.854 239.205 177.349 239.1 176.969 238.891C176.59 238.678 176.298 238.437 176.094 238.169C175.889 237.896 175.731 237.67 175.621 237.491H175.493V242.682H173.984ZM175.467 234.091C175.467 234.832 175.576 235.487 175.793 236.053C176.011 236.616 176.328 237.057 176.746 237.376C177.163 237.692 177.675 237.849 178.28 237.849C178.91 237.849 179.437 237.683 179.859 237.351C180.285 237.014 180.604 236.562 180.817 235.996C181.035 235.425 181.143 234.79 181.143 234.091C181.143 233.401 181.037 232.778 180.824 232.224C180.615 231.666 180.298 231.225 179.871 230.901C179.45 230.573 178.919 230.409 178.28 230.409C177.666 230.409 177.151 230.565 176.733 230.876C176.315 231.183 176 231.613 175.787 232.167C175.574 232.717 175.467 233.358 175.467 234.091ZM187.842 239.23C187.22 239.23 186.655 239.113 186.148 238.879C185.641 238.64 185.239 238.297 184.94 237.849C184.642 237.398 184.493 236.852 184.493 236.213C184.493 235.651 184.604 235.195 184.825 234.845C185.047 234.491 185.343 234.214 185.714 234.014C186.084 233.814 186.494 233.665 186.941 233.567C187.393 233.464 187.847 233.384 188.303 233.324C188.899 233.247 189.383 233.19 189.753 233.151C190.128 233.109 190.401 233.038 190.572 232.94C190.746 232.842 190.834 232.672 190.834 232.429V232.378C190.834 231.747 190.661 231.257 190.316 230.908C189.975 230.558 189.457 230.384 188.763 230.384C188.043 230.384 187.478 230.541 187.069 230.857C186.66 231.172 186.372 231.509 186.206 231.866L184.774 231.355C185.03 230.759 185.371 230.294 185.797 229.962C186.227 229.625 186.696 229.391 187.203 229.259C187.714 229.122 188.217 229.054 188.712 229.054C189.027 229.054 189.389 229.092 189.798 229.169C190.212 229.241 190.61 229.393 190.994 229.623C191.381 229.853 191.703 230.2 191.959 230.665C192.214 231.129 192.342 231.751 192.342 232.531V239H190.834V237.67H190.757C190.655 237.884 190.484 238.112 190.246 238.354C190.007 238.597 189.69 238.804 189.293 238.974C188.897 239.145 188.413 239.23 187.842 239.23ZM188.072 237.875C188.669 237.875 189.172 237.758 189.581 237.523C189.994 237.289 190.305 236.987 190.514 236.616C190.727 236.245 190.834 235.855 190.834 235.446V234.065C190.77 234.142 190.629 234.212 190.412 234.276C190.199 234.336 189.952 234.389 189.67 234.436C189.393 234.479 189.123 234.517 188.859 234.551C188.599 234.581 188.388 234.607 188.226 234.628C187.834 234.679 187.467 234.762 187.126 234.877C186.79 234.988 186.517 235.156 186.308 235.382C186.104 235.604 186.001 235.906 186.001 236.29C186.001 236.814 186.195 237.21 186.583 237.479C186.975 237.743 187.472 237.875 188.072 237.875ZM196.221 229.182L198.573 233.196L200.925 229.182H202.664L199.493 234.091L202.664 239H200.925L198.573 235.19L196.221 239H194.482L197.601 234.091L194.482 229.182H196.221Z" fill="white"/>
</g>
</g>
<defs>
<filter id="filter0_d_25_724" x="0" y="0" width="330" height="311" filterUnits="userSpaceOnUse" color-interpolation-filters="sRGB">
<feFlood flood-opacity="0" result="BackgroundImageFix"/>
<feColorMatrix in="SourceAlpha" type="matrix" values="0 0 0 0 0 0 0 0 0 0 0 0 0 0 0 0 0 0 127 0" result="hardAlpha"/>
<feOffset/>
<feGaussianBlur stdDeviation="5"/>
<feComposite in2="hardAlpha" operator="out"/>
<feColorMatrix type="matrix" values="0 0 0 0 0 0 0 0 0 0 0 0 0 0 0 0 0 0 0.15 0"/>
<feBlend mode="normal" in2="BackgroundImageFix" result="effect1_dropShadow_25_724"/>
<feBlend mode="normal" in="SourceGraphic" in2="effect1_dropShadow_25_724" result="shape"/>
</filter>
<filter id="filter1_f_25_724" x="17" y="-50" width="285" height="285" filterUnits="userSpaceOnUse" color-interpolation-filters="sRGB">
<feFlood flood-opacity="0" result="BackgroundImageFix"/>
<feBlend mode="normal" in="SourceGraphic" in2="BackgroundImageFix" result="shape"/>
<feGaussianBlur stdDeviation="50" result="effect1_foregroundBlur_25_724"/>
</filter>
<linearGradient id="paint0_linear_25_724" x1="165" y1="10" x2="165" y2="301" gradientUnits="userSpaceOnUse">
<stop stop-color="#008CD2"/>
<stop offset="1" stop-color="#00C7D1"/>
</linearGradient>
<clipPath id="clip0_25_724">
<rect x="10" y="10" width="310" height="291" rx="20" fill="white"/>
</clipPath>
</defs>
</svg>
