<svg width="330" height="311" viewBox="0 0 330 311" fill="none" xmlns="http://www.w3.org/2000/svg">
<g filter="url(#filter0_d_25_793)">
<g clip-path="url(#clip0_25_793)">
<rect x="10" y="10" width="310" height="291" rx="20" fill="white"/>
<rect x="10" y="10" width="310" height="291" rx="20" fill="url(#paint0_linear_25_793)"/>
<path d="M191.719 121.25V127.188H138.281V121.25H135.312V133.125C135.312 135.487 136.251 137.752 137.921 139.423C139.591 141.093 141.857 142.031 144.219 142.031H185.781C188.143 142.031 190.409 141.093 192.079 139.423C193.749 137.752 194.688 135.487 194.688 133.125V121.25H191.719ZM191.719 133.125C191.719 134.7 191.093 136.21 189.98 137.323C188.866 138.437 187.356 139.062 185.781 139.062H144.219C142.644 139.062 141.134 138.437 140.02 137.323C138.907 136.21 138.281 134.7 138.281 133.125V130.156H191.719V133.125Z" fill="white"/>
<path d="M185.781 52.9688H144.219C141.857 52.9688 139.591 53.9071 137.921 55.5773C136.251 57.2476 135.312 59.5129 135.312 61.875V82.6562H138.281V67.8125H191.719V82.6562H194.688V61.875C194.688 59.5129 193.749 57.2476 192.079 55.5773C190.409 53.9071 188.143 52.9688 185.781 52.9688ZM191.719 64.8438H138.281V61.875C138.281 60.3003 138.907 58.7901 140.02 57.6766C141.134 56.5631 142.644 55.9375 144.219 55.9375H185.781C187.356 55.9375 188.866 56.5631 189.98 57.6766C191.093 58.7901 191.719 60.3003 191.719 61.875V64.8438Z" fill="white"/>
<path d="M154.609 58.9062H157.578V61.875H154.609V58.9062Z" fill="white"/>
<path d="M160.547 58.9062H169.453V61.875H160.547V58.9062Z" fill="white"/>
<path d="M163.516 133.125H166.484V136.094H163.516V133.125Z" fill="white"/>
<path d="M177.234 88.6383L174.76 88.0178C174.654 87.7289 174.537 87.4448 174.408 87.1658L175.72 84.9778C175.89 84.6939 175.96 84.3614 175.92 84.0331C175.879 83.7047 175.73 83.3993 175.496 83.1654L173.397 81.0665C173.163 80.8325 172.858 80.6833 172.529 80.6427C172.201 80.6021 171.869 80.6724 171.585 80.8423L169.397 82.1545C169.118 82.0259 168.834 81.9086 168.545 81.8027L167.924 79.3283C167.844 79.007 167.659 78.7218 167.398 78.5179C167.137 78.314 166.815 78.2032 166.484 78.2031H163.516C163.185 78.2032 162.863 78.314 162.602 78.5179C162.341 78.7218 162.156 79.007 162.076 79.3283L161.455 81.8027C161.166 81.9076 160.882 82.0249 160.603 82.1545L158.415 80.8423C158.131 80.6724 157.799 80.6021 157.471 80.6427C157.142 80.6833 156.837 80.8325 156.603 81.0665L154.504 83.1654C154.27 83.3993 154.121 83.7047 154.08 84.0331C154.04 84.3614 154.11 84.6939 154.28 84.9778L155.592 87.1658C155.463 87.4448 155.346 87.7289 155.24 88.0178L152.766 88.6383C152.445 88.7184 152.159 88.9037 151.955 89.1645C151.752 89.4254 151.641 89.747 151.641 90.0781V93.0469C151.641 93.378 151.752 93.6996 151.955 93.9605C152.159 94.2213 152.445 94.4066 152.766 94.4867L155.24 95.1072C155.345 95.3961 155.462 95.6802 155.592 95.9592L154.28 98.1457C154.11 98.4296 154.04 98.7621 154.08 99.0905C154.121 99.4188 154.27 99.7242 154.504 99.9581L156.603 102.059C156.837 102.293 157.142 102.442 157.471 102.482C157.799 102.523 158.131 102.453 158.415 102.283L160.603 100.97C160.882 101.099 161.166 101.216 161.455 101.322L162.076 103.797C162.156 104.118 162.341 104.403 162.602 104.607C162.863 104.811 163.185 104.922 163.516 104.922H166.484C166.815 104.922 167.137 104.811 167.398 104.607C167.659 104.403 167.844 104.118 167.924 103.797L168.545 101.322C168.834 101.216 169.118 101.099 169.397 100.97L171.585 102.283C171.869 102.453 172.201 102.523 172.529 102.482C172.858 102.442 173.163 102.293 173.397 102.059L175.496 99.9581C175.73 99.7242 175.879 99.4188 175.92 99.0905C175.96 98.7621 175.89 98.4296 175.72 98.1457L174.408 95.9592C174.537 95.6802 174.654 95.3961 174.76 95.1072L177.234 94.4867C177.555 94.4066 177.841 94.2213 178.045 93.9605C178.248 93.6996 178.359 93.378 178.359 93.0469V90.0781C178.359 89.747 178.248 89.4254 178.045 89.1645C177.841 88.9037 177.555 88.7184 177.234 88.6383ZM175.391 91.8891L173.235 92.4279C172.978 92.4918 172.743 92.6232 172.554 92.8085C172.366 92.9938 172.23 93.2263 172.161 93.4818C171.992 94.1054 171.743 94.7043 171.418 95.263C171.285 95.4926 171.216 95.7535 171.219 96.0187C171.221 96.284 171.294 96.5438 171.43 96.7712L172.57 98.6875L172.11 99.1462L170.206 98.0047C169.978 97.8681 169.718 97.795 169.453 97.7929C169.188 97.7909 168.927 97.8599 168.698 97.9928C168.139 98.3169 167.54 98.5665 166.916 98.735C166.661 98.8039 166.428 98.9399 166.243 99.1289C166.058 99.3178 165.926 99.5529 165.862 99.8097L165.327 101.953H164.673L164.135 99.7978C164.071 99.541 163.939 99.3059 163.754 99.117C163.569 98.928 163.336 98.792 163.081 98.7231C162.457 98.5546 161.858 98.3051 161.299 97.9809C161.07 97.848 160.809 97.779 160.544 97.7811C160.279 97.7832 160.019 97.8563 159.791 97.9928L157.887 99.1343L157.43 98.6875L158.573 96.783C158.709 96.5557 158.782 96.2958 158.784 96.0306C158.786 95.7654 158.717 95.5044 158.585 95.2749C158.26 94.7161 158.011 94.1173 157.842 93.4937C157.773 93.2381 157.637 93.0057 157.448 92.8204C157.26 92.6351 157.024 92.5037 156.768 92.4398L154.609 91.8891V91.2359L156.765 90.6971C157.022 90.6332 157.257 90.5018 157.446 90.3165C157.634 90.1312 157.77 89.8987 157.839 89.6432C158.008 89.0196 158.257 88.4207 158.582 87.862C158.715 87.6324 158.784 87.3715 158.781 87.1063C158.779 86.841 158.706 86.5812 158.57 86.3538L157.427 84.4494L157.887 83.9892L159.791 85.1322C160.019 85.2687 160.279 85.3418 160.544 85.3439C160.809 85.346 161.07 85.277 161.299 85.1441C161.858 84.8199 162.457 84.5704 163.081 84.4019C163.336 84.333 163.569 84.197 163.754 84.008C163.939 83.8191 164.071 83.584 164.135 83.3272L164.673 81.1719H165.327L165.865 83.3272C165.929 83.584 166.061 83.8191 166.246 84.008C166.431 84.197 166.664 84.333 166.919 84.4019C167.543 84.5704 168.142 84.8199 168.701 85.1441C168.93 85.277 169.191 85.346 169.456 85.3439C169.721 85.3418 169.981 85.2687 170.209 85.1322L172.125 83.9922L172.585 84.4523L171.442 86.3568C171.306 86.5842 171.233 86.844 171.23 87.1092C171.228 87.3745 171.297 87.6354 171.43 87.8649C171.754 88.4237 172.004 89.0226 172.173 89.6462C172.241 89.9017 172.377 90.1341 172.566 90.3194C172.755 90.5047 172.99 90.6362 173.247 90.7001L175.391 91.2359V91.8891Z" fill="white"/>
<path d="M165 87.1094C164.119 87.1094 163.258 87.3705 162.526 87.8599C161.794 88.3492 161.223 89.0447 160.886 89.8584C160.549 90.6721 160.461 91.5674 160.632 92.4313C160.804 93.2951 161.228 94.0886 161.851 94.7113C162.474 95.3341 163.267 95.7582 164.131 95.9301C164.995 96.1019 165.89 96.0137 166.704 95.6767C167.518 95.3396 168.213 94.7688 168.703 94.0365C169.192 93.3042 169.453 92.4432 169.453 91.5625C169.453 90.3815 168.984 89.2488 168.149 88.4137C167.314 87.5785 166.181 87.1094 165 87.1094ZM165 93.0469C164.706 93.0469 164.419 92.9598 164.175 92.7967C163.931 92.6336 163.741 92.4018 163.629 92.1305C163.516 91.8593 163.487 91.5609 163.544 91.2729C163.601 90.985 163.743 90.7205 163.95 90.5129C164.158 90.3053 164.422 90.1639 164.71 90.1066C164.998 90.0494 165.297 90.0788 165.568 90.1911C165.839 90.3035 166.071 90.4937 166.234 90.7378C166.397 90.9819 166.484 91.2689 166.484 91.5625C166.484 91.9562 166.328 92.3337 166.05 92.6121C165.771 92.8905 165.394 93.0469 165 93.0469Z" fill="white"/>
<path d="M153.125 113.828H150.156C150.156 114.222 150 114.599 149.721 114.878C149.443 115.156 149.066 115.312 148.672 115.312H124.922C124.528 115.312 124.151 115.156 123.872 114.878C123.594 114.599 123.438 114.222 123.438 113.828V90.0781C123.438 89.6844 123.594 89.3069 123.872 89.0285C124.151 88.7501 124.528 88.5938 124.922 88.5938H142.734V85.625H124.922C123.741 85.625 122.608 86.0942 121.773 86.9293C120.938 87.7644 120.469 88.8971 120.469 90.0781V113.828C120.469 115.009 120.938 116.142 121.773 116.977C122.608 117.812 123.741 118.281 124.922 118.281H148.672C149.853 118.281 150.986 117.812 151.821 116.977C152.656 116.142 153.125 115.009 153.125 113.828Z" fill="white"/>
<path d="M135.312 97.5H138.281C138.675 97.5 139.052 97.6564 139.331 97.9348C139.609 98.2131 139.766 98.5907 139.766 98.9844H142.734C142.734 97.8033 142.265 96.6707 141.43 95.8355C140.595 95.0004 139.462 94.5312 138.281 94.5312V93.0469H135.312V94.5312C134.131 94.5312 132.999 95.0004 132.164 95.8355C131.329 96.6707 130.859 97.8033 130.859 98.9844C130.859 100.165 131.329 101.298 132.164 102.133C132.999 102.968 134.131 103.438 135.312 103.438H138.281C138.675 103.438 139.052 103.594 139.331 103.872C139.609 104.151 139.766 104.528 139.766 104.922C139.766 105.316 139.609 105.693 139.331 105.971C139.052 106.25 138.675 106.406 138.281 106.406H135.312C134.919 106.406 134.541 106.25 134.263 105.971C133.985 105.693 133.828 105.316 133.828 104.922H130.859C130.859 106.103 131.329 107.236 132.164 108.071C132.999 108.906 134.131 109.375 135.312 109.375V110.859H138.281V109.375C139.462 109.375 140.595 108.906 141.43 108.071C142.265 107.236 142.734 106.103 142.734 104.922C142.734 103.741 142.265 102.608 141.43 101.773C140.595 100.938 139.462 100.469 138.281 100.469H135.312C134.919 100.469 134.541 100.312 134.263 100.034C133.985 99.7556 133.828 99.3781 133.828 98.9844C133.828 98.5907 133.985 98.2131 134.263 97.9348C134.541 97.6564 134.919 97.5 135.312 97.5Z" fill="white"/>
<path d="M205.078 85.625H187.266V88.5938H205.078C205.472 88.5938 205.849 88.7501 206.128 89.0285C206.406 89.3069 206.562 89.6844 206.562 90.0781V113.828C206.562 114.222 206.406 114.599 206.128 114.878C205.849 115.156 205.472 115.312 205.078 115.312H181.328C180.934 115.312 180.557 115.156 180.279 114.878C180 114.599 179.844 114.222 179.844 113.828H176.875C176.875 115.009 177.344 116.142 178.179 116.977C179.014 117.812 180.147 118.281 181.328 118.281H205.078C206.259 118.281 207.392 117.812 208.227 116.977C209.062 116.142 209.531 115.009 209.531 113.828V90.0781C209.531 88.8971 209.062 87.7644 208.227 86.9293C207.392 86.0942 206.259 85.625 205.078 85.625Z" fill="white"/>
<path d="M204.841 107.03L199.452 101.641C199.172 101.363 198.793 101.207 198.398 101.207C198.004 101.207 197.625 101.363 197.345 101.641L194.702 104.298C194.523 104.488 194.296 104.625 194.045 104.696C193.794 104.767 193.529 104.768 193.277 104.699C192.623 104.477 192.028 104.106 191.539 103.617C191.05 103.128 190.68 102.534 190.457 101.879C190.389 101.627 190.39 101.362 190.46 101.111C190.531 100.86 190.668 100.633 190.858 100.454L193.515 97.8117C193.793 97.5315 193.949 97.1526 193.949 96.7578C193.949 96.363 193.793 95.9842 193.515 95.7039L188.127 90.3156C187.862 90.0562 187.512 89.9036 187.142 89.8871C186.772 89.8707 186.409 89.9916 186.123 90.2266C185.455 90.8001 184.843 91.4364 184.297 92.1266V76.7188C184.293 75.5388 183.823 74.4082 182.989 73.5738C182.154 72.7394 181.024 72.2691 179.844 72.2656H150.156C148.976 72.2691 147.846 72.7394 147.011 73.5738C146.177 74.4082 145.707 75.5388 145.703 76.7188V106.406C145.707 107.586 146.177 108.717 147.011 109.551C147.846 110.386 148.976 110.856 150.156 110.859H179.844C180.69 110.855 181.518 110.61 182.23 110.152C182.943 109.695 183.51 109.044 183.866 108.277C184.929 109.748 186.28 110.988 187.836 111.922C189.393 112.856 191.123 113.464 192.921 113.709C193.502 113.786 194.087 113.826 194.673 113.828C196.63 113.832 198.563 113.404 200.336 112.575C202.109 111.746 203.677 110.537 204.93 109.034C205.165 108.747 205.286 108.384 205.269 108.015C205.253 107.645 205.1 107.294 204.841 107.03ZM181.328 106.406C181.328 106.8 181.172 107.177 180.893 107.456C180.615 107.734 180.237 107.891 179.844 107.891H150.156C149.763 107.891 149.385 107.734 149.107 107.456C148.828 107.177 148.672 106.8 148.672 106.406V76.7188C148.672 76.3251 148.828 75.9475 149.107 75.6691C149.385 75.3908 149.763 75.2344 150.156 75.2344H179.844C180.237 75.2344 180.615 75.3908 180.893 75.6691C181.172 75.9475 181.328 76.3251 181.328 76.7188V106.406ZM187.043 93.4328L190.368 96.7578L188.765 98.3609C188.75 98.3609 188.75 98.3609 188.75 98.3758L185.677 95.3031C186.067 94.6341 186.524 94.0073 187.043 93.4328ZM193.292 110.77C191.041 110.456 188.954 109.416 187.347 107.809C185.74 106.202 184.701 104.115 184.386 101.864C184.236 100.692 184.281 99.5033 184.52 98.3461L187.459 101.27C187.419 101.797 187.485 102.327 187.652 102.829C188.016 103.919 188.63 104.91 189.444 105.722C190.258 106.533 191.251 107.144 192.342 107.505C192.838 107.672 193.364 107.738 193.886 107.698L196.81 110.637C195.653 110.875 194.464 110.92 193.292 110.77ZM199.853 109.479L196.78 106.406C196.795 106.406 196.795 106.406 196.795 106.391L198.398 104.788L201.723 108.113C201.149 108.632 200.522 109.09 199.853 109.479Z" fill="white"/>
<g filter="url(#filter1_f_25_793)">
<circle cx="159.5" cy="92.5" r="42.5" fill="white"/>
</g>
<path d="M75.5278 206H73.9425C73.8488 205.544 73.6847 205.143 73.4504 204.798C73.2202 204.453 72.939 204.163 72.6066 203.929C72.2785 203.69 71.9141 203.511 71.5136 203.392C71.113 203.273 70.6954 203.213 70.2607 203.213C69.4681 203.213 68.7501 203.413 68.1066 203.814C67.4674 204.214 66.9582 204.805 66.5789 205.585C66.2039 206.364 66.0164 207.321 66.0164 208.455C66.0164 209.588 66.2039 210.545 66.5789 211.325C66.9582 212.104 67.4674 212.695 68.1066 213.095C68.7501 213.496 69.4681 213.696 70.2607 213.696C70.6954 213.696 71.113 213.636 71.5136 213.517C71.9141 213.398 72.2785 213.221 72.6066 212.987C72.939 212.748 73.2202 212.456 73.4504 212.111C73.6847 211.761 73.8488 211.361 73.9425 210.909H75.5278C75.4084 211.578 75.1911 212.177 74.8758 212.705C74.5604 213.234 74.1684 213.683 73.6996 214.054C73.2309 214.42 72.7046 214.7 72.1208 214.891C71.5413 215.083 70.9212 215.179 70.2607 215.179C69.1442 215.179 68.1513 214.906 67.282 214.361C66.4127 213.815 65.7288 213.04 65.2302 212.034C64.7316 211.028 64.4823 209.835 64.4823 208.455C64.4823 207.074 64.7316 205.881 65.2302 204.875C65.7288 203.869 66.4127 203.094 67.282 202.548C68.1513 202.003 69.1442 201.73 70.2607 201.73C70.9212 201.73 71.5413 201.826 72.1208 202.018C72.7046 202.21 73.2309 202.491 73.6996 202.862C74.1684 203.228 74.5604 203.675 74.8758 204.204C75.1911 204.728 75.4084 205.327 75.5278 206ZM81.8735 215.205C80.9871 215.205 80.2094 214.994 79.5404 214.572C78.8756 214.15 78.3557 213.56 77.9807 212.801C77.61 212.043 77.4246 211.156 77.4246 210.142C77.4246 209.119 77.61 208.227 77.9807 207.464C78.3557 206.701 78.8756 206.109 79.5404 205.687C80.2094 205.265 80.9871 205.054 81.8735 205.054C82.7598 205.054 83.5354 205.265 84.2002 205.687C84.8692 206.109 85.3891 206.701 85.7598 207.464C86.1348 208.227 86.3223 209.119 86.3223 210.142C86.3223 211.156 86.1348 212.043 85.7598 212.801C85.3891 213.56 84.8692 214.15 84.2002 214.572C83.5354 214.994 82.7598 215.205 81.8735 215.205ZM81.8735 213.849C82.5468 213.849 83.1007 213.677 83.5354 213.332C83.9701 212.987 84.2918 212.533 84.5006 211.97C84.7094 211.408 84.8138 210.798 84.8138 210.142C84.8138 209.486 84.7094 208.874 84.5006 208.308C84.2918 207.741 83.9701 207.283 83.5354 206.933C83.1007 206.584 82.5468 206.409 81.8735 206.409C81.2002 206.409 80.6462 206.584 80.2115 206.933C79.7769 207.283 79.4551 207.741 79.2463 208.308C79.0375 208.874 78.9331 209.486 78.9331 210.142C78.9331 210.798 79.0375 211.408 79.2463 211.97C79.4551 212.533 79.7769 212.987 80.2115 213.332C80.6462 213.677 81.2002 213.849 81.8735 213.849ZM92.6137 215.205C91.6932 215.205 90.9006 214.987 90.2359 214.553C89.5711 214.118 89.0597 213.519 88.7018 212.756C88.3438 211.994 88.1648 211.122 88.1648 210.142C88.1648 209.145 88.3481 208.265 88.7146 207.502C89.0853 206.735 89.6009 206.136 90.2614 205.706C90.9262 205.271 91.7018 205.054 92.5881 205.054C93.2785 205.054 93.9006 205.182 94.4546 205.438C95.0086 205.693 95.4624 206.051 95.8161 206.511C96.1698 206.972 96.3893 207.509 96.4745 208.122H94.966C94.8509 207.675 94.5952 207.278 94.1989 206.933C93.8069 206.584 93.2785 206.409 92.6137 206.409C92.0256 206.409 91.51 206.562 91.0668 206.869C90.6279 207.172 90.2849 207.6 90.0377 208.154C89.7948 208.704 89.6734 209.349 89.6734 210.091C89.6734 210.849 89.7927 211.51 90.0313 212.072C90.2742 212.635 90.6151 213.072 91.054 213.383C91.4972 213.694 92.0171 213.849 92.6137 213.849C93.0057 213.849 93.3616 213.781 93.6812 213.645C94.0008 213.509 94.2714 213.312 94.493 213.057C94.7146 212.801 94.8722 212.494 94.966 212.136H96.4745C96.3893 212.716 96.1783 213.238 95.8417 213.702C95.5093 214.163 95.0682 214.529 94.5185 214.802C93.9731 215.07 93.3381 215.205 92.6137 215.205ZM97.9063 206.588V205.182H105.884V206.588H102.662V215H101.153V206.588H97.9063ZM110.463 215.23C109.841 215.23 109.277 215.113 108.77 214.879C108.262 214.64 107.86 214.297 107.562 213.849C107.263 213.398 107.114 212.852 107.114 212.213C107.114 211.651 107.225 211.195 107.446 210.845C107.668 210.491 107.964 210.214 108.335 210.014C108.706 209.814 109.115 209.665 109.562 209.567C110.014 209.464 110.468 209.384 110.924 209.324C111.52 209.247 112.004 209.19 112.375 209.151C112.75 209.109 113.022 209.038 113.193 208.94C113.368 208.842 113.455 208.672 113.455 208.429V208.378C113.455 207.747 113.282 207.257 112.937 206.908C112.596 206.558 112.079 206.384 111.384 206.384C110.664 206.384 110.099 206.541 109.69 206.857C109.281 207.172 108.993 207.509 108.827 207.866L107.395 207.355C107.651 206.759 107.992 206.294 108.418 205.962C108.848 205.625 109.317 205.391 109.824 205.259C110.336 205.122 110.838 205.054 111.333 205.054C111.648 205.054 112.01 205.092 112.419 205.169C112.833 205.241 113.231 205.393 113.615 205.623C114.003 205.853 114.324 206.2 114.58 206.665C114.836 207.129 114.963 207.751 114.963 208.531V215H113.455V213.67H113.378C113.276 213.884 113.106 214.112 112.867 214.354C112.628 214.597 112.311 214.804 111.914 214.974C111.518 215.145 111.035 215.23 110.463 215.23ZM110.694 213.875C111.29 213.875 111.793 213.758 112.202 213.523C112.615 213.289 112.927 212.987 113.135 212.616C113.348 212.245 113.455 211.855 113.455 211.446V210.065C113.391 210.142 113.25 210.212 113.033 210.276C112.82 210.336 112.573 210.389 112.292 210.436C112.015 210.479 111.744 210.517 111.48 210.551C111.22 210.581 111.009 210.607 110.847 210.628C110.455 210.679 110.088 210.762 109.748 210.877C109.411 210.988 109.138 211.156 108.929 211.382C108.725 211.604 108.623 211.906 108.623 212.29C108.623 212.814 108.816 213.21 109.204 213.479C109.596 213.743 110.093 213.875 110.694 213.875ZM117.717 215V205.182H121.731C122.788 205.182 123.627 205.42 124.25 205.898C124.872 206.375 125.183 207.006 125.183 207.79C125.183 208.386 125.006 208.849 124.652 209.177C124.299 209.501 123.845 209.72 123.291 209.835C123.653 209.886 124.005 210.014 124.345 210.219C124.691 210.423 124.976 210.705 125.202 211.062C125.428 211.416 125.541 211.851 125.541 212.366C125.541 212.869 125.413 213.319 125.157 213.715C124.902 214.112 124.535 214.425 124.058 214.655C123.581 214.885 123.009 215 122.345 215H117.717ZM119.149 213.619H122.345C122.865 213.619 123.272 213.496 123.566 213.249C123.86 213.001 124.007 212.665 124.007 212.239C124.007 211.732 123.86 211.333 123.566 211.043C123.272 210.749 122.865 210.602 122.345 210.602H119.149V213.619ZM119.149 209.298H121.731C122.136 209.298 122.483 209.243 122.773 209.132C123.063 209.017 123.284 208.855 123.438 208.646C123.595 208.433 123.674 208.182 123.674 207.892C123.674 207.479 123.502 207.155 123.156 206.92C122.811 206.682 122.336 206.562 121.731 206.562H119.149V209.298ZM126.955 215V213.594H127.313C127.607 213.594 127.852 213.536 128.048 213.421C128.244 213.302 128.402 213.095 128.521 212.801C128.645 212.503 128.738 212.089 128.802 211.561C128.87 211.028 128.919 210.351 128.949 209.528L129.128 205.182H135.674V215H134.165V206.588H130.56L130.407 210.091C130.373 210.896 130.3 211.606 130.189 212.219C130.083 212.829 129.919 213.34 129.697 213.754C129.48 214.167 129.19 214.478 128.828 214.687C128.466 214.896 128.012 215 127.466 215H126.955ZM142.558 215.205C141.612 215.205 140.796 214.996 140.11 214.578C139.428 214.156 138.902 213.568 138.531 212.814C138.164 212.055 137.981 211.173 137.981 210.168C137.981 209.162 138.164 208.276 138.531 207.509C138.902 206.737 139.417 206.136 140.078 205.706C140.743 205.271 141.518 205.054 142.405 205.054C142.916 205.054 143.421 205.139 143.919 205.31C144.418 205.48 144.872 205.757 145.281 206.141C145.69 206.52 146.016 207.023 146.259 207.649C146.502 208.276 146.623 209.047 146.623 209.963V210.602H139.055V209.298H145.089C145.089 208.744 144.978 208.25 144.757 207.815C144.539 207.381 144.228 207.038 143.824 206.786C143.423 206.535 142.95 206.409 142.405 206.409C141.804 206.409 141.284 206.558 140.845 206.857C140.41 207.151 140.076 207.534 139.841 208.007C139.607 208.48 139.49 208.987 139.49 209.528V210.398C139.49 211.139 139.618 211.768 139.873 212.283C140.133 212.795 140.493 213.185 140.954 213.453C141.414 213.717 141.949 213.849 142.558 213.849C142.954 213.849 143.312 213.794 143.632 213.683C143.956 213.568 144.235 213.398 144.469 213.172C144.704 212.942 144.885 212.656 145.012 212.315L146.47 212.724C146.316 213.219 146.059 213.653 145.696 214.028C145.334 214.399 144.887 214.689 144.354 214.898C143.821 215.102 143.223 215.205 142.558 215.205ZM155.489 209.401V210.807H150.069V209.401H155.489ZM150.427 205.182V215H148.918V205.182H150.427ZM156.64 205.182V215H155.131V205.182H156.64ZM160.903 212.776L165.633 205.182H167.372V215H165.863V207.406L161.159 215H159.395V205.182H160.903V212.776ZM174.251 215.205C173.305 215.205 172.489 214.996 171.803 214.578C171.121 214.156 170.595 213.568 170.224 212.814C169.858 212.055 169.675 211.173 169.675 210.168C169.675 209.162 169.858 208.276 170.224 207.509C170.595 206.737 171.111 206.136 171.771 205.706C172.436 205.271 173.212 205.054 174.098 205.054C174.609 205.054 175.114 205.139 175.613 205.31C176.111 205.48 176.565 205.757 176.974 206.141C177.383 206.52 177.709 207.023 177.952 207.649C178.195 208.276 178.317 209.047 178.317 209.963V210.602H170.748V209.298H176.783C176.783 208.744 176.672 208.25 176.45 207.815C176.233 207.381 175.922 207.038 175.517 206.786C175.116 206.535 174.643 206.409 174.098 206.409C173.497 206.409 172.977 206.558 172.538 206.857C172.104 207.151 171.769 207.534 171.535 208.007C171.3 208.48 171.183 208.987 171.183 209.528V210.398C171.183 211.139 171.311 211.768 171.567 212.283C171.827 212.795 172.187 213.185 172.647 213.453C173.107 213.717 173.642 213.849 174.251 213.849C174.648 213.849 175.006 213.794 175.325 213.683C175.649 213.568 175.928 213.398 176.163 213.172C176.397 212.942 176.578 212.656 176.706 212.315L178.163 212.724C178.01 213.219 177.752 213.653 177.39 214.028C177.028 214.399 176.58 214.689 176.047 214.898C175.515 215.102 174.916 215.205 174.251 215.205ZM189.663 215.205C188.776 215.205 187.998 214.994 187.329 214.572C186.665 214.15 186.145 213.56 185.77 212.801C185.399 212.043 185.214 211.156 185.214 210.142C185.214 209.119 185.399 208.227 185.77 207.464C186.145 206.701 186.665 206.109 187.329 205.687C187.998 205.265 188.776 205.054 189.663 205.054C190.549 205.054 191.324 205.265 191.989 205.687C192.658 206.109 193.178 206.701 193.549 207.464C193.924 208.227 194.111 209.119 194.111 210.142C194.111 211.156 193.924 212.043 193.549 212.801C193.178 213.56 192.658 214.15 191.989 214.572C191.324 214.994 190.549 215.205 189.663 215.205ZM189.663 213.849C190.336 213.849 190.89 213.677 191.324 213.332C191.759 212.987 192.081 212.533 192.29 211.97C192.498 211.408 192.603 210.798 192.603 210.142C192.603 209.486 192.498 208.874 192.29 208.308C192.081 207.741 191.759 207.283 191.324 206.933C190.89 206.584 190.336 206.409 189.663 206.409C188.989 206.409 188.435 206.584 188.001 206.933C187.566 207.283 187.244 207.741 187.035 208.308C186.827 208.874 186.722 209.486 186.722 210.142C186.722 210.798 186.827 211.408 187.035 211.97C187.244 212.533 187.566 212.987 188.001 213.332C188.435 213.677 188.989 213.849 189.663 213.849ZM196.414 215V205.182H204.136V215H202.627V206.588H197.923V215H196.414ZM208.399 212.776L213.129 205.182H214.868V215H213.359V207.406L208.655 215H206.891V205.182H208.399V212.776ZM221.62 215.205C220.699 215.205 219.906 214.987 219.242 214.553C218.577 214.118 218.066 213.519 217.708 212.756C217.35 211.994 217.171 211.122 217.171 210.142C217.171 209.145 217.354 208.265 217.72 207.502C218.091 206.735 218.607 206.136 219.267 205.706C219.932 205.271 220.708 205.054 221.594 205.054C222.284 205.054 222.906 205.182 223.46 205.438C224.014 205.693 224.468 206.051 224.822 206.511C225.176 206.972 225.395 207.509 225.48 208.122H223.972C223.857 207.675 223.601 207.278 223.205 206.933C222.813 206.584 222.284 206.409 221.62 206.409C221.031 206.409 220.516 206.562 220.073 206.869C219.634 207.172 219.291 207.6 219.044 208.154C218.801 208.704 218.679 209.349 218.679 210.091C218.679 210.849 218.799 211.51 219.037 212.072C219.28 212.635 219.621 213.072 220.06 213.383C220.503 213.694 221.023 213.849 221.62 213.849C222.012 213.849 222.367 213.781 222.687 213.645C223.007 213.509 223.277 213.312 223.499 213.057C223.72 212.801 223.878 212.494 223.972 212.136H225.48C225.395 212.716 225.184 213.238 224.848 213.702C224.515 214.163 224.074 214.529 223.524 214.802C222.979 215.07 222.344 215.205 221.62 215.205ZM230.575 215.23C229.953 215.23 229.388 215.113 228.881 214.879C228.374 214.64 227.971 214.297 227.673 213.849C227.375 213.398 227.225 212.852 227.225 212.213C227.225 211.651 227.336 211.195 227.558 210.845C227.779 210.491 228.076 210.214 228.446 210.014C228.817 209.814 229.226 209.665 229.674 209.567C230.125 209.464 230.579 209.384 231.035 209.324C231.632 209.247 232.115 209.19 232.486 209.151C232.861 209.109 233.134 209.038 233.304 208.94C233.479 208.842 233.566 208.672 233.566 208.429V208.378C233.566 207.747 233.394 207.257 233.049 206.908C232.708 206.558 232.19 206.384 231.495 206.384C230.775 206.384 230.21 206.541 229.801 206.857C229.392 207.172 229.105 207.509 228.938 207.866L227.507 207.355C227.762 206.759 228.103 206.294 228.529 205.962C228.96 205.625 229.429 205.391 229.936 205.259C230.447 205.122 230.95 205.054 231.444 205.054C231.759 205.054 232.122 205.092 232.531 205.169C232.944 205.241 233.343 205.393 233.726 205.623C234.114 205.853 234.436 206.2 234.691 206.665C234.947 207.129 235.075 207.751 235.075 208.531V215H233.566V213.67H233.49C233.387 213.884 233.217 214.112 232.978 214.354C232.74 214.597 232.422 214.804 232.026 214.974C231.63 215.145 231.146 215.23 230.575 215.23ZM230.805 213.875C231.402 213.875 231.904 213.758 232.313 213.523C232.727 213.289 233.038 212.987 233.247 212.616C233.46 212.245 233.566 211.855 233.566 211.446V210.065C233.502 210.142 233.362 210.212 233.144 210.276C232.931 210.336 232.684 210.389 232.403 210.436C232.126 210.479 231.855 210.517 231.591 210.551C231.331 210.581 231.12 210.607 230.958 210.628C230.566 210.679 230.2 210.762 229.859 210.877C229.522 210.988 229.25 211.156 229.041 211.382C228.836 211.604 228.734 211.906 228.734 212.29C228.734 212.814 228.928 213.21 229.316 213.479C229.708 213.743 230.204 213.875 230.805 213.875ZM244.399 209.401V210.807H238.979V209.401H244.399ZM239.337 205.182V215H237.828V205.182H239.337ZM245.55 205.182V215H244.041V205.182H245.55ZM249.813 212.776L254.543 205.182H256.282V215H254.774V207.406L250.069 215H248.305V205.182H249.813V212.776ZM264.951 215V206.562H262.343C261.755 206.562 261.293 206.699 260.956 206.972C260.62 207.244 260.451 207.619 260.451 208.097C260.451 208.565 260.603 208.934 260.905 209.202C261.212 209.471 261.632 209.605 262.164 209.605H265.335V211.011H262.164C261.5 211.011 260.926 210.894 260.445 210.66C259.963 210.425 259.593 210.091 259.333 209.656C259.073 209.217 258.943 208.697 258.943 208.097C258.943 207.491 259.079 206.972 259.352 206.537C259.625 206.102 260.014 205.768 260.522 205.533C261.033 205.299 261.64 205.182 262.343 205.182H266.383V215H264.951ZM258.406 215L261.193 210.116H262.829L260.042 215H258.406ZM93.7491 239V229.182H101.471V239H99.9622V230.588H95.2576V239H93.7491ZM104.226 242.682V229.182H105.683V230.741H105.862C105.973 230.571 106.126 230.354 106.322 230.089C106.523 229.821 106.808 229.582 107.179 229.374C107.554 229.161 108.061 229.054 108.7 229.054C109.527 229.054 110.255 229.261 110.886 229.674C111.517 230.087 112.009 230.673 112.363 231.432C112.716 232.19 112.893 233.085 112.893 234.116C112.893 235.156 112.716 236.058 112.363 236.82C112.009 237.579 111.519 238.167 110.893 238.585C110.266 238.998 109.544 239.205 108.726 239.205C108.095 239.205 107.59 239.1 107.211 238.891C106.831 238.678 106.54 238.437 106.335 238.169C106.13 237.896 105.973 237.67 105.862 237.491H105.734V242.682H104.226ZM105.709 234.091C105.709 234.832 105.817 235.487 106.035 236.053C106.252 236.616 106.569 237.057 106.987 237.376C107.405 237.692 107.916 237.849 108.521 237.849C109.152 237.849 109.678 237.683 110.1 237.351C110.526 237.014 110.846 236.562 111.059 235.996C111.276 235.425 111.385 234.79 111.385 234.091C111.385 233.401 111.278 232.778 111.065 232.224C110.856 231.666 110.539 231.225 110.113 230.901C109.691 230.573 109.16 230.409 108.521 230.409C107.907 230.409 107.392 230.565 106.974 230.876C106.557 231.183 106.241 231.613 106.028 232.167C105.815 232.717 105.709 233.358 105.709 234.091ZM116.703 236.776L121.433 229.182H123.172V239H121.663V231.406L116.959 239H115.194V229.182H116.703V236.776ZM125.065 239V237.594H125.423C125.717 237.594 125.962 237.536 126.158 237.421C126.354 237.302 126.512 237.095 126.631 236.801C126.755 236.503 126.849 236.089 126.913 235.561C126.981 235.028 127.03 234.351 127.06 233.528L127.239 229.182H133.784V239H132.276V230.588H128.67L128.517 234.091C128.483 234.896 128.41 235.606 128.3 236.219C128.193 236.829 128.029 237.34 127.808 237.754C127.59 238.167 127.3 238.478 126.938 238.687C126.576 238.896 126.122 239 125.577 239H125.065ZM140.54 239.205C139.654 239.205 138.876 238.994 138.207 238.572C137.543 238.15 137.023 237.56 136.648 236.801C136.277 236.043 136.092 235.156 136.092 234.142C136.092 233.119 136.277 232.227 136.648 231.464C137.023 230.701 137.543 230.109 138.207 229.687C138.876 229.265 139.654 229.054 140.54 229.054C141.427 229.054 142.202 229.265 142.867 229.687C143.536 230.109 144.056 230.701 144.427 231.464C144.802 232.227 144.989 233.119 144.989 234.142C144.989 235.156 144.802 236.043 144.427 236.801C144.056 237.56 143.536 238.15 142.867 238.572C142.202 238.994 141.427 239.205 140.54 239.205ZM140.54 237.849C141.214 237.849 141.768 237.677 142.202 237.332C142.637 236.987 142.959 236.533 143.168 235.97C143.376 235.408 143.481 234.798 143.481 234.142C143.481 233.486 143.376 232.874 143.168 232.308C142.959 231.741 142.637 231.283 142.202 230.933C141.768 230.584 141.214 230.409 140.54 230.409C139.867 230.409 139.313 230.584 138.879 230.933C138.444 231.283 138.122 231.741 137.913 232.308C137.705 232.874 137.6 233.486 137.6 234.142C137.6 234.798 137.705 235.408 137.913 235.97C138.122 236.533 138.444 236.987 138.879 237.332C139.313 237.677 139.867 237.849 140.54 237.849ZM146.274 239L150.263 234.014L146.325 229.182H148.115L151.388 233.375H152.206V229.182H153.714V233.375H154.507L157.78 229.182H159.57L155.658 234.014L159.621 239H157.805L154.482 234.781H153.714V239H152.206V234.781H151.439L148.089 239H146.274ZM165.489 239.205C164.543 239.205 163.727 238.996 163.04 238.578C162.359 238.156 161.832 237.568 161.462 236.814C161.095 236.055 160.912 235.173 160.912 234.168C160.912 233.162 161.095 232.276 161.462 231.509C161.832 230.737 162.348 230.136 163.009 229.706C163.673 229.271 164.449 229.054 165.335 229.054C165.847 229.054 166.352 229.139 166.85 229.31C167.349 229.48 167.803 229.757 168.212 230.141C168.621 230.52 168.947 231.023 169.19 231.649C169.433 232.276 169.554 233.047 169.554 233.963V234.602H161.986V233.298H168.02C168.02 232.744 167.909 232.25 167.687 231.815C167.47 231.381 167.159 231.038 166.754 230.786C166.354 230.535 165.881 230.409 165.335 230.409C164.734 230.409 164.214 230.558 163.776 230.857C163.341 231.151 163.006 231.534 162.772 232.007C162.538 232.48 162.42 232.987 162.42 233.528V234.398C162.42 235.139 162.548 235.768 162.804 236.283C163.064 236.795 163.424 237.185 163.884 237.453C164.344 237.717 164.879 237.849 165.489 237.849C165.885 237.849 166.243 237.794 166.562 237.683C166.886 237.568 167.165 237.398 167.4 237.172C167.634 236.942 167.815 236.656 167.943 236.315L169.401 236.724C169.247 237.219 168.989 237.653 168.627 238.028C168.265 238.399 167.817 238.689 167.285 238.898C166.752 239.102 166.153 239.205 165.489 239.205ZM178.42 233.401V234.807H172.999V233.401H178.42ZM173.357 229.182V239H171.849V229.182H173.357ZM179.57 229.182V239H178.062V229.182H179.57ZM183.834 236.776L188.564 229.182H190.303V239H188.794V231.406L184.089 239H182.325V229.182H183.834V236.776ZM198.972 239V230.562H196.364C195.776 230.562 195.313 230.699 194.977 230.972C194.64 231.244 194.472 231.619 194.472 232.097C194.472 232.565 194.623 232.934 194.926 233.202C195.232 233.471 195.652 233.605 196.185 233.605H199.355V235.011H196.185C195.52 235.011 194.947 234.894 194.465 234.66C193.984 234.425 193.613 234.091 193.353 233.656C193.093 233.217 192.963 232.697 192.963 232.097C192.963 231.491 193.1 230.972 193.372 230.537C193.645 230.102 194.035 229.768 194.542 229.533C195.053 229.299 195.661 229.182 196.364 229.182H200.404V239H198.972ZM192.426 239L195.213 234.116H196.85L194.063 239H192.426ZM207.187 241.812V237.594H208.005C208.206 237.385 208.378 237.159 208.523 236.916C208.668 236.673 208.794 236.386 208.9 236.053C209.011 235.717 209.105 235.308 209.181 234.826C209.258 234.34 209.326 233.754 209.386 233.068L209.718 229.182H215.957V237.594H217.466V241.812H215.957V239H208.696V241.812H207.187ZM209.718 237.594H214.448V230.588H211.125L210.869 233.068C210.762 234.095 210.63 234.992 210.473 235.759C210.315 236.526 210.064 237.138 209.718 237.594ZM218.599 239V237.594H218.956C219.251 237.594 219.496 237.536 219.692 237.421C219.888 237.302 220.045 237.095 220.165 236.801C220.288 236.503 220.382 236.089 220.446 235.561C220.514 235.028 220.563 234.351 220.593 233.528L220.772 229.182H227.317V239H225.809V230.588H222.204L222.05 234.091C222.016 234.896 221.944 235.606 221.833 236.219C221.726 236.829 221.562 237.34 221.341 237.754C221.123 238.167 220.834 238.478 220.471 238.687C220.109 238.896 219.655 239 219.11 239H218.599ZM235.991 239V230.562H233.383C232.795 230.562 232.333 230.699 231.996 230.972C231.66 231.244 231.491 231.619 231.491 232.097C231.491 232.565 231.643 232.934 231.945 233.202C232.252 233.471 232.672 233.605 233.204 233.605H236.375V235.011H233.204C232.54 235.011 231.966 234.894 231.485 234.66C231.003 234.425 230.633 234.091 230.373 233.656C230.113 233.217 229.983 232.697 229.983 232.097C229.983 231.491 230.119 230.972 230.392 230.537C230.665 230.102 231.054 229.768 231.562 229.533C232.073 229.299 232.68 229.182 233.383 229.182H237.423V239H235.991ZM229.446 239L232.233 234.116H233.869L231.082 239H229.446ZM58.7167 263V261.594H59.0746C59.3687 261.594 59.6137 261.536 59.8097 261.421C60.0057 261.302 60.1634 261.095 60.2827 260.801C60.4063 260.503 60.5001 260.089 60.564 259.561C60.6322 259.028 60.6812 258.351 60.711 257.528L60.89 253.182H67.4354V263H65.9269V254.588H62.3218L62.1684 258.091C62.1343 258.896 62.0619 259.606 61.9511 260.219C61.8445 260.829 61.6805 261.34 61.4589 261.754C61.2415 262.167 60.9518 262.478 60.5896 262.687C60.2273 262.896 59.7735 263 59.228 263H58.7167ZM70.8232 266.682C70.5675 266.682 70.3396 266.661 70.1393 266.618C69.939 266.58 69.8005 266.541 69.7238 266.503L70.1073 265.173C70.4738 265.267 70.7977 265.301 71.0789 265.276C71.3602 265.25 71.6094 265.124 71.8268 264.898C72.0484 264.677 72.2508 264.317 72.434 263.818L72.7153 263.051L69.0846 253.182H70.7209L73.4312 261.006H73.5334L76.2437 253.182H77.88L73.7124 264.432C73.5249 264.939 73.2927 265.359 73.0157 265.691C72.7387 266.028 72.417 266.277 72.0505 266.439C71.6883 266.601 71.2792 266.682 70.8232 266.682ZM87.1405 253.182V263H85.632V253.182H87.1405ZM86.5524 257.861V259.267C86.2115 259.395 85.8728 259.508 85.5361 259.606C85.1995 259.7 84.8458 259.774 84.475 259.83C84.1043 259.881 83.6973 259.906 83.2542 259.906C82.1419 259.906 81.2492 259.606 80.5759 259.005C79.9068 258.404 79.5723 257.503 79.5723 256.301V253.156H81.0809V256.301C81.0809 256.804 81.1767 257.217 81.3685 257.541C81.5603 257.865 81.8202 258.106 82.1483 258.263C82.4765 258.421 82.8451 258.5 83.2542 258.5C83.8934 258.5 84.4708 258.442 84.9864 258.327C85.5063 258.208 86.0283 258.053 86.5524 257.861ZM89.9083 253.182H91.4168V261.594H95.1242V253.182H96.6327V261.594H100.34V253.182H101.849V263H89.9083V253.182ZM108.72 263.205C107.774 263.205 106.958 262.996 106.272 262.578C105.59 262.156 105.064 261.568 104.693 260.814C104.327 260.055 104.143 259.173 104.143 258.168C104.143 257.162 104.327 256.276 104.693 255.509C105.064 254.737 105.579 254.136 106.24 253.706C106.905 253.271 107.68 253.054 108.567 253.054C109.078 253.054 109.583 253.139 110.082 253.31C110.58 253.48 111.034 253.757 111.443 254.141C111.852 254.52 112.178 255.023 112.421 255.649C112.664 256.276 112.785 257.047 112.785 257.963V258.602H105.217V257.298H111.251C111.251 256.744 111.141 256.25 110.919 255.815C110.702 255.381 110.391 255.038 109.986 254.786C109.585 254.535 109.112 254.409 108.567 254.409C107.966 254.409 107.446 254.558 107.007 254.857C106.572 255.151 106.238 255.534 106.003 256.007C105.769 256.48 105.652 256.987 105.652 257.528V258.398C105.652 259.139 105.78 259.768 106.035 260.283C106.295 260.795 106.655 261.185 107.116 261.453C107.576 261.717 108.111 261.849 108.72 261.849C109.116 261.849 109.474 261.794 109.794 261.683C110.118 261.568 110.397 261.398 110.631 261.172C110.866 260.942 111.047 260.656 111.175 260.315L112.632 260.724C112.479 261.219 112.221 261.653 111.859 262.028C111.496 262.399 111.049 262.689 110.516 262.898C109.984 263.102 109.385 263.205 108.72 263.205ZM121.14 253.182V254.588H116.589V263H115.08V253.182H121.14ZM126.821 263.205C125.934 263.205 125.157 262.994 124.488 262.572C123.823 262.15 123.303 261.56 122.928 260.801C122.557 260.043 122.372 259.156 122.372 258.142C122.372 257.119 122.557 256.227 122.928 255.464C123.303 254.701 123.823 254.109 124.488 253.687C125.157 253.265 125.934 253.054 126.821 253.054C127.707 253.054 128.483 253.265 129.147 253.687C129.816 254.109 130.336 254.701 130.707 255.464C131.082 256.227 131.27 257.119 131.27 258.142C131.27 259.156 131.082 260.043 130.707 260.801C130.336 261.56 129.816 262.15 129.147 262.572C128.483 262.994 127.707 263.205 126.821 263.205ZM126.821 261.849C127.494 261.849 128.048 261.677 128.483 261.332C128.917 260.987 129.239 260.533 129.448 259.97C129.657 259.408 129.761 258.798 129.761 258.142C129.761 257.486 129.657 256.874 129.448 256.308C129.239 255.741 128.917 255.283 128.483 254.933C128.048 254.584 127.494 254.409 126.821 254.409C126.147 254.409 125.593 254.584 125.159 254.933C124.724 255.283 124.402 255.741 124.194 256.308C123.985 256.874 123.88 257.486 123.88 258.142C123.88 258.798 123.985 259.408 124.194 259.97C124.402 260.533 124.724 260.987 125.159 261.332C125.593 261.677 126.147 261.849 126.821 261.849ZM138.635 263V253.182H146.356V263H144.848V254.588H140.143V263H138.635ZM149.111 266.682V253.182H150.569V254.741H150.748C150.859 254.571 151.012 254.354 151.208 254.089C151.408 253.821 151.694 253.582 152.065 253.374C152.44 253.161 152.947 253.054 153.586 253.054C154.413 253.054 155.141 253.261 155.772 253.674C156.403 254.087 156.895 254.673 157.248 255.432C157.602 256.19 157.779 257.085 157.779 258.116C157.779 259.156 157.602 260.058 157.248 260.82C156.895 261.579 156.405 262.167 155.778 262.585C155.152 262.998 154.43 263.205 153.611 263.205C152.981 263.205 152.476 263.1 152.096 262.891C151.717 262.678 151.425 262.437 151.221 262.169C151.016 261.896 150.859 261.67 150.748 261.491H150.62V266.682H149.111ZM150.594 258.091C150.594 258.832 150.703 259.487 150.92 260.053C151.138 260.616 151.455 261.057 151.873 261.376C152.29 261.692 152.802 261.849 153.407 261.849C154.038 261.849 154.564 261.683 154.986 261.351C155.412 261.014 155.731 260.562 155.944 259.996C156.162 259.425 156.27 258.79 156.27 258.091C156.27 257.401 156.164 256.778 155.951 256.224C155.742 255.666 155.425 255.225 154.998 254.901C154.577 254.573 154.046 254.409 153.407 254.409C152.793 254.409 152.278 254.565 151.86 254.876C151.442 255.183 151.127 255.613 150.914 256.167C150.701 256.717 150.594 257.358 150.594 258.091ZM164.069 263.205C163.182 263.205 162.405 262.994 161.736 262.572C161.071 262.15 160.551 261.56 160.176 260.801C159.805 260.043 159.62 259.156 159.62 258.142C159.62 257.119 159.805 256.227 160.176 255.464C160.551 254.701 161.071 254.109 161.736 253.687C162.405 253.265 163.182 253.054 164.069 253.054C164.955 253.054 165.731 253.265 166.395 253.687C167.065 254.109 167.584 254.701 167.955 255.464C168.33 256.227 168.518 257.119 168.518 258.142C168.518 259.156 168.33 260.043 167.955 260.801C167.584 261.56 167.065 262.15 166.395 262.572C165.731 262.994 164.955 263.205 164.069 263.205ZM164.069 261.849C164.742 261.849 165.296 261.677 165.731 261.332C166.165 260.987 166.487 260.533 166.696 259.97C166.905 259.408 167.009 258.798 167.009 258.142C167.009 257.486 166.905 256.874 166.696 256.308C166.487 255.741 166.165 255.283 165.731 254.933C165.296 254.584 164.742 254.409 164.069 254.409C163.395 254.409 162.842 254.584 162.407 254.933C161.972 255.283 161.65 255.741 161.442 256.308C161.233 256.874 161.128 257.486 161.128 258.142C161.128 258.798 161.233 259.408 161.442 259.97C161.65 260.533 161.972 260.987 162.407 261.332C162.842 261.677 163.395 261.849 164.069 261.849ZM169.772 265.812V261.594H170.59C170.791 261.385 170.963 261.159 171.108 260.916C171.253 260.673 171.379 260.386 171.485 260.053C171.596 259.717 171.69 259.308 171.766 258.826C171.843 258.34 171.911 257.754 171.971 257.068L172.303 253.182H178.542V261.594H180.05V265.812H178.542V263H171.281V265.812H169.772ZM172.303 261.594H177.033V254.588H173.71L173.454 257.068C173.347 258.095 173.215 258.992 173.058 259.759C172.9 260.526 172.649 261.138 172.303 261.594ZM182.053 263V253.182H186.067C187.124 253.182 187.963 253.42 188.585 253.898C189.208 254.375 189.519 255.006 189.519 255.79C189.519 256.386 189.342 256.849 188.988 257.177C188.634 257.501 188.181 257.72 187.627 257.835C187.989 257.886 188.34 258.014 188.681 258.219C189.027 258.423 189.312 258.705 189.538 259.062C189.764 259.416 189.877 259.851 189.877 260.366C189.877 260.869 189.749 261.319 189.493 261.715C189.237 262.112 188.871 262.425 188.394 262.655C187.916 262.885 187.345 263 186.681 263H182.053ZM183.485 261.619H186.681C187.201 261.619 187.607 261.496 187.902 261.249C188.196 261.001 188.343 260.665 188.343 260.239C188.343 259.732 188.196 259.333 187.902 259.043C187.607 258.749 187.201 258.602 186.681 258.602H183.485V261.619ZM183.485 257.298H186.067C186.472 257.298 186.819 257.243 187.109 257.132C187.399 257.017 187.62 256.855 187.774 256.646C187.931 256.433 188.01 256.182 188.01 255.892C188.01 255.479 187.838 255.155 187.492 254.92C187.147 254.682 186.672 254.562 186.067 254.562H183.485V257.298ZM193.669 260.776L198.399 253.182H200.137V263H198.629V255.406L193.924 263H192.16V253.182H193.669V260.776ZM202.287 263L206.275 258.014L202.338 253.182H204.128L207.4 257.375H208.219V253.182H209.727V257.375H210.52L213.793 253.182H215.582L211.67 258.014L215.633 263H213.818L210.494 258.781H209.727V263H208.219V258.781H207.452L204.102 263H202.287ZM221.501 263.205C220.555 263.205 219.739 262.996 219.053 262.578C218.371 262.156 217.845 261.568 217.474 260.814C217.108 260.055 216.925 259.173 216.925 258.168C216.925 257.162 217.108 256.276 217.474 255.509C217.845 254.737 218.361 254.136 219.021 253.706C219.686 253.271 220.462 253.054 221.348 253.054C221.859 253.054 222.364 253.139 222.863 253.31C223.361 253.48 223.815 253.757 224.224 254.141C224.633 254.52 224.959 255.023 225.202 255.649C225.445 256.276 225.567 257.047 225.567 257.963V258.602H217.998V257.298H224.033C224.033 256.744 223.922 256.25 223.7 255.815C223.483 255.381 223.172 255.038 222.767 254.786C222.366 254.535 221.893 254.409 221.348 254.409C220.747 254.409 220.227 254.558 219.788 254.857C219.354 255.151 219.019 255.534 218.785 256.007C218.55 256.48 218.433 256.987 218.433 257.528V258.398C218.433 259.139 218.561 259.768 218.817 260.283C219.077 260.795 219.437 261.185 219.897 261.453C220.357 261.717 220.892 261.849 221.501 261.849C221.898 261.849 222.256 261.794 222.575 261.683C222.899 261.568 223.178 261.398 223.413 261.172C223.647 260.942 223.828 260.656 223.956 260.315L225.413 260.724C225.26 261.219 225.002 261.653 224.64 262.028C224.278 262.399 223.83 262.689 223.297 262.898C222.765 263.102 222.166 263.205 221.501 263.205ZM234.432 257.401V258.807H229.012V257.401H234.432ZM229.37 253.182V263H227.861V253.182H229.37ZM235.583 253.182V263H234.074V253.182H235.583ZM239.846 260.776L244.577 253.182H246.315V263H244.807V255.406L240.102 263H238.338V253.182H239.846V260.776ZM254.984 263V254.562H252.376C251.788 254.562 251.326 254.699 250.989 254.972C250.653 255.244 250.484 255.619 250.484 256.097C250.484 256.565 250.636 256.934 250.938 257.202C251.245 257.471 251.665 257.605 252.198 257.605H255.368V259.011H252.198C251.533 259.011 250.96 258.894 250.478 258.66C249.997 258.425 249.626 258.091 249.366 257.656C249.106 257.217 248.976 256.697 248.976 256.097C248.976 255.491 249.112 254.972 249.385 254.537C249.658 254.102 250.048 253.768 250.555 253.533C251.066 253.299 251.673 253.182 252.376 253.182H256.416V263H254.984ZM248.439 263L251.226 258.116H252.862L250.075 263H248.439ZM264.248 263V253.182H268.262C269.319 253.182 270.159 253.42 270.781 253.898C271.403 254.375 271.714 255.006 271.714 255.79C271.714 256.386 271.537 256.849 271.183 257.177C270.83 257.501 270.376 257.72 269.822 257.835C270.184 257.886 270.536 258.014 270.877 258.219C271.222 258.423 271.507 258.705 271.733 259.062C271.959 259.416 272.072 259.851 272.072 260.366C272.072 260.869 271.944 261.319 271.688 261.715C271.433 262.112 271.066 262.425 270.589 262.655C270.112 262.885 269.541 263 268.876 263H264.248ZM265.68 261.619H268.876C269.396 261.619 269.803 261.496 270.097 261.249C270.391 261.001 270.538 260.665 270.538 260.239C270.538 259.732 270.391 259.333 270.097 259.043C269.803 258.749 269.396 258.602 268.876 258.602H265.68V261.619ZM265.68 257.298H268.262C268.667 257.298 269.014 257.243 269.304 257.132C269.594 257.017 269.816 256.855 269.969 256.646C270.127 256.433 270.206 256.182 270.206 255.892C270.206 255.479 270.033 255.155 269.688 254.92C269.343 254.682 268.867 254.562 268.262 254.562H265.68V257.298ZM136.095 287V277.182H143.816V287H142.308V278.588H137.603V287H136.095ZM150.56 287.205C149.674 287.205 148.896 286.994 148.227 286.572C147.562 286.15 147.042 285.56 146.667 284.801C146.296 284.043 146.111 283.156 146.111 282.142C146.111 281.119 146.296 280.227 146.667 279.464C147.042 278.701 147.562 278.109 148.227 277.687C148.896 277.265 149.674 277.054 150.56 277.054C151.446 277.054 152.222 277.265 152.887 277.687C153.556 278.109 154.076 278.701 154.446 279.464C154.821 280.227 155.009 281.119 155.009 282.142C155.009 283.156 154.821 284.043 154.446 284.801C154.076 285.56 153.556 286.15 152.887 286.572C152.222 286.994 151.446 287.205 150.56 287.205ZM150.56 285.849C151.233 285.849 151.787 285.677 152.222 285.332C152.657 284.987 152.978 284.533 153.187 283.97C153.396 283.408 153.5 282.798 153.5 282.142C153.5 281.486 153.396 280.874 153.187 280.308C152.978 279.741 152.657 279.283 152.222 278.933C151.787 278.584 151.233 278.409 150.56 278.409C149.887 278.409 149.333 278.584 148.898 278.933C148.463 279.283 148.142 279.741 147.933 280.308C147.724 280.874 147.62 281.486 147.62 282.142C147.62 282.798 147.724 283.408 147.933 283.97C148.142 284.533 148.463 284.987 148.898 285.332C149.333 285.677 149.887 285.849 150.56 285.849ZM158.82 284.776L163.55 277.182H165.289V287H163.78V279.406L159.076 287H157.312V277.182H158.82V284.776ZM172.04 287.205C171.12 287.205 170.327 286.987 169.663 286.553C168.998 286.118 168.486 285.519 168.129 284.756C167.771 283.994 167.592 283.122 167.592 282.142C167.592 281.145 167.775 280.265 168.141 279.502C168.512 278.735 169.028 278.136 169.688 277.706C170.353 277.271 171.129 277.054 172.015 277.054C172.705 277.054 173.327 277.182 173.881 277.438C174.435 277.693 174.889 278.051 175.243 278.511C175.597 278.972 175.816 279.509 175.901 280.122H174.393C174.278 279.675 174.022 279.278 173.626 278.933C173.234 278.584 172.705 278.409 172.04 278.409C171.452 278.409 170.937 278.562 170.494 278.869C170.055 279.172 169.712 279.6 169.464 280.154C169.222 280.704 169.1 281.349 169.1 282.091C169.1 282.849 169.219 283.51 169.458 284.072C169.701 284.635 170.042 285.072 170.481 285.383C170.924 285.694 171.444 285.849 172.04 285.849C172.433 285.849 172.788 285.781 173.108 285.645C173.428 285.509 173.698 285.312 173.92 285.057C174.141 284.801 174.299 284.494 174.393 284.136H175.901C175.816 284.716 175.605 285.238 175.268 285.702C174.936 286.163 174.495 286.529 173.945 286.802C173.4 287.07 172.765 287.205 172.04 287.205ZM178.107 287V277.182H179.615V281.452H180.612L184.141 277.182H186.084L182.121 281.912L186.135 287H184.192L180.97 282.858H179.615V287H178.107ZM191.487 287.205C190.541 287.205 189.725 286.996 189.039 286.578C188.357 286.156 187.83 285.568 187.46 284.814C187.093 284.055 186.91 283.173 186.91 282.168C186.91 281.162 187.093 280.276 187.46 279.509C187.83 278.737 188.346 278.136 189.007 277.706C189.671 277.271 190.447 277.054 191.333 277.054C191.845 277.054 192.35 277.139 192.848 277.31C193.347 277.48 193.801 277.757 194.21 278.141C194.619 278.52 194.945 279.023 195.188 279.649C195.431 280.276 195.552 281.047 195.552 281.963V282.602H187.984V281.298H194.018C194.018 280.744 193.907 280.25 193.686 279.815C193.468 279.381 193.157 279.038 192.752 278.786C192.352 278.535 191.879 278.409 191.333 278.409C190.732 278.409 190.213 278.558 189.774 278.857C189.339 279.151 189.004 279.534 188.77 280.007C188.536 280.48 188.418 280.987 188.418 281.528V282.398C188.418 283.139 188.546 283.768 188.802 284.283C189.062 284.795 189.422 285.185 189.882 285.453C190.342 285.717 190.877 285.849 191.487 285.849C191.883 285.849 192.241 285.794 192.561 285.683C192.884 285.568 193.164 285.398 193.398 285.172C193.632 284.942 193.813 284.656 193.941 284.315L195.399 284.724C195.245 285.219 194.987 285.653 194.625 286.028C194.263 286.399 193.815 286.689 193.283 286.898C192.75 287.102 192.151 287.205 191.487 287.205Z" fill="white"/>
</g>
</g>
<defs>
<filter id="filter0_d_25_793" x="0" y="0" width="330" height="311" filterUnits="userSpaceOnUse" color-interpolation-filters="sRGB">
<feFlood flood-opacity="0" result="BackgroundImageFix"/>
<feColorMatrix in="SourceAlpha" type="matrix" values="0 0 0 0 0 0 0 0 0 0 0 0 0 0 0 0 0 0 127 0" result="hardAlpha"/>
<feOffset/>
<feGaussianBlur stdDeviation="5"/>
<feComposite in2="hardAlpha" operator="out"/>
<feColorMatrix type="matrix" values="0 0 0 0 0 0 0 0 0 0 0 0 0 0 0 0 0 0 0.15 0"/>
<feBlend mode="normal" in2="BackgroundImageFix" result="effect1_dropShadow_25_793"/>
<feBlend mode="normal" in="SourceGraphic" in2="effect1_dropShadow_25_793" result="shape"/>
</filter>
<filter id="filter1_f_25_793" x="17" y="-50" width="285" height="285" filterUnits="userSpaceOnUse" color-interpolation-filters="sRGB">
<feFlood flood-opacity="0" result="BackgroundImageFix"/>
<feBlend mode="normal" in="SourceGraphic" in2="BackgroundImageFix" result="shape"/>
<feGaussianBlur stdDeviation="50" result="effect1_foregroundBlur_25_793"/>
</filter>
<linearGradient id="paint0_linear_25_793" x1="26.5" y1="301" x2="275.851" y2="308.145" gradientUnits="userSpaceOnUse">
<stop stop-color="#EA3E66"/>
<stop offset="1" stop-color="#F30045"/>
</linearGradient>
<clipPath id="clip0_25_793">
<rect x="10" y="10" width="310" height="291" rx="20" fill="white"/>
</clipPath>
</defs>
</svg>
