<svg width="19" height="20" viewBox="0 0 19 20" fill="none" xmlns="http://www.w3.org/2000/svg">
<g clip-path="url(#clip0_44_417)">
<path d="M19 1.31219C19 0.718439 18.3766 0.0950012 17.7234 0.0950012H9.58906C8.93594 0.0950012 8.3125 0.718439 8.3125 1.31219V17.8481C8.3125 18.4716 8.93594 19.0653 9.58906 19.0653H17.7531C18.3766 19.0653 19.0297 18.4419 19.0297 17.8481V1.31219H19Z" fill="#5C6D6D"/>
<path d="M18.7031 17.6106C18.7031 18.2044 18.1094 18.7981 17.5156 18.7981H9.79688C9.20312 18.7981 8.60938 18.2044 8.60938 17.6106V1.57938C8.60938 0.985626 9.20312 0.391876 9.79688 0.391876H17.5156C18.1094 0.391876 18.7031 0.985626 18.7031 1.57938V17.6106Z" fill="#212528"/>
<path d="M17.0703 1.72781C17.2343 1.72781 17.3672 1.5949 17.3672 1.43094C17.3672 1.26698 17.2343 1.13406 17.0703 1.13406C16.9064 1.13406 16.7734 1.26698 16.7734 1.43094C16.7734 1.5949 16.9064 1.72781 17.0703 1.72781Z" fill="#94989B"/>
<path d="M14.5469 1.43094C14.5469 1.52 14.5172 1.57938 14.4578 1.57938H12.8547C12.7953 1.57938 12.7656 1.52 12.7656 1.43094C12.7656 1.37156 12.7953 1.2825 12.8547 1.2825H14.4578C14.5172 1.2825 14.5469 1.37156 14.5469 1.43094Z" fill="#94989B"/>
<path d="M9.20312 2.47H18.1094V16.72H9.20312V2.47Z" fill="#3E4347"/>
<path d="M14.7843 17.9669C14.7843 18.0856 14.6953 18.2044 14.5468 18.2044H12.7656C12.6468 18.2044 12.5281 18.1153 12.5281 17.9669V17.5216C12.5281 17.4028 12.6171 17.2841 12.7656 17.2841H14.5468C14.6656 17.2841 14.7843 17.3731 14.7843 17.5216V17.9669Z" fill="#94989B"/>
<path d="M11.2813 4.45907C11.2813 4.60751 11.1626 4.69657 11.0438 4.69657H10.0642C9.91572 4.69657 9.82666 4.57782 9.82666 4.45907V3.47938C9.82666 3.33094 9.94541 3.24188 10.0642 3.24188H11.0438C11.1923 3.24188 11.2813 3.36063 11.2813 3.47938V4.45907Z" fill="#42ADE2"/>
<path d="M13.3595 4.45907C13.3595 4.60751 13.2407 4.69657 13.122 4.69657H12.1423C11.9938 4.69657 11.9048 4.57782 11.9048 4.45907V3.47938C11.9048 3.33094 12.0235 3.24188 12.1423 3.24188H13.122C13.2704 3.24188 13.3595 3.36063 13.3595 3.47938V4.45907Z" fill="#C7E755"/>
<path d="M15.4376 4.45907C15.4376 4.60751 15.3188 4.69657 15.2001 4.69657H14.2204C14.072 4.69657 13.9829 4.57782 13.9829 4.45907V3.47938C13.9829 3.33094 14.1017 3.24188 14.2204 3.24188H15.2001C15.3485 3.24188 15.4376 3.36063 15.4376 3.47938V4.45907Z" fill="#F2B200"/>
<path d="M17.5157 4.45907C17.5157 4.60751 17.397 4.69657 17.2782 4.69657H16.2985C16.1501 4.69657 16.061 4.57782 16.061 4.45907V3.47938C16.061 3.33094 16.1798 3.24188 16.2985 3.24188H17.2782C17.4267 3.24188 17.5157 3.36063 17.5157 3.47938V4.45907Z" fill="#42ADE2"/>
<path d="M11.2813 15.8888C11.2813 16.0372 11.1626 16.1263 11.0438 16.1263H10.0642C9.91572 16.1263 9.82666 16.0075 9.82666 15.8888V14.9091C9.82666 14.7606 9.94541 14.6716 10.0642 14.6716H11.0438C11.1923 14.6716 11.2813 14.7903 11.2813 14.9091V15.8888Z" fill="#C7E755"/>
<path d="M13.3595 15.8888C13.3595 16.0372 13.2407 16.1263 13.122 16.1263H12.1423C11.9938 16.1263 11.9048 16.0075 11.9048 15.8888V14.9091C11.9048 14.7606 12.0235 14.6716 12.1423 14.6716H13.122C13.2704 14.6716 13.3595 14.7903 13.3595 14.9091V15.8888Z" fill="#FF435E"/>
<path d="M15.4376 15.8888C15.4376 16.0372 15.3188 16.1263 15.2001 16.1263H14.2204C14.072 16.1263 13.9829 16.0075 13.9829 15.8888V14.9091C13.9829 14.7606 14.1017 14.6716 14.2204 14.6716H15.2001C15.3485 14.6716 15.4376 14.7903 15.4376 14.9091V15.8888Z" fill="#42ADE2"/>
<path d="M17.5157 15.8888C17.5157 16.0372 17.397 16.1263 17.2782 16.1263H16.2985C16.1501 16.1263 16.061 16.0075 16.061 15.8888V14.9091C16.061 14.7606 16.1798 14.6716 16.2985 14.6716H17.2782C17.4267 14.6716 17.5157 14.7903 17.5157 14.9091V15.8888Z" fill="#C28FEF"/>
<path d="M11.2813 10.1591C11.2813 10.3075 11.1626 10.3966 11.0438 10.3966H10.0642C9.91572 10.3966 9.82666 10.2778 9.82666 10.1591V9.17936C9.82666 9.03093 9.94541 8.94186 10.0642 8.94186H11.0438C11.1923 8.94186 11.2813 9.06061 11.2813 9.17936V10.1591Z" fill="#C7E755"/>
<path d="M13.3595 10.1591C13.3595 10.3075 13.2407 10.3966 13.122 10.3966H12.1423C11.9938 10.3966 11.9048 10.2778 11.9048 10.1591V9.17936C11.9048 9.03093 12.0235 8.94186 12.1423 8.94186H13.122C13.2704 8.94186 13.3595 9.06061 13.3595 9.17936V10.1591Z" fill="#C28FEF"/>
<path d="M15.4376 10.1591C15.4376 10.3075 15.3188 10.3966 15.2001 10.3966H14.2204C14.072 10.3966 13.9829 10.2778 13.9829 10.1591V9.17936C13.9829 9.03093 14.1017 8.94186 14.2204 8.94186H15.2001C15.3485 8.94186 15.4376 9.06061 15.4376 9.17936V10.1591Z" fill="#42ADE2"/>
<path d="M11.2813 8.25906C11.2813 8.4075 11.1626 8.49656 11.0438 8.49656H10.0642C9.91572 8.49656 9.82666 8.37781 9.82666 8.25906V7.27937C9.82666 7.13093 9.94541 7.04187 10.0642 7.04187H11.0438C11.1923 7.04187 11.2813 7.16062 11.2813 7.27937V8.25906Z" fill="#FF435E"/>
<path d="M13.3595 8.25906C13.3595 8.4075 13.2407 8.49656 13.122 8.49656H12.1423C11.9938 8.49656 11.9048 8.37781 11.9048 8.25906V7.27937C11.9048 7.13093 12.0235 7.04187 12.1423 7.04187H13.122C13.2704 7.04187 13.3595 7.16062 13.3595 7.27937V8.25906Z" fill="#F2B200"/>
<path d="M15.4376 8.25906C15.4376 8.4075 15.3188 8.49656 15.2001 8.49656H14.2204C14.072 8.49656 13.9829 8.37781 13.9829 8.25906V7.27937C13.9829 7.13093 14.1017 7.04187 14.2204 7.04187H15.2001C15.3485 7.04187 15.4376 7.16062 15.4376 7.27937V8.25906Z" fill="#C7E755"/>
<path d="M17.5157 8.25906C17.5157 8.4075 17.397 8.49656 17.2782 8.49656H16.2985C16.1501 8.49656 16.061 8.37781 16.061 8.25906V7.27937C16.061 7.13093 16.1798 7.04187 16.2985 7.04187H17.2782C17.4267 7.04187 17.5157 7.16062 17.5157 7.27937V8.25906Z" fill="#F2B200"/>
<path d="M11.2813 6.35906C11.2813 6.5075 11.1626 6.59656 11.0438 6.59656H10.0642C9.91572 6.59656 9.82666 6.47781 9.82666 6.35906V5.37938C9.82666 5.23094 9.94541 5.14188 10.0642 5.14188H11.0438C11.1923 5.14188 11.2813 5.26063 11.2813 5.37938V6.35906Z" fill="#C28FEF"/>
<path d="M13.3595 6.35906C13.3595 6.5075 13.2407 6.59656 13.122 6.59656H12.1423C11.9938 6.59656 11.9048 6.47781 11.9048 6.35906V5.37938C11.9048 5.23094 12.0235 5.14188 12.1423 5.14188H13.122C13.2704 5.14188 13.3595 5.26063 13.3595 5.37938V6.35906Z" fill="#42ADE2"/>
<path d="M15.4376 6.35906C15.4376 6.5075 15.3188 6.59656 15.2001 6.59656H14.2204C14.072 6.59656 13.9829 6.47781 13.9829 6.35906V5.37938C13.9829 5.23094 14.1017 5.14188 14.2204 5.14188H15.2001C15.3485 5.14188 15.4376 5.26063 15.4376 5.37938V6.35906Z" fill="#FF435E"/>
<path d="M17.5157 6.35906C17.5157 6.5075 17.397 6.59656 17.2782 6.59656H16.2985C16.1501 6.59656 16.061 6.47781 16.061 6.35906V5.37938C16.061 5.23094 16.1798 5.14188 16.2985 5.14188H17.2782C17.4267 5.14188 17.5157 5.26063 17.5157 5.37938V6.35906Z" fill="#C28FEF"/>
<path d="M10.6875 9.595L5.01719 3.92468V6.59656H0V12.5934H5.01719V15.2653L10.6875 9.595Z" fill="#4C8CFF"/>
</g>
<defs>
<clipPath id="clip0_44_417">
<rect width="19" height="19" fill="white" transform="translate(0 0.0950012)"/>
</clipPath>
</defs>
</svg>
