<svg width="30" height="30" viewBox="0 0 30 30" fill="none" xmlns="http://www.w3.org/2000/svg">
<g clip-path="url(#clip0_7_7461)">
<path d="M14.9998 29.9996C23.284 29.9996 29.9996 23.284 29.9996 14.9998C29.9996 6.71565 23.284 0 14.9998 0C6.71565 0 0 6.71565 0 14.9998C0 23.284 6.71565 29.9996 14.9998 29.9996Z" fill="#41B4E6"/>
<path d="M29.9999 15.0006C29.9999 14.6351 29.9862 14.2729 29.9605 13.9139L23.7438 7.69727L6.2561 14.5761L12.947 21.2671L13.0348 21.583L13.1484 21.4684L13.1488 21.4689L13.0348 21.583L20.4361 28.9844C26.033 26.807 29.9999 21.3674 29.9999 15.0006Z" fill="#0091C8"/>
<path d="M13.5432 17.1859L20.322 22.3039L23.7438 7.69727L6.2561 14.5761L11.5774 16.3387L21.2889 9.82445L13.5432 17.1859Z" fill="white"/>
<path d="M11.5774 16.3384L13.0348 21.5828L13.5432 17.1857L21.2889 9.82422L11.5774 16.3384Z" fill="#D2D2D7"/>
<path d="M15.7465 18.8489L13.0349 21.5827L13.5433 17.1855L15.7465 18.8489Z" fill="#B9B9BE"/>
</g>
<defs>
<clipPath id="clip0_7_7461">
<rect width="30" height="30" fill="white"/>
</clipPath>
</defs>
</svg>
